<svg width="61" height="46" viewBox="0 0 61 46" fill="none" xmlns="http://www.w3.org/2000/svg">
<path d="M56.8645 5.72034H2.0678C0.925785 5.72034 0 6.64612 0 7.78814V42.9407C0 44.0827 0.925785 45.0085 2.0678 45.0085H56.8645C58.0065 45.0085 58.9323 44.0827 58.9323 42.9407V7.78814C58.9323 6.64612 58.0065 5.72034 56.8645 5.72034Z" fill="#8C32AD"/>
<path fill-rule="evenodd" clip-rule="evenodd" d="M5.16943 0.550903L54.7966 3.6526V5.7204H5.16943V0.550903Z" fill="#FFDD95"/>
<path fill-rule="evenodd" clip-rule="evenodd" d="M43.4236 23.2923C43.4236 21.0106 45.2713 19.161 47.5667 19.161H60.9999V31.5678H47.5667C45.2785 31.5678 43.4236 29.7104 43.4236 27.4365V23.2923Z" fill="#540D6E"/>
<path d="M49.6274 27.4322C50.7694 27.4322 51.6952 26.5064 51.6952 25.3644C51.6952 24.2224 50.7694 23.2966 49.6274 23.2966C48.4854 23.2966 47.5596 24.2224 47.5596 25.3644C47.5596 26.5064 48.4854 27.4322 49.6274 27.4322Z" fill="#8C32AD"/>
<path d="M10.3391 6.75427V42.9407" stroke="#540D6E" stroke-width="2.0678" stroke-linecap="square" stroke-dasharray="4.14 4.14"/>
</svg>
