<svg width="59" height="68" viewBox="0 0 59 68" fill="none" xmlns="http://www.w3.org/2000/svg">
<path fill-rule="evenodd" clip-rule="evenodd" d="M4.29102 34.3274H54.7093V41.8342C54.7093 44.7977 52.3115 47.2002 49.3376 47.2002H9.66277C6.69603 47.2002 4.29102 44.8091 4.29102 41.8342V34.3274Z" fill="#8C32AD"/>
<path fill-rule="evenodd" clip-rule="evenodd" d="M25.7456 47.2001H35.4002V61.1456H25.7456V47.2001Z" fill="#D8D8D8"/>
<path fill-rule="evenodd" clip-rule="evenodd" d="M19.3093 64.3637C19.3093 62.5863 20.7528 61.1455 22.5369 61.1455H38.609C40.3916 61.1455 41.8367 62.59 41.8367 64.3637V67.5819H19.3093V64.3637Z" fill="#B6B6B6"/>
<path fill-rule="evenodd" clip-rule="evenodd" d="M4.29102 19.3091H9.65466V34.3273H4.29102V19.3091Z" fill="#B6B6B6"/>
<path fill-rule="evenodd" clip-rule="evenodd" d="M0 19.8454C0 18.3643 1.20324 17.1636 2.68934 17.1636H9.65457V22.5272H2.68934C1.20406 22.5272 0 21.3369 0 19.8454Z" fill="#B6B6B6"/>
<path fill-rule="evenodd" clip-rule="evenodd" d="M49.3457 19.3091H54.7094V34.3273H49.3457V19.3091Z" fill="#B6B6B6"/>
<path fill-rule="evenodd" clip-rule="evenodd" d="M59 19.8454C59 18.3643 57.7968 17.1636 56.3107 17.1636H49.3454V22.5272H56.3107C57.7959 22.5272 59 21.3369 59 19.8454Z" fill="#B6B6B6"/>
<path fill-rule="evenodd" clip-rule="evenodd" d="M9.6543 8.57369C9.6543 3.83857 13.4961 0 18.2422 0H40.7574C45.5004 0 49.3453 3.83786 49.3453 8.57369V34.3274H9.6543V8.57369Z" fill="#540D6E"/>
</svg>
