<svg width="52" height="52" viewBox="0 0 52 52" fill="none" xmlns="http://www.w3.org/2000/svg">
<path fill-rule="evenodd" clip-rule="evenodd" d="M42.2949 21.0938V10.55H9.70508V21.0938C9.70508 22.5496 17.0006 23.7298 26 23.7298C34.9995 23.7298 42.2949 22.5496 42.2949 21.0938Z" fill="#540D6E"/>
<path fill-rule="evenodd" clip-rule="evenodd" d="M9.70508 21.0938H42.2949V37.7881H9.70508V21.0938Z" fill="#FFDE95"/>
<path fill-rule="evenodd" clip-rule="evenodd" d="M47.0876 8.7926H49.0047V21.9723H47.0876V8.7926Z" fill="#ED5144"/>
<path d="M48.046 25.4869C49.6341 25.4869 50.9216 24.3067 50.9216 22.8509C50.9216 21.3951 49.6341 20.215 48.046 20.215C46.4578 20.215 45.1704 21.3951 45.1704 22.8509C45.1704 24.3067 46.4578 25.4869 48.046 25.4869Z" fill="#D3D824"/>
<path fill-rule="evenodd" clip-rule="evenodd" d="M0 9.14141L26.2214 0.00610352L52 9.14141L26.2214 16.725L0 9.14141Z" fill="#540D6E"/>
<path fill-rule="evenodd" clip-rule="evenodd" d="M6.82935 25.4869L25.9999 29.5419V51.8464L6.82935 47.7914V25.4869Z" fill="#E77CFA"/>
<path d="M7.7882 36.0306H5.87115C4.81239 36.0306 3.9541 36.8174 3.9541 37.7879V42.1812C3.9541 43.1517 4.81239 43.9385 5.87115 43.9385H7.7882C8.84696 43.9385 9.70525 43.1517 9.70525 42.1812V37.7879C9.70525 36.8174 8.84696 36.0306 7.7882 36.0306Z" fill="#FFDD95"/>
<path fill-rule="evenodd" clip-rule="evenodd" d="M45.1704 25.4869L25.9999 29.5419V51.8464L45.1704 47.7914V25.4869Z" fill="#E552FF"/>
<path d="M46.129 36.0306H44.212C43.1532 36.0306 42.2949 36.8174 42.2949 37.7879V42.1812C42.2949 43.1517 43.1532 43.9385 44.212 43.9385H46.129C47.1878 43.9385 48.0461 43.1517 48.0461 42.1812V37.7879C48.0461 36.8174 47.1878 36.0306 46.129 36.0306Z" fill="#FFDD95"/>
</svg>
