<svg width="119" height="119" viewBox="0 0 119 119" fill="none" xmlns="http://www.w3.org/2000/svg">
<path d="M35.8927 12.5302C35.8927 6.6208 33.592 1.89307 29.17 1.89307C25.1799 1.89307 22.6521 6.69034 22.6521 12.5302" fill="#C1D8ED"/>
<path d="M29.1704 1.89478C33.5882 1.89478 35.8856 6.61436 35.8929 12.5151C35.8966 12.5578 35.8983 12.6007 35.898 12.6436V69.1487C35.893 70.5498 36.0976 71.9384 36.5 73.2347C36.9025 74.5311 37.495 75.7096 38.2434 76.7027C38.9917 77.6958 39.8813 78.4838 40.861 79.0215C41.8406 79.5593 42.891 79.8361 43.9519 79.8361C45.0128 79.8361 46.0633 79.5593 47.0429 79.0215C48.0226 78.4838 48.9121 77.6958 49.6605 76.7027C50.4089 75.7096 51.0013 74.5311 51.4038 73.2347C51.8063 71.9384 52.0109 70.5498 52.0059 69.1487H77.658V13.7128C77.658 7.38573 74.8923 2.171 70.1018 1.89478H29.1704Z" fill="#D7E8F4"/>
<path d="M43.9524 79.7851H77.658C78.7157 79.7851 79.763 79.51 80.7402 78.9754C81.7174 78.4409 82.6053 77.6574 83.3532 76.6697C84.1011 75.682 84.6944 74.5093 85.0991 73.2188C85.5039 71.9283 85.7122 70.5451 85.7122 69.1482H52.0064C52.0108 70.5467 51.8055 71.9325 51.4023 73.2256C50.9992 74.5188 50.4061 75.6937 49.6573 76.6826C48.9085 77.6715 48.0189 78.4548 47.0398 78.9873C46.0606 79.5198 45.0113 79.7909 43.9524 79.7851Z" fill="#C1D8ED"/>
<path d="M48.214 24.7544L65.504 24.7544C66.2837 24.7544 66.9158 23.9197 66.9158 22.89C66.9158 21.8603 66.2837 21.0256 65.504 21.0256L48.214 21.0256C47.4343 21.0256 46.8022 21.8603 46.8022 22.89C46.8022 23.9197 47.4343 24.7544 48.214 24.7544Z" fill="#FAFBFC"/>
<path d="M70.4432 33.8333H43.2743C42.9422 33.8333 42.6729 34.1889 42.6729 34.6276V34.6279C42.6729 35.0666 42.9422 35.4223 43.2743 35.4223H70.4432C70.7754 35.4223 71.0447 35.0666 71.0447 34.6279V34.6276C71.0447 34.1889 70.7754 33.8333 70.4432 33.8333Z" fill="#FAFBFC"/>
<path d="M70.4432 30.0181H43.2743C42.9422 30.0181 42.6729 30.3737 42.6729 30.8125V30.8127C42.6729 31.2514 42.9422 31.6071 43.2743 31.6071H70.4432C70.7754 31.6071 71.0447 31.2514 71.0447 30.8127V30.8125C71.0447 30.3737 70.7754 30.0181 70.4432 30.0181Z" fill="#FAFBFC"/>
<path d="M70.4432 37.6492H43.2743C42.9422 37.6492 42.6729 38.0048 42.6729 38.4436V38.4438C42.6729 38.8825 42.9422 39.2382 43.2743 39.2382H70.4432C70.7754 39.2382 71.0447 38.8825 71.0447 38.4438V38.4436C71.0447 38.0048 70.7754 37.6492 70.4432 37.6492Z" fill="#FAFBFC"/>
<path d="M70.4432 41.4651H43.2743C42.9422 41.4651 42.6729 41.8207 42.6729 42.2595V42.2597C42.6729 42.6984 42.9422 43.0541 43.2743 43.0541H70.4432C70.7754 43.0541 71.0447 42.6984 71.0447 42.2597V42.2595C71.0447 41.8207 70.7754 41.4651 70.4432 41.4651Z" fill="#FAFBFC"/>
<path d="M70.4432 45.281H43.2743C42.9422 45.281 42.6729 45.6367 42.6729 46.0754V46.0756C42.6729 46.5144 42.9422 46.87 43.2743 46.87H70.4432C70.7754 46.87 71.0447 46.5144 71.0447 46.0756V46.0754C71.0447 45.6367 70.7754 45.281 70.4432 45.281Z" fill="#FAFBFC"/>
<path d="M70.4432 52.9126H43.2743C42.9422 52.9126 42.6729 53.2683 42.6729 53.707V53.7072C42.6729 54.146 42.9422 54.5016 43.2743 54.5016H70.4432C70.7754 54.5016 71.0447 54.146 71.0447 53.7072V53.707C71.0447 53.2683 70.7754 52.9126 70.4432 52.9126Z" fill="#FAFBFC"/>
<path d="M70.4432 49.0969H43.2743C42.9422 49.0969 42.6729 49.4526 42.6729 49.8913V49.8916C42.6729 50.3303 42.9422 50.6859 43.2743 50.6859H70.4432C70.7754 50.6859 71.0447 50.3303 71.0447 49.8916V49.8913C71.0447 49.4526 70.7754 49.0969 70.4432 49.0969Z" fill="#FAFBFC"/>
<path d="M62.2733 56.7285H51.4452C51.113 56.7285 50.8438 57.0842 50.8438 57.5229V57.5231C50.8438 57.9619 51.113 58.3175 51.4452 58.3175H62.2733C62.6055 58.3175 62.8748 57.9619 62.8748 57.5231V57.5229C62.8748 57.0842 62.6055 56.7285 62.2733 56.7285Z" fill="#FAFBFC"/>
<path d="M19.2619 9.43695C19.3164 10.3167 18.6221 11.1358 18.5077 11.9649C18.3893 12.8229 18.8138 13.9124 18.5368 14.6821C18.2559 15.4629 17.3452 15.7161 16.9242 16.3704C16.5031 17.0248 16.4605 18.2525 15.9223 18.7442C15.3918 19.2293 14.5091 18.8514 13.8873 19.144C13.2861 19.4267 12.786 20.4627 12.1196 20.5347C11.4533 20.6066 10.8333 19.6895 10.2055 19.5384C9.55588 19.3821 8.73089 19.9427 8.14809 19.5768C7.55695 19.2058 7.36522 18.0031 6.86975 17.447C6.37429 16.891 5.44472 16.8346 5.07234 16.1239C4.70506 15.4233 4.99119 14.2575 4.76969 13.4362C4.55563 12.6423 3.77113 11.9817 3.71666 11.1017C3.66219 10.2217 4.35665 9.4029 4.47103 8.57374C4.5894 7.71581 4.16492 6.62625 4.44198 5.85656C4.72285 5.07584 5.63354 4.82263 6.05457 4.16827C6.4756 3.51391 6.51826 2.28624 7.05639 1.79445C7.5869 1.30937 8.46963 1.68727 9.09146 1.39474C9.6926 1.11203 10.1928 0.0759464 10.8591 0.00401244C11.5254 -0.0679215 12.1454 0.849236 12.7732 1.0003C13.4229 1.15663 14.2479 0.596029 14.8306 0.961933C15.4218 1.33287 15.6142 2.53561 16.109 3.09166C16.6037 3.64771 17.534 3.70405 17.9064 4.41476C18.2737 5.1154 17.9876 6.28121 18.2091 7.10245C18.4231 7.89637 19.208 8.55696 19.2619 9.43695Z" fill="#0F1011"/>
<path d="M9.07642 18.9996C9.4359 18.1963 9.8208 16.6402 9.64287 13.7508L12.5441 13.0435C12.5441 13.0435 12.2173 17.5513 13.6716 18.9996H9.07642Z" fill="#E98862"/>
<path opacity="0.15" d="M13.0879 18.0624L10.6799 15.6251L12.5725 15.6011C12.6267 16.4568 12.8015 17.2915 13.0879 18.0624Z" fill="black"/>
<path d="M7.99804 11.7915C8.19775 13.3237 8.82993 14.7748 9.85264 15.2709C10.9675 15.8567 12.1739 16.0735 13.3667 15.9022C16.5423 15.562 15.9206 6.02571 14.4143 4.17245C12.9079 2.3192 8.4828 3.4862 7.94249 6.58368C7.66307 8.18469 7.80723 10.3331 7.99804 11.7915Z" fill="#E98862"/>
<path d="M12.5414 10.6165C12.6867 10.6165 12.8045 10.461 12.8045 10.2691C12.8045 10.0772 12.6867 9.92163 12.5414 9.92163C12.3961 9.92163 12.2783 10.0772 12.2783 10.2691C12.2783 10.461 12.3961 10.6165 12.5414 10.6165Z" fill="#0F1011"/>
<path d="M14.6178 10.3941C14.7631 10.3941 14.8809 10.2385 14.8809 10.0467C14.8809 9.85477 14.7631 9.69922 14.6178 9.69922C14.4725 9.69922 14.3547 9.85477 14.3547 10.0467C14.3547 10.2385 14.4725 10.3941 14.6178 10.3941Z" fill="#0F1011"/>
<path d="M15.0732 9.30731H15.0716L14.3747 9.29485C14.3428 9.29297 14.3126 9.27482 14.2906 9.2442C14.2686 9.21358 14.2564 9.17288 14.2566 9.13064C14.2568 9.0884 14.2694 9.04791 14.2917 9.01768C14.3141 8.98745 14.3444 8.96982 14.3764 8.96851H14.378L15.0748 8.98073C15.1076 8.98102 15.139 8.9985 15.162 9.02932C15.1851 9.06015 15.1979 9.1018 15.1977 9.1451C15.1974 9.18841 15.1842 9.22983 15.1609 9.26025C15.1375 9.29067 15.106 9.3076 15.0732 9.30731Z" fill="#0F1011"/>
<path d="M11.974 9.63916C11.9438 9.639 11.9146 9.62423 11.8921 9.59764C11.8696 9.57105 11.8552 9.53448 11.8517 9.49483C11.8482 9.45519 11.8558 9.41523 11.873 9.38249C11.8903 9.34975 11.9161 9.3265 11.9455 9.31714L12.6327 9.09966C12.6486 9.09396 12.6653 9.09254 12.6817 9.0955C12.6981 9.09846 12.7138 9.10573 12.7281 9.11688C12.7423 9.12803 12.7547 9.14284 12.7645 9.16042C12.7743 9.17801 12.7813 9.19802 12.7852 9.21926C12.789 9.24051 12.7896 9.26256 12.7869 9.2841C12.7842 9.30565 12.7782 9.32626 12.7694 9.34471C12.7605 9.36316 12.749 9.37908 12.7354 9.39152C12.7218 9.40395 12.7064 9.41266 12.6902 9.41713L12.003 9.63461C11.9935 9.63766 11.9838 9.63919 11.974 9.63916Z" fill="#0F1011"/>
<path d="M12.6619 13.0058C12.6619 13.0058 13.6328 13.1422 14.314 12.8289C14.314 12.8289 14.308 13.6736 13.5397 13.7558C12.7713 13.8381 12.6619 13.0058 12.6619 13.0058Z" fill="#F8FCFF"/>
<path d="M10.1382 7.82523C10.3287 11.4157 10.0295 15.0221 9.25471 18.4729C9.25471 18.4729 7.04099 13.4315 6.69857 9.23417C6.37758 5.29939 8.5746 2.9788 10.0581 2.54192C15.6956 0.884802 16.1014 6.32349 16.1014 6.32349C15.0743 9.14402 9.52795 9.13155 9.52795 9.13155" fill="#0F1011"/>
<path d="M11.213 11.7652C11.2334 12.152 11.1375 12.5338 10.9461 12.8278C10.7547 13.1218 10.4832 13.3043 10.1906 13.3356C9.89794 13.367 9.60776 13.2446 9.38298 12.9952C9.15819 12.7458 9.01694 12.3894 8.98987 12.0033C8.97549 11.8099 8.99073 11.6146 9.03468 11.4291C9.07863 11.2436 9.1504 11.0717 9.24571 10.9236C9.34102 10.7755 9.45792 10.6543 9.58945 10.5671C9.72098 10.4799 9.86444 10.4286 10.0113 10.4162C10.8062 10.3826 11.1633 10.9545 11.213 11.7652Z" fill="#E98862"/>
<g opacity="0.15">
<path d="M13.7083 12.1976C13.6866 12.1976 13.6656 12.1873 13.6491 12.1685C13.6327 12.1498 13.6219 12.1238 13.6187 12.0955C13.6155 12.0671 13.6201 12.0381 13.6317 12.0138C13.6432 11.9895 13.661 11.9716 13.6818 11.9631L14.2169 11.7473L13.8436 10.6463C13.8337 10.6172 13.833 10.5842 13.8416 10.5545C13.8502 10.5248 13.8674 10.5008 13.8893 10.4878C13.9113 10.4748 13.9363 10.4738 13.9588 10.4852C13.9813 10.4965 13.9995 10.5192 14.0094 10.5482L14.4249 11.7735C14.4302 11.789 14.4329 11.8058 14.4328 11.8228C14.4328 11.8398 14.43 11.8565 14.4247 11.872C14.4194 11.8874 14.4116 11.9012 14.402 11.9124C14.3923 11.9237 14.3809 11.932 14.3687 11.937L13.7352 12.1931C13.7265 12.1964 13.7174 12.1979 13.7083 12.1976Z" fill="black"/>
</g>
<path d="M18.7578 52.3621C22.3798 73.4358 25.6597 94.6511 28.2479 115.992L24.6095 116.98C20.6097 96.0233 17.2823 74.8206 14.312 53.5698L18.7578 52.3621Z" fill="#E98862"/>
<path d="M11.2709 53.6675C11.6035 74.6031 11.5795 95.586 10.8585 116.508H7.14408C6.42348 95.5863 6.3997 74.6029 6.73195 53.6675H11.2709Z" fill="#E98862"/>
<path d="M15.6645 118.442C15.767 118.441 15.8683 118.413 15.9621 118.358C16.0559 118.303 16.1402 118.223 16.2096 118.124C16.2791 118.024 16.3322 117.907 16.3657 117.779C16.3993 117.651 16.4125 117.515 16.4045 117.38C16.3936 117.193 16.3423 117.014 16.2568 116.863C16.1712 116.713 16.055 116.599 15.9217 116.533L11.4841 114.57C11.3982 114.533 11.307 114.52 11.217 114.533C11.127 114.546 11.0402 114.585 10.9625 114.647C10.3525 115.206 9.62276 115.492 8.88062 115.462C8.30252 115.408 7.74759 115.14 7.27911 114.689C7.23795 114.645 7.18803 114.617 7.13517 114.608C7.08231 114.599 7.0287 114.611 6.9806 114.641C6.93249 114.671 6.89188 114.719 6.8635 114.778C6.83511 114.838 6.82014 114.907 6.82031 114.977V117.843C6.82029 117.928 6.83292 118.011 6.85747 118.089C6.88202 118.168 6.91801 118.238 6.96337 118.298C7.00874 118.358 7.06258 118.405 7.12181 118.437C7.18105 118.469 7.2445 118.486 7.30852 118.485L15.6645 118.442Z" fill="#C1D8ED"/>
<path d="M32.6816 118.442C32.7841 118.441 32.8854 118.413 32.9793 118.358C33.0731 118.303 33.1573 118.224 33.2268 118.124C33.2962 118.024 33.3494 117.907 33.3829 117.779C33.4164 117.651 33.4296 117.515 33.4216 117.38C33.4107 117.193 33.3594 117.014 33.2739 116.864C33.1884 116.714 33.0722 116.599 32.939 116.533L28.5012 114.57C28.4153 114.533 28.3242 114.52 28.2342 114.533C28.1442 114.546 28.0574 114.585 27.9798 114.647C27.3697 115.206 26.6399 115.492 25.8977 115.462C25.3197 115.408 24.7648 115.14 24.2964 114.689C24.2552 114.645 24.2053 114.617 24.1524 114.608C24.0995 114.6 24.0459 114.611 23.9978 114.641C23.9497 114.671 23.9091 114.719 23.8807 114.778C23.8523 114.838 23.8373 114.907 23.8374 114.977V117.843C23.8374 117.928 23.85 118.011 23.8746 118.089C23.8992 118.167 23.9352 118.238 23.9805 118.298C24.0259 118.358 24.0797 118.405 24.1389 118.437C24.1982 118.469 24.2616 118.486 24.3256 118.485L32.6816 118.442Z" fill="#C1D8ED"/>
<path d="M4.42998 44.6289C4.42998 44.6289 2.3675 56.8267 2.3675 67.0852C2.3675 77.3437 0 93.2318 0 93.2318C0 93.2318 6.7116 91.7979 11.2645 93.2318C19.1094 95.702 26.1441 90.3228 26.1441 90.3228L18.2428 45.7549L4.42998 44.6289Z" fill="#262626"/>
<path d="M40.1325 33.2075C40.1325 33.2075 41.6229 32.251 42.7422 32.6181C43.8615 32.9852 43.3372 33.6213 42.5225 33.8477C41.7079 34.074 39.9185 34.4421 39.9185 34.4421" fill="#E98862"/>
<path d="M41.0034 33.1616C41.0034 33.1616 43.7664 32.7779 43.795 33.656C43.795 33.656 43.9161 36.3643 43.5409 36.7832C42.9742 37.4153 40.1677 36.9203 40.1677 36.9203L41.0034 33.1616Z" fill="#E98862"/>
<path d="M33.6994 37.6378H22.9006C22.5809 37.6378 22.2663 37.5316 21.9858 37.3289C21.7053 37.1263 21.4679 36.8338 21.2954 36.4782L14.4722 22.4108L17.6834 19.6948L23.9442 32.6024H33.7001L33.6994 37.6378Z" fill="#367CFF"/>
<path d="M19.1176 46.2194C18.3568 48.5285 3.40928 49.4876 3.20957 45.4257C3.08248 42.8407 4.80727 40.5846 4.80727 35.5468C4.80727 30.509 1.29814 24.0755 4.15729 20.299C4.98701 19.2034 6.41949 18.4961 8.16606 18.4937C8.29678 19.8386 14.4806 19.8436 14.5278 18.5248C14.7638 18.5296 14.9472 18.5342 15.0616 18.5416C21.0856 18.8845 18.4385 27.9386 18.3804 34.5901C18.31 42.3733 19.9022 43.8408 19.1176 46.2194Z" fill="#367CFF"/>
<path d="M14.5287 18.5248C14.4815 19.8436 13.9387 21.7832 12.2629 21.9297C10.0298 22.1239 8.29771 19.8386 8.16699 18.4937H8.17244C10.3711 18.4937 13.2469 18.4984 14.5287 18.5248Z" fill="#E98862"/>
<path d="M32.1136 49.5072C38.1299 49.5072 43.007 43.066 43.007 35.1204C43.007 27.1748 38.1299 20.7336 32.1136 20.7336C26.0974 20.7336 21.2202 27.1748 21.2202 35.1204C21.2202 43.066 26.0974 49.5072 32.1136 49.5072Z" fill="#0CBC8B"/>
<g opacity="0.29">
<path d="M32.1131 44.4467C36.0132 44.4467 39.1749 40.271 39.1749 35.1202C39.1749 29.9693 36.0132 25.7937 32.1131 25.7937C28.213 25.7937 25.0513 29.9693 25.0513 35.1202C25.0513 40.271 28.213 44.4467 32.1131 44.4467Z" fill="white"/>
</g>
<path d="M29.8018 38.4519L30.4604 37.1026C30.9826 37.6301 31.4392 37.9006 31.9251 37.9006C32.5071 37.9006 32.7633 37.5817 32.7633 36.9643C32.7633 35.5685 30.0519 35.5937 30.0519 33.1458C30.0519 31.5721 30.8773 30.5698 32.1789 30.5698C32.5485 30.5628 32.9149 30.6621 33.2526 30.8608C33.5902 31.0596 33.8911 31.353 34.1342 31.7208L33.3786 32.8638C33.0053 32.4154 32.6887 32.1792 32.2599 32.1792C31.7657 32.1792 31.4973 32.443 31.4973 33.0518C31.4973 34.3466 34.2087 34.2324 34.2087 36.8254C34.2087 38.384 33.428 39.511 31.9247 39.511C31.1464 39.4875 30.3974 39.1139 29.8018 38.4519ZM31.6082 29.2402H32.6103V31.194H31.6081L31.6082 29.2402ZM31.6082 38.6955H32.6103V40.8391H31.6081L31.6082 38.6955Z" fill="white"/>
<path d="M43.54 36.7852C43.4891 36.8387 43.4322 36.8814 43.3713 36.9118C43.0456 37.0005 42.2248 36.741 42.0932 36.4404C41.8789 35.951 42.0118 34.1828 42.2008 33.5412C42.3782 32.9417 43.2617 33.1928 43.3777 33.2213C43.3813 33.223 43.385 33.2243 43.3887 33.2251C43.6297 33.3124 43.7882 33.4486 43.7949 33.6579C43.7949 33.6579 43.9165 36.3651 43.54 36.7852Z" fill="#E98862"/>
<path d="M19.4873 38.4196C19.4873 38.4196 19.9247 35.2655 21.6142 35.8144C22.6802 36.1609 25.7781 35.5427 25.8251 37.3504C25.8659 38.9191 22.9565 39.3372 21.9942 39.2065C21.1306 39.0893 19.4873 38.4196 19.4873 38.4196Z" fill="#E98862"/>
<path d="M20.9954 35.7799C20.9954 35.7799 23.5086 35.2903 24.07 35.6056C24.5671 35.8845 23.3438 36.7565 23.3438 36.7565L20.9954 35.7799Z" fill="#E98862"/>
<path d="M21.7991 40.1715L10.5643 39.7188C10.2137 39.7048 9.87216 39.5678 9.57477 39.3221C9.27737 39.0763 9.03479 38.7305 8.87187 38.3202L3.32495 24.3518L6.83081 21.9236L11.8407 34.5396L21.9198 34.9458L21.7991 40.1715Z" fill="#367CFF"/>
<path d="M85.5027 116.406L89.2889 115.811C89.1183 113.919 88.9258 111.645 88.9125 111.272C88.9125 111.296 88.9125 111.316 88.9125 111.331H85.0999C85.1006 111.482 85.1006 111.942 85.5027 116.406Z" fill="#E98862"/>
<path d="M100.694 117.008L104.507 116.991C104.507 116.991 104.494 111.792 104.494 111.331H100.681C100.681 111.793 100.694 117.008 100.694 117.008Z" fill="#E98862"/>
<path d="M84.0952 114.665C84.4106 104.113 84.4298 93.0292 84.5286 82.4489C85.8392 71.0368 86.5292 58.5205 88.1477 47.189L88.1962 47.2077L88.3382 45.9299L102.15 44.803L102.636 56.72C103.331 72.6846 104.676 98.3494 105.489 114.528L98.7951 115.277C97.5996 99.3653 95.8318 74.017 94.7515 58.3345C93.5659 66.3254 92.2665 75.3243 91.2139 83.4102C90.9835 93.7394 90.7908 104.503 90.8117 114.816L84.0952 114.665Z" fill="#262626"/>
<path d="M96.0582 118.955C95.9557 118.954 95.8543 118.926 95.7605 118.871C95.6667 118.817 95.5825 118.737 95.513 118.637C95.4436 118.538 95.3904 118.42 95.3569 118.292C95.3234 118.164 95.3102 118.029 95.3182 117.894C95.3292 117.706 95.3805 117.527 95.4661 117.377C95.5516 117.227 95.6678 117.113 95.8009 117.047L100.239 115.084C100.325 115.047 100.416 115.034 100.506 115.047C100.596 115.061 100.682 115.099 100.76 115.161C101.37 115.72 102.1 116.006 102.842 115.976C103.42 115.922 103.975 115.654 104.444 115.204C104.485 115.159 104.535 115.131 104.588 115.122C104.64 115.114 104.694 115.125 104.742 115.155C104.79 115.186 104.831 115.233 104.859 115.293C104.888 115.352 104.903 115.421 104.902 115.491V118.358C104.902 118.443 104.89 118.526 104.865 118.604C104.841 118.682 104.805 118.753 104.759 118.813C104.714 118.873 104.66 118.92 104.601 118.952C104.542 118.984 104.478 119 104.414 119L96.0582 118.955Z" fill="#C1D8ED"/>
<path d="M80.8567 118.955C80.7542 118.954 80.6528 118.926 80.559 118.871C80.4652 118.817 80.3809 118.737 80.3115 118.637C80.242 118.538 80.1888 118.42 80.1553 118.292C80.1217 118.164 80.1085 118.029 80.1165 117.894C80.1276 117.706 80.1789 117.527 80.2645 117.377C80.35 117.228 80.4661 117.113 80.5993 117.047L85.0371 115.084C85.123 115.047 85.2141 115.034 85.3041 115.047C85.3941 115.061 85.4809 115.099 85.5585 115.161C86.1686 115.72 86.8984 116.006 87.6406 115.976C88.2186 115.922 88.7735 115.654 89.2419 115.204C89.2831 115.159 89.333 115.131 89.3858 115.122C89.4387 115.114 89.4923 115.125 89.5404 115.155C89.5885 115.186 89.6291 115.233 89.6575 115.293C89.6859 115.352 89.7009 115.421 89.7007 115.491V118.358C89.7007 118.443 89.6881 118.526 89.6635 118.604C89.639 118.682 89.603 118.753 89.5577 118.813C89.5123 118.873 89.4585 118.92 89.3993 118.952C89.3401 118.984 89.2767 119 89.2127 119L80.8567 118.955Z" fill="#C1D8ED"/>
<path d="M96.845 62.2069V77.7821C96.845 78.4095 97.0337 79.0112 97.3696 79.4549C97.7055 79.8986 98.1611 80.1479 98.6362 80.148H117.209C117.684 80.1479 118.139 79.8986 118.475 79.4549C118.811 79.0112 119 78.4095 119 77.7821V62.2069C119 61.5795 118.811 60.9778 118.475 60.5342C118.139 60.0905 117.684 59.8413 117.209 59.8413H112.3V58.1976C112.299 57.6113 112.123 57.0492 111.809 56.6346C111.495 56.22 111.069 55.9868 110.625 55.9861H105.219C104.775 55.9868 104.35 56.22 104.036 56.6346C103.722 57.0492 103.545 57.6113 103.545 58.1976V59.8413H98.6362C98.1611 59.8413 97.7055 60.0905 97.3696 60.5342C97.0337 60.9778 96.845 61.5795 96.845 62.2069ZM111.21 59.8413H104.634V58.1976C104.634 57.9927 104.696 57.7963 104.806 57.6514C104.915 57.5065 105.064 57.425 105.219 57.4248H110.625C110.78 57.425 110.929 57.5065 111.039 57.6514C111.149 57.7963 111.21 57.9927 111.21 58.1976V59.8413Z" fill="#0CBC8B"/>
<path d="M71.787 39.6877C71.2604 39.8506 69.4338 40.0282 69.4129 40.6579C69.4002 41.0355 70.7869 41.0478 70.7869 41.0478" fill="#E98862"/>
<path d="M70.7577 44.3202C72.9352 43.6466 74.5556 42.2839 74.3769 41.2765C74.1983 40.2691 72.2882 39.9985 70.1107 40.6722C67.9332 41.3458 66.3128 42.7085 66.4915 43.7159C66.6701 44.7233 68.5802 44.9938 70.7577 44.3202Z" fill="#E98862"/>
<path d="M106.206 52.9656C106.206 53.6801 105.921 56.069 106.38 56.2398C106.656 56.3419 106.981 54.5613 106.981 54.5613" fill="#E98862"/>
<path d="M108.375 52.5904C108.375 52.5904 109.929 54.8017 108.873 57.4249C108.726 57.7886 107.298 58.0022 107.298 57.5565C107.298 55.6862 107.188 54.2192 106.256 54.6676V51.655" fill="#E98862"/>
<path d="M81.2644 34.3738L88.0252 21.0308L88.0651 21.0661C88.6461 19.8957 89.6438 19.1478 91.2921 19.0548C91.4063 19.0476 91.5897 19.0428 91.8259 19.038C91.8729 20.3568 98.0568 20.352 98.1877 19.0068C99.934 19.0092 101.367 19.7166 102.196 20.8124C102.582 21.3169 102.878 21.9285 103.063 22.6028L103.085 22.5899L107.473 35.6396C107.55 35.8663 107.601 36.1062 107.626 36.352L109.331 53.0956L105.408 53.7924L103.741 37.4198L102.012 32.2775C101.735 33.5067 101.578 34.778 101.547 36.06C101.547 41.0977 103.272 43.3541 103.145 45.9389C102.945 50.0008 87.9974 49.0417 87.2369 46.7326C86.4524 44.354 88.0446 42.8865 87.9738 35.1033C87.9453 33.7373 87.8633 32.3743 87.728 31.0196L84.1925 37.9972C83.9571 38.4619 83.6151 38.8149 83.2167 39.0042L72.1495 44.2554L70.8113 39.3346L81.2644 34.3738Z" fill="#367CFF"/>
<path d="M91.8274 19.039C91.8744 20.3578 92.4175 22.2976 94.0932 22.4439C96.3264 22.6381 98.0582 20.353 98.1891 19.0078H98.1835C95.985 19.0074 93.1092 19.0122 91.8274 19.039Z" fill="#E98862"/>
<path d="M96.6483 15.8951C96.6415 15.3542 96.6559 14.8131 96.6917 14.2742C96.2044 14.1543 94.3113 13.692 93.7906 13.5645C93.8912 14.0347 93.8 17.5904 93.2459 18.5782C93.1079 18.9327 92.9149 19.2448 92.6794 19.4942H97.2414C96.9585 18.8516 96.6681 17.7438 96.6483 15.8951Z" fill="#E98862"/>
<path opacity="0.15" d="M93.2439 18.5817L95.6535 16.147L93.761 16.1211C93.7062 16.9767 93.5308 17.8112 93.2439 18.5817Z" fill="black"/>
<path d="M98.338 12.3166C97.9685 15.919 95.3372 16.6899 92.9666 16.4209C89.7912 16.0771 90.4194 6.54197 91.9269 4.68943C93.4343 2.83689 97.8596 4.01013 98.3972 7.10809C98.6755 8.7103 98.5292 10.8585 98.338 12.3166Z" fill="#E98862"/>
<path d="M89.7056 3.80407C89.7036 2.53324 90.9064 0.46418 94.0862 3.32691C95.8303 3.36887 96.8417 3.4914 98.1248 4.75576C100.945 7.29862 98.4941 15.2763 96.7978 15.8401C96.6242 15.9765 96.5821 15.8655 96.5218 15.6106C96.3324 14.6687 96.1969 13.7094 96.1164 12.7407C96.0127 11.7336 95.3275 11.0934 95.4103 9.88729C95.4394 9.46575 95.9534 7.92109 94.3624 7.90359C90.8896 8.20979 89.3166 7.501 89.7056 3.80407Z" fill="#0F1011"/>
<path d="M95.1636 11.6394C95.0244 13.5415 97.2897 13.7871 97.3866 11.8791C97.5535 9.91534 95.1288 9.77603 95.1636 11.6394Z" fill="#E98862"/>
<path d="M95.6535 6.96729L96.4749 7.36436C96.2243 8.27361 96.6664 16.675 94.3525 16.792C91.2468 17.2999 90.6896 16.0612 90.8058 12.8237C95.5629 13.5363 95.2067 12.6366 95.6535 6.96729Z" fill="#0F1011"/>
<path d="M93.5333 10.7611C93.5298 10.8513 93.5531 10.9397 93.5981 11.0077C93.6432 11.0756 93.7065 11.1177 93.7746 11.1251C93.8427 11.1324 93.9104 11.1045 93.9632 11.0471C94.016 10.9897 94.0498 10.9075 94.0575 10.8177C94.0609 10.7275 94.0377 10.6391 93.9926 10.5712C93.9476 10.5033 93.8843 10.4611 93.8161 10.4538C93.748 10.4464 93.6804 10.4744 93.6276 10.5318C93.5748 10.5891 93.541 10.6714 93.5333 10.7611Z" fill="#0F1011"/>
<path d="M91.4574 10.536C91.4527 10.6271 91.4754 10.717 91.5205 10.7862C91.5656 10.8554 91.6295 10.8983 91.6983 10.9058C91.7672 10.9133 91.8356 10.8846 91.8886 10.8261C91.9416 10.7675 91.9751 10.6837 91.9817 10.5929C91.9864 10.5018 91.9637 10.4119 91.9187 10.3427C91.8736 10.2735 91.8097 10.2306 91.7408 10.2231C91.6719 10.2156 91.6035 10.2443 91.5505 10.3028C91.4975 10.3614 91.464 10.4452 91.4574 10.536Z" fill="#0F1011"/>
<path d="M91.2641 9.82418C91.2641 9.82418 91.9616 9.81243 91.9623 9.81267C91.9943 9.81061 92.0244 9.79225 92.0464 9.76145C92.0683 9.73065 92.0804 9.68981 92.08 9.64753C92.0796 9.60525 92.0667 9.56483 92.0442 9.53476C92.0217 9.50469 91.9913 9.48733 91.9593 9.48633L91.2624 9.49784C91.2305 9.49971 91.2003 9.51786 91.1783 9.54848C91.1563 9.5791 91.1441 9.61981 91.1443 9.66205C91.1445 9.70429 91.1571 9.74477 91.1794 9.77501C91.2018 9.80524 91.2321 9.82286 91.2641 9.82418Z" fill="#0F1011"/>
<path d="M94.3631 10.1596C94.8634 9.83882 93.8147 9.68368 93.7047 9.61942C93.6731 9.61039 93.6402 9.61805 93.6128 9.64075C93.5854 9.66345 93.5659 9.69939 93.5584 9.74088C93.5508 9.78237 93.5559 9.82611 93.5724 9.86274C93.589 9.89937 93.6158 9.92599 93.647 9.93689C93.6813 9.94264 94.3275 10.1628 94.3631 10.1596Z" fill="#0F1011"/>
<g opacity="0.15">
<path d="M92.627 12.7165C93.0003 12.4944 92.1912 12.3254 92.1186 12.265L92.4928 11.1641C92.4238 10.4165 91.9563 12.2566 91.9118 12.2911C91.8263 12.534 92.5456 12.6431 92.627 12.7165Z" fill="black"/>
</g>
<path d="M93.6735 13.5258C93.6735 13.5258 92.7024 13.661 92.0214 13.3469C91.9932 14.4494 93.5677 14.6158 93.6735 13.5258Z" fill="#F8FCFF"/>
<path d="M77.6577 20.7396C80.8762 20.7396 83.4853 17.2938 83.4853 13.0431C83.4853 8.7925 80.8762 5.34668 77.6577 5.34668C74.4392 5.34668 71.8301 8.7925 71.8301 13.0431C71.8301 17.2938 74.4392 20.7396 77.6577 20.7396Z" fill="#8DDBE0"/>
<path d="M76.7987 16.1989C76.6986 16.1989 76.6022 16.1484 76.5293 16.0577L74.6246 13.6839C74.5871 13.6371 74.5569 13.5811 74.5358 13.519C74.5148 13.4569 74.5031 13.3899 74.5016 13.3218C74.5001 13.2538 74.5088 13.186 74.5272 13.1224C74.5455 13.0587 74.5731 13.0005 74.6085 12.951C74.6439 12.9015 74.6863 12.8616 74.7334 12.8338C74.7804 12.8059 74.8311 12.7906 74.8827 12.7886C74.9342 12.7866 74.9855 12.7981 75.0337 12.8223C75.0819 12.8465 75.126 12.883 75.1635 12.9298L76.7771 14.9408L80.1327 10.0572C80.2034 9.95946 80.3002 9.90208 80.4025 9.8973C80.5049 9.89252 80.6045 9.94071 80.6803 10.0316C80.7561 10.1225 80.802 10.2489 80.8082 10.3838C80.8144 10.5188 80.7805 10.6516 80.7136 10.754L77.089 16.0292C77.0539 16.0802 77.0115 16.1215 76.9642 16.1506C76.9168 16.1798 76.8656 16.1962 76.8134 16.1989H76.7987Z" fill="white"/>
</svg>
