<svg width="119" height="119" viewBox="0 0 119 119" fill="none" xmlns="http://www.w3.org/2000/svg">
<path d="M86.5913 82.9237L93.2106 67L103.288 62.1416L119 69.5967L109.033 93.5711L86.5913 82.9237Z" fill="#F4F4F4"/>
<path opacity="0.05" d="M110.927 80.2065L94.8622 72.5359C94.7057 72.4612 94.5222 72.5362 94.4522 72.7034L94.4522 72.7035C94.3822 72.8707 94.4524 73.0668 94.6089 73.1416L110.674 80.8121C110.83 80.8869 111.014 80.8119 111.084 80.6447L111.084 80.6446C111.154 80.4774 111.084 80.2812 110.927 80.2065Z" fill="#292A2E"/>
<path opacity="0.05" d="M109.578 83.6494L93.5129 75.9788C93.3564 75.9041 93.1728 75.979 93.1028 76.1462L93.1028 76.1464C93.0328 76.3136 93.103 76.5097 93.2595 76.5844L109.324 84.255C109.481 84.3297 109.664 84.2548 109.734 84.0875L109.734 84.0874C109.804 83.9202 109.734 83.7241 109.578 83.6494Z" fill="#292A2E"/>
<path opacity="0.05" d="M101.497 83.9393L92.134 79.5C92.0588 79.4642 91.9734 79.4616 91.8965 79.493C91.8196 79.5244 91.7574 79.5872 91.7238 79.6674C91.7072 79.7072 91.698 79.7501 91.6969 79.7936C91.6958 79.8372 91.7027 79.8805 91.7173 79.9212C91.7318 79.9619 91.7537 79.9991 91.7818 80.0308C91.8098 80.0624 91.8434 80.0878 91.8806 80.1056L101.244 84.545C101.319 84.5809 101.405 84.5834 101.482 84.5519C101.558 84.5205 101.621 84.4578 101.654 84.3775C101.688 84.2972 101.69 84.2059 101.661 84.1237C101.631 84.0416 101.573 83.9753 101.497 83.9393Z" fill="#292A2E"/>
<path opacity="0.4" d="M103.287 62.1416L100.032 70.2281L93.2102 67L103.287 62.1416Z" fill="white"/>
<path d="M6.52362 43.8581L2.84985 26.8826L8.16707 16.5267L24.9171 12.3896L30.4472 37.9486L6.52362 43.8581Z" fill="#F4F4F4"/>
<path opacity="0.05" d="M24.439 26.0524L7.28573 30.2442C7.11862 30.285 7.01414 30.4628 7.05236 30.6414L7.05239 30.6415C7.09062 30.82 7.25707 30.9317 7.42418 30.8908L24.5774 26.699C24.7445 26.6582 24.849 26.4804 24.8108 26.3018L24.8108 26.3017C24.7726 26.1232 24.6061 26.0115 24.439 26.0524Z" fill="#292A2E"/>
<path opacity="0.05" d="M25.2976 29.671L8.14437 33.8628C7.97726 33.9037 7.87278 34.0815 7.91101 34.26L7.91104 34.2602C7.94926 34.4387 8.11571 34.5503 8.28282 34.5095L25.4361 30.3177C25.6032 30.2768 25.7077 30.099 25.6694 29.9205L25.6694 29.9204C25.6312 29.7418 25.4647 29.6302 25.2976 29.671Z" fill="#292A2E"/>
<path opacity="0.05" d="M19.0047 35.094L9.02465 37.5627C8.94436 37.5822 8.87464 37.6351 8.83082 37.7096C8.787 37.7841 8.77267 37.8741 8.79098 37.9599C8.80003 38.0024 8.81684 38.0425 8.84044 38.0781C8.86403 38.1136 8.89396 38.1439 8.9285 38.1671C8.96304 38.1902 9.00153 38.2059 9.04175 38.2132C9.08197 38.2205 9.12313 38.2192 9.1629 38.2095L19.1429 35.7409C19.2232 35.7213 19.293 35.6684 19.3368 35.5939C19.3806 35.5194 19.3949 35.4293 19.3766 35.3435C19.3582 35.2578 19.3087 35.1833 19.239 35.1365C19.1692 35.0897 19.085 35.0744 19.0047 35.094Z" fill="#292A2E"/>
<path opacity="0.4" d="M8.16732 16.5264L10.1175 25.0792L2.8501 26.8823L8.16732 16.5264Z" fill="white"/>
<path d="M86.2779 95.8966H19.1618C18.2559 95.8966 17.3871 95.5121 16.7466 94.8278C16.106 94.1434 15.7461 93.2153 15.7461 92.2475L18.0828 11.304H91.9007L89.6939 92.2475C89.6939 92.7267 89.6055 93.2013 89.4338 93.644C89.2622 94.0868 89.0105 94.4891 88.6933 94.8279C88.3761 95.1668 87.9996 95.4356 87.5851 95.6189C87.1707 95.8023 86.7265 95.8967 86.2779 95.8966Z" fill="#292A2E"/>
<path opacity="0.9" d="M86.2779 95.8966H19.1618C18.2559 95.8966 17.3871 95.5121 16.7466 94.8278C16.106 94.1434 15.7461 93.2153 15.7461 92.2475L18.0828 11.304H91.9007L89.6939 92.2475C89.6939 92.7267 89.6055 93.2013 89.4338 93.644C89.2622 94.0868 89.0105 94.4891 88.6933 94.8279C88.3761 95.1668 87.9996 95.4356 87.5851 95.6189C87.1707 95.8023 86.7265 95.8967 86.2779 95.8966Z" fill="white"/>
<path d="M86.2772 96.035H19.1611C18.2211 96.0339 17.3199 95.6344 16.6552 94.9243C15.9904 94.2142 15.6165 93.2514 15.6155 92.2471L17.9521 11.165H92.0297L89.8229 92.2471C89.8218 93.2514 89.4479 94.2142 88.7832 94.9243C88.1185 95.6344 87.2173 96.0339 86.2772 96.035ZM18.2116 11.4424L15.875 92.2471C15.876 93.1779 16.2225 94.0702 16.8386 94.7283C17.4546 95.3864 18.2899 95.7566 19.1611 95.7576H86.2772C87.1484 95.7565 87.9836 95.3863 88.5996 94.7282C89.2156 94.0701 89.5621 93.1778 89.5631 92.2471L91.77 11.4424H18.2116Z" fill="#292A2E"/>
<path d="M88.744 3.27808H21.6278C20.6878 3.27918 19.7866 3.67862 19.1218 4.38877C18.4571 5.09892 18.0832 6.06178 18.0822 7.06608L17.9524 11.4427H92.03L92.2896 7.06608C92.2886 6.06178 91.9147 5.09892 91.25 4.38877C90.5853 3.67862 89.684 3.27918 88.744 3.27808Z" fill="#0C0C0C"/>
<path d="M90.041 3.27808H22.146C21.2059 3.27918 20.3047 3.67862 19.64 4.38877C18.9753 5.09892 18.6014 6.06178 18.6003 7.06608V11.4427H93.5866V7.06608C93.5856 6.06178 93.2117 5.09892 92.547 4.38877C91.8823 3.67862 90.981 3.27918 90.041 3.27808Z" fill="#292A2E"/>
<path d="M18.7295 11.3032H93.4562V93.6343C93.4562 94.6021 93.0963 95.5303 92.4557 96.2147C91.8151 96.899 90.9464 97.2835 90.0405 97.2835H22.1454C21.2395 97.2835 20.3708 96.899 19.7302 96.2147C19.0896 95.5303 18.7298 94.6021 18.7298 93.6343V11.3032H18.7295Z" fill="white"/>
<path d="M90.041 97.4218H22.146C21.206 97.4207 20.3047 97.0213 19.64 96.3112C18.9753 95.6011 18.6014 94.6383 18.6003 93.634V11.165H93.5866V93.634C93.5856 94.6383 93.2117 95.6011 92.547 96.3112C91.8822 97.0213 90.981 97.4207 90.041 97.4218ZM18.8598 11.4424V93.634C18.8608 94.5647 19.2074 95.4571 19.8234 96.1152C20.4395 96.7733 21.2748 97.1435 22.146 97.1445H90.041C90.9122 97.1434 91.7474 96.7732 92.3634 96.1151C92.9794 95.457 93.3259 94.5647 93.3269 93.634V11.4424H18.8598Z" fill="#292A2E"/>
<path d="M31.9674 28.4013H24.5083C24.0926 28.4008 23.694 28.2242 23.4 27.9101C23.106 27.5961 22.9407 27.1702 22.9402 26.7261V18.757C22.9407 18.3128 23.106 17.887 23.4 17.573C23.694 17.2589 24.0926 17.0823 24.5083 17.0818H31.9674C32.3831 17.0823 32.7817 17.259 33.0756 17.573C33.3696 17.8871 33.5349 18.3129 33.5354 18.757V26.7261C33.5349 27.1702 33.3696 27.596 33.0756 27.9101C32.7817 28.2241 32.3831 28.4008 31.9674 28.4013ZM24.5083 17.3592C24.1614 17.3596 23.8289 17.507 23.5835 17.769C23.3382 18.0311 23.2002 18.3864 23.1998 18.757V26.7261C23.2002 27.0967 23.3382 27.452 23.5835 27.7141C23.8289 27.9761 24.1614 28.1235 24.5083 28.1239H31.9674C32.3143 28.1235 32.6468 27.9761 32.8921 27.714C33.1374 27.452 33.2754 27.0967 33.2758 26.7261V18.757C33.2754 18.3864 33.1374 18.0311 32.8921 17.7691C32.6468 17.507 32.3143 17.3596 31.9674 17.3592H24.5083Z" fill="#292A2E"/>
<path d="M31.9674 44.1894H24.5083C24.0926 44.189 23.694 44.0123 23.4 43.6983C23.106 43.3842 22.9407 42.9584 22.9402 42.5142V34.5453C22.9405 34.101 23.1058 33.675 23.3998 33.3609C23.6938 33.0467 24.0925 32.8699 24.5083 32.8694H31.9674C32.3831 32.8699 32.7817 33.0466 33.0757 33.3607C33.3696 33.6747 33.535 34.1006 33.5354 34.5447V42.5137C33.5351 42.9579 33.3698 43.3838 33.0758 43.698C32.7818 44.0122 32.3832 44.1889 31.9674 44.1894ZM24.5083 33.1468C24.1614 33.1472 23.8288 33.2946 23.5835 33.5567C23.3382 33.8188 23.2002 34.1741 23.1998 34.5447V42.5137C23.2002 42.8843 23.3382 43.2396 23.5835 43.5017C23.8289 43.7637 24.1614 43.9111 24.5083 43.9115H31.9674C32.3143 43.9111 32.6469 43.7637 32.8921 43.5016C33.1374 43.2396 33.2754 42.8843 33.2758 42.5137V34.5453C33.2755 34.1746 33.1376 33.8191 32.8923 33.5569C32.647 33.2947 32.3144 33.1472 31.9674 33.1468H24.5083Z" fill="#292A2E"/>
<path d="M31.9674 59.9776H24.5083C24.0926 59.9771 23.694 59.8004 23.4 59.4864C23.106 59.1723 22.9407 58.7465 22.9402 58.3023V50.3334C22.9407 49.8893 23.106 49.4634 23.4 49.1494C23.694 48.8353 24.0926 48.6587 24.5083 48.6582H31.9674C32.3831 48.6587 32.7817 48.8354 33.0756 49.1494C33.3696 49.4635 33.5349 49.8893 33.5354 50.3334V58.3023C33.5349 58.7465 33.3696 59.1723 33.0756 59.4863C32.7817 59.8004 32.3831 59.9771 31.9674 59.9776ZM24.5083 48.9356C24.1614 48.936 23.8289 49.0834 23.5835 49.3454C23.3382 49.6075 23.2002 49.9628 23.1998 50.3334V58.3023C23.2002 58.673 23.3382 59.0283 23.5835 59.2903C23.8289 59.5524 24.1614 59.6998 24.5083 59.7002H31.9674C32.3143 59.6998 32.6469 59.5524 32.8921 59.2903C33.1374 59.0283 33.2754 58.673 33.2758 58.3023V50.3334C33.2754 49.9628 33.1374 49.6075 32.8921 49.3454C32.6469 49.0834 32.3143 48.936 31.9674 48.9356H24.5083Z" fill="#292A2E"/>
<path d="M31.9674 75.5484H24.5083C24.0926 75.548 23.694 75.3713 23.4 75.0573C23.106 74.7432 22.9407 74.3174 22.9402 73.8732V65.9049C22.9407 65.4607 23.106 65.0348 23.4 64.7208C23.694 64.4067 24.0926 64.23 24.5083 64.2295H31.9674C32.3831 64.23 32.7817 64.4067 33.0757 64.7208C33.3696 65.0349 33.535 65.4607 33.5354 65.9049V73.8738C33.5348 74.3178 33.3694 74.7435 33.0754 75.0574C32.7815 75.3713 32.383 75.5479 31.9674 75.5484ZM24.5083 64.5063C24.1614 64.5067 23.8288 64.6541 23.5835 64.9162C23.3382 65.1783 23.2002 65.5337 23.1998 65.9043V73.8732C23.2002 74.2438 23.3382 74.5991 23.5835 74.8612C23.8289 75.1233 24.1614 75.2707 24.5083 75.2711H31.9674C32.3143 75.2706 32.6468 75.1232 32.8921 74.8612C33.1374 74.5991 33.2754 74.2438 33.2758 73.8732V65.9049C33.2754 65.5342 33.1375 65.1789 32.8922 64.9168C32.6469 64.6547 32.3143 64.5073 31.9674 64.5069L24.5083 64.5063Z" fill="#292A2E"/>
<path d="M31.9674 91.1194H24.5083C24.0926 91.1189 23.694 90.9423 23.4 90.6282C23.106 90.3141 22.9407 89.8883 22.9402 89.4441V81.4752C22.9407 81.031 23.106 80.6052 23.4 80.2911C23.694 79.977 24.0926 79.8003 24.5083 79.7998H31.9674C32.3831 79.8003 32.7817 79.977 33.0757 80.2911C33.3696 80.6052 33.535 81.031 33.5354 81.4752V89.4441C33.535 89.8882 33.3696 90.3141 33.0757 90.6282C32.7817 90.9423 32.3831 91.1189 31.9674 91.1194ZM24.5083 80.0772C24.1614 80.0776 23.8288 80.2251 23.5835 80.4871C23.3382 80.7492 23.2002 81.1045 23.1998 81.4752V89.4441C23.2002 89.8147 23.3382 90.17 23.5835 90.4321C23.8288 90.6942 24.1614 90.8416 24.5083 90.8421H31.9674C32.3143 90.8416 32.6469 90.6942 32.8922 90.4321C33.1374 90.17 33.2754 89.8147 33.2758 89.4441V81.4752C33.2754 81.1045 33.1374 80.7492 32.8922 80.4871C32.6469 80.2251 32.3143 80.0776 31.9674 80.0772H24.5083Z" fill="#292A2E"/>
<path d="M26.9102 25.9296C26.776 25.9298 26.647 25.8743 26.5505 25.7747L24.3763 23.5418C24.3264 23.4915 24.2864 23.4312 24.2584 23.3642C24.2305 23.2973 24.2152 23.2251 24.2135 23.1518C24.2119 23.0786 24.2238 23.0057 24.2486 22.9373C24.2735 22.869 24.3108 22.8066 24.3583 22.7538C24.4058 22.701 24.4627 22.6587 24.5256 22.6295C24.5886 22.6003 24.6563 22.5847 24.7249 22.5836C24.7935 22.5825 24.8616 22.5959 24.9253 22.6231C24.989 22.6503 25.047 22.6907 25.096 22.742L26.9014 24.5959L31.4278 19.7176C31.4756 19.665 31.5327 19.6231 31.5958 19.5942C31.6589 19.5653 31.7267 19.55 31.7953 19.5493C31.8639 19.5486 31.932 19.5625 31.9956 19.5901C32.0592 19.6176 32.1171 19.6584 32.1658 19.71C32.2146 19.7617 32.2533 19.8231 32.2797 19.8908C32.306 19.9585 32.3196 20.0311 32.3196 20.1044C32.3195 20.1777 32.3059 20.2503 32.2794 20.318C32.2529 20.3857 32.2142 20.447 32.1654 20.4986L27.2799 25.7653C27.2316 25.8175 27.174 25.859 27.1105 25.8872C27.0471 25.9154 26.979 25.9298 26.9102 25.9296Z" fill="#367CFF"/>
<path d="M26.9106 41.7173C26.7764 41.7174 26.6474 41.6619 26.5509 41.5624L24.3767 39.3295C24.2774 39.2276 24.2201 39.0876 24.2174 38.9405C24.2147 38.7934 24.2667 38.6512 24.3622 38.5451C24.4576 38.439 24.5886 38.3778 24.7263 38.3749C24.864 38.372 24.9971 38.4276 25.0964 38.5296L26.9018 40.3834L31.4281 35.5055C31.5254 35.4027 31.6567 35.3451 31.7935 35.3452C31.9303 35.3453 32.0615 35.4031 32.1587 35.5059C32.2559 35.6088 32.3111 35.7485 32.3124 35.8946C32.3138 36.0408 32.261 36.1816 32.1657 36.2864L27.2803 41.5531C27.232 41.6053 27.1744 41.6467 27.1109 41.6749C27.0474 41.7031 26.9793 41.7175 26.9106 41.7173Z" fill="#367CFF"/>
<path d="M26.9106 57.506C26.7764 57.5062 26.6475 57.4507 26.5509 57.3513L24.3767 55.1184C24.2774 55.0164 24.2201 54.8765 24.2174 54.7294C24.2147 54.5823 24.2667 54.44 24.3622 54.334C24.4576 54.2279 24.5886 54.1666 24.7263 54.1637C24.864 54.1608 24.9971 54.2165 25.0964 54.3184L26.9018 56.1723L31.4281 51.294C31.5254 51.1913 31.6567 51.1337 31.7935 51.1338C31.9303 51.1339 32.0615 51.1916 32.1587 51.2945C32.2559 51.3974 32.3111 51.5371 32.3124 51.6832C32.3138 51.8293 32.261 51.9701 32.1657 52.075L27.2803 57.3417C27.232 57.3939 27.1744 57.4354 27.1109 57.4636C27.0474 57.4918 26.9793 57.5062 26.9106 57.506Z" fill="#367CFF"/>
<path opacity="0.5" d="M87.8489 20.2739H37.6121C37.412 20.2739 37.2498 20.4472 37.2498 20.661C37.2498 20.8748 37.412 21.0481 37.6121 21.0481H87.8489C88.049 21.0481 88.2112 20.8748 88.2112 20.661C88.2112 20.4472 88.049 20.2739 87.8489 20.2739Z" fill="#262626"/>
<path opacity="0.5" d="M67.0785 24.4346H37.6121C37.412 24.4346 37.2498 24.6079 37.2498 24.8217C37.2498 25.0354 37.412 25.2087 37.6121 25.2087H67.0785C67.2786 25.2087 67.4408 25.0354 67.4408 24.8217C67.4408 24.6079 67.2786 24.4346 67.0785 24.4346Z" fill="#262626"/>
<path opacity="0.5" d="M87.8489 36.0618H37.6121C37.412 36.0618 37.2498 36.2351 37.2498 36.4488C37.2498 36.6626 37.412 36.8359 37.6121 36.8359H87.8489C88.049 36.8359 88.2112 36.6626 88.2112 36.4488C88.2112 36.2351 88.049 36.0618 87.8489 36.0618Z" fill="#262626"/>
<path opacity="0.5" d="M67.0785 40.2231H37.6121C37.412 40.2231 37.2498 40.3964 37.2498 40.6102C37.2498 40.824 37.412 40.9973 37.6121 40.9973H67.0785C67.2786 40.9973 67.4408 40.824 67.4408 40.6102C67.4408 40.3964 67.2786 40.2231 67.0785 40.2231Z" fill="#262626"/>
<path opacity="0.5" d="M87.8489 51.8503H37.6121C37.412 51.8503 37.2498 52.0236 37.2498 52.2374C37.2498 52.4512 37.412 52.6245 37.6121 52.6245H87.8489C88.049 52.6245 88.2112 52.4512 88.2112 52.2374C88.2112 52.0236 88.049 51.8503 87.8489 51.8503Z" fill="#262626"/>
<path opacity="0.5" d="M67.0785 56.011H37.6121C37.412 56.011 37.2498 56.1843 37.2498 56.3981C37.2498 56.6118 37.412 56.7851 37.6121 56.7851H67.0785C67.2786 56.7851 67.4408 56.6118 67.4408 56.3981C67.4408 56.1843 67.2786 56.011 67.0785 56.011Z" fill="#262626"/>
<path opacity="0.5" d="M87.8489 67.4214H37.6121C37.412 67.4214 37.2498 67.5947 37.2498 67.8085C37.2498 68.0222 37.412 68.1955 37.6121 68.1955H87.8489C88.049 68.1955 88.2112 68.0222 88.2112 67.8085C88.2112 67.5947 88.049 67.4214 87.8489 67.4214Z" fill="#262626"/>
<path opacity="0.5" d="M67.0785 71.582H37.6121C37.412 71.582 37.2498 71.7553 37.2498 71.9691C37.2498 72.1829 37.412 72.3562 37.6121 72.3562H67.0785C67.2786 72.3562 67.4408 72.1829 67.4408 71.9691C67.4408 71.7553 67.2786 71.582 67.0785 71.582Z" fill="#262626"/>
<path opacity="0.5" d="M87.8489 82.9924H37.6121C37.412 82.9924 37.2498 83.1657 37.2498 83.3795C37.2498 83.5933 37.412 83.7666 37.6121 83.7666H87.8489C88.049 83.7666 88.2112 83.5933 88.2112 83.3795C88.2112 83.1657 88.049 82.9924 87.8489 82.9924Z" fill="#262626"/>
<path opacity="0.5" d="M67.0785 87.1531H37.6121C37.412 87.1531 37.2498 87.3264 37.2498 87.5402C37.2498 87.7539 37.412 87.9272 37.6121 87.9272H67.0785C67.2786 87.9272 67.4408 87.7539 67.4408 87.5402C67.4408 87.3264 67.2786 87.1531 67.0785 87.1531Z" fill="#262626"/>
<path d="M27.7103 8.27041e-08C26.8968 0.000991167 26.117 0.34666 25.5418 0.961172C24.9666 1.57569 24.643 2.40886 24.6421 3.27791H24.9017C24.9017 2.7021 25.0567 2.13844 25.3483 1.65418C25.6399 1.16992 26.0557 0.785533 26.5462 0.546881C27.0367 0.308229 27.5811 0.225397 28.1145 0.308269C28.6478 0.391141 29.1476 0.636218 29.5541 1.01425C29.9607 1.39228 30.2568 1.88731 30.4072 2.44024C30.5576 2.99317 30.556 3.58066 30.4024 4.1326C30.2488 4.68453 29.9498 5.1776 29.5411 5.55295C29.1324 5.9283 28.6312 6.17009 28.0974 6.24946C28.0524 6.15042 27.9757 6.07185 27.8813 6.02795C27.7868 5.98406 27.6807 5.97775 27.5822 6.01016C27.4838 6.04256 27.3994 6.11155 27.3444 6.20464C27.2895 6.29773 27.2675 6.40877 27.2825 6.51767C27.2975 6.62657 27.3485 6.72614 27.4262 6.79837C27.5039 6.8706 27.6033 6.91071 27.7064 6.91144C27.8094 6.91218 27.9093 6.8735 27.9879 6.8024C28.0666 6.73129 28.1188 6.63246 28.1352 6.52378C28.9046 6.40902 29.6046 5.98664 30.094 5.34192C30.5833 4.69719 30.8254 3.87815 30.7715 3.05012C30.7175 2.2221 30.3716 1.44677 29.8034 0.880658C29.2352 0.314545 28.4872 -0.000186266 27.7103 8.27041e-08Z" fill="#F4F4F4"/>
<path d="M87.546 3.27791C87.546 2.40855 87.2228 1.57481 86.6474 0.960078C86.072 0.34535 85.2916 0 84.4778 0C83.6641 0 82.8837 0.34535 82.3083 0.960078C81.7329 1.57481 81.4097 2.40855 81.4097 3.27791H81.6693C81.6692 2.7021 81.8243 2.13844 82.1159 1.65418C82.4075 1.16992 82.8233 0.785533 83.3138 0.546881C83.8043 0.308229 84.3487 0.225397 84.8821 0.308269C85.4154 0.391141 85.9152 0.636218 86.3217 1.01425C86.7283 1.39228 87.0244 1.88731 87.1748 2.44024C87.3252 2.99317 87.3235 3.58066 87.1699 4.1326C87.0164 4.68453 86.7174 5.1776 86.3087 5.55295C85.8999 5.9283 85.3988 6.17009 84.865 6.24946C84.82 6.15042 84.7433 6.07185 84.6488 6.02795C84.5544 5.98406 84.4483 5.97775 84.3498 6.01016C84.2514 6.04256 84.167 6.11155 84.112 6.20464C84.057 6.29773 84.035 6.40877 84.05 6.51767C84.065 6.62657 84.116 6.72614 84.1938 6.79837C84.2715 6.8706 84.3709 6.91071 84.4739 6.91144C84.577 6.91218 84.6768 6.8735 84.7555 6.8024C84.8341 6.73129 84.8864 6.63246 84.9027 6.52378C85.6353 6.41338 86.3059 6.0243 86.7915 5.42802C87.2771 4.83173 87.545 4.06828 87.546 3.27791Z" fill="#F4F4F4"/>
<path d="M79.4373 3.27772C79.432 2.41204 79.1064 1.58374 78.5316 0.973588C77.9567 0.363441 77.1793 0.0209961 76.369 0.0209961C75.5587 0.0209961 74.7813 0.363441 74.2065 0.973588C73.6316 1.58374 73.3061 2.41204 73.3008 3.27772H73.5604C73.5603 2.70188 73.7153 2.13816 74.0069 1.65386C74.2985 1.16956 74.7144 0.785124 75.2049 0.546442C75.6954 0.307759 76.2399 0.224909 76.7733 0.30778C77.3067 0.39065 77.8065 0.635741 78.2131 1.0138C78.6196 1.39186 78.9158 1.88692 79.0662 2.43989C79.2166 2.99287 79.2149 3.5804 79.0613 4.13237C78.9077 4.68434 78.6087 5.17743 78.1999 5.55279C77.7911 5.92815 77.2899 6.16993 76.7561 6.24927C76.7111 6.15023 76.6344 6.07166 76.54 6.02777C76.4455 5.98387 76.3394 5.97756 76.2409 6.00997C76.1425 6.04238 76.0581 6.11137 76.0031 6.20445C75.9481 6.29754 75.9262 6.40858 75.9412 6.51748C75.9562 6.62639 76.0071 6.72596 76.0849 6.79818C76.1626 6.87041 76.262 6.91052 76.365 6.91126C76.4681 6.912 76.5679 6.87331 76.6466 6.80221C76.7252 6.7311 76.7775 6.63227 76.7938 6.5236C77.5264 6.41323 78.1971 6.02416 78.6827 5.42787C79.1683 4.83158 79.4363 4.06812 79.4373 3.27772Z" fill="#F4F4F4"/>
<path d="M71.3269 3.27772C71.3216 2.41204 70.9961 1.58374 70.4212 0.973588C69.8464 0.363441 69.069 0.0209961 68.2587 0.0209961C67.4484 0.0209961 66.671 0.363441 66.0961 0.973588C65.5213 1.58374 65.1957 2.41204 65.1904 3.27772H65.4501C65.45 2.70191 65.605 2.13823 65.8966 1.65396C66.1882 1.16968 66.604 0.785267 67.0945 0.546581C67.585 0.307894 68.1294 0.22502 68.6627 0.307847C69.1961 0.390674 69.6959 0.635705 70.1025 1.0137C70.5091 1.39169 70.8053 1.88668 70.9557 2.4396C71.1062 2.99252 71.1046 3.58002 70.9511 4.13198C70.7976 4.68395 70.4986 5.17707 70.09 5.55249C69.6813 5.92792 69.1802 6.1698 68.6464 6.24927C68.6014 6.15023 68.5247 6.07166 68.4302 6.02777C68.3358 5.98387 68.2297 5.97756 68.1312 6.00997C68.0328 6.04238 67.9484 6.11137 67.8934 6.20445C67.8384 6.29754 67.8165 6.40858 67.8315 6.51748C67.8465 6.62639 67.8974 6.72596 67.9752 6.79818C68.0529 6.87041 68.1523 6.91052 68.2553 6.91126C68.3584 6.912 68.4582 6.87331 68.5369 6.80221C68.6155 6.7311 68.6678 6.63227 68.6841 6.5236C69.4166 6.41307 70.0871 6.02394 70.5726 5.42767C71.0581 4.8314 71.3259 4.06801 71.3269 3.27772Z" fill="#F4F4F4"/>
<path d="M63.2167 3.27791C63.2167 2.40855 62.8934 1.57481 62.318 0.960078C61.7426 0.34535 60.9622 0 60.1485 0C59.3348 0 58.5544 0.34535 57.979 0.960078C57.4036 1.57481 57.0803 2.40855 57.0803 3.27791H57.34C57.3399 2.7021 57.4949 2.13844 57.7865 1.65418C58.0781 1.16992 58.494 0.785533 58.9845 0.546881C59.4749 0.308229 60.0194 0.225397 60.5527 0.308269C61.0861 0.391141 61.5858 0.636218 61.9924 1.01425C62.3989 1.39228 62.6951 1.88731 62.8455 2.44024C62.9959 2.99317 62.9942 3.58066 62.8406 4.1326C62.687 4.68453 62.388 5.1776 61.9793 5.55295C61.5706 5.9283 61.0694 6.17009 60.5356 6.24946C60.4907 6.15036 60.414 6.07171 60.3195 6.02774C60.2251 5.98377 60.1189 5.97739 60.0204 6.00976C59.9219 6.04212 59.8375 6.11108 59.7825 6.20417C59.7274 6.29726 59.7054 6.40833 59.7203 6.51727C59.7353 6.62622 59.7862 6.72585 59.864 6.79814C59.9417 6.87043 60.0411 6.9106 60.1442 6.91139C60.2472 6.91218 60.3472 6.87352 60.4259 6.80243C60.5046 6.73133 60.5568 6.63249 60.5733 6.52378C61.3058 6.41341 61.9765 6.02435 62.4621 5.42806C62.9478 4.83177 63.2157 4.0683 63.2167 3.27791Z" fill="#F4F4F4"/>
<path d="M55.1077 3.27772C55.1024 2.41204 54.7768 1.58374 54.202 0.973588C53.6271 0.363441 52.8497 0.0209961 52.0394 0.0209961C51.2291 0.0209961 50.4517 0.363441 49.8769 0.973588C49.302 1.58374 48.9765 2.41204 48.9712 3.27772H49.2308C49.2307 2.70188 49.3857 2.13816 49.6773 1.65386C49.9689 1.16956 50.3848 0.785124 50.8753 0.546442C51.3659 0.307759 51.9103 0.224909 52.4437 0.30778C52.9771 0.39065 53.4769 0.635741 53.8835 1.0138C54.29 1.39186 54.5862 1.88692 54.7366 2.43989C54.887 2.99287 54.8853 3.5804 54.7317 4.13237C54.5781 4.68434 54.2791 5.17743 53.8703 5.55279C53.4616 5.92815 52.9603 6.16993 52.4265 6.24927C52.3815 6.15023 52.3048 6.07166 52.2104 6.02777C52.1159 5.98387 52.0098 5.97756 51.9113 6.00997C51.8129 6.04238 51.7285 6.11137 51.6735 6.20445C51.6186 6.29754 51.5966 6.40858 51.6116 6.51748C51.6266 6.62639 51.6775 6.72596 51.7553 6.79818C51.833 6.87041 51.9324 6.91052 52.0355 6.91126C52.1385 6.912 52.2384 6.87331 52.317 6.80221C52.3957 6.7311 52.4479 6.63227 52.4642 6.5236C53.1968 6.41323 53.8675 6.02416 54.3531 5.42787C54.8387 4.83158 55.1067 4.06812 55.1077 3.27772Z" fill="#F4F4F4"/>
<path d="M46.9974 3.27791C46.9974 2.40855 46.6742 1.57481 46.0988 0.960078C45.5234 0.34535 44.743 0 43.9293 0C43.1155 0 42.3351 0.34535 41.7597 0.960078C41.1843 1.57481 40.8611 2.40855 40.8611 3.27791H41.1207C41.1207 2.7021 41.2757 2.13844 41.5673 1.65418C41.8589 1.16992 42.2747 0.785533 42.7652 0.546881C43.2557 0.308229 43.8001 0.225397 44.3335 0.308269C44.8668 0.391141 45.3666 0.636218 45.7731 1.01425C46.1797 1.39228 46.4758 1.88731 46.6262 2.44024C46.7766 2.99317 46.7749 3.58066 46.6214 4.1326C46.4678 4.68453 46.1688 5.1776 45.7601 5.55295C45.3514 5.9283 44.8502 6.17009 44.3164 6.24946C44.2714 6.15036 44.1948 6.07171 44.1003 6.02774C44.0058 5.98377 43.8997 5.97739 43.8012 6.00976C43.7027 6.04212 43.6183 6.11108 43.5632 6.20417C43.5082 6.29726 43.4861 6.40833 43.5011 6.51727C43.516 6.62622 43.567 6.72585 43.6447 6.79814C43.7225 6.87043 43.8219 6.9106 43.9249 6.91139C44.028 6.91218 44.1279 6.87352 44.2066 6.80243C44.2853 6.73133 44.3376 6.63249 44.354 6.52378C45.0866 6.41341 45.7573 6.02435 46.2429 5.42806C46.7285 4.83177 46.9964 4.0683 46.9974 3.27791Z" fill="#F4F4F4"/>
<path d="M38.8887 3.27772C38.8834 2.41204 38.5578 1.58374 37.983 0.973588C37.4082 0.363441 36.6307 0.0209961 35.8204 0.0209961C35.0101 0.0209961 34.2327 0.363441 33.6579 0.973588C33.0831 1.58374 32.7575 2.41204 32.7522 3.27772H33.0118C33.0117 2.70188 33.1667 2.13816 33.4583 1.65386C33.7499 1.16956 34.1658 0.785124 34.6563 0.546442C35.1469 0.307759 35.6913 0.224909 36.2247 0.30778C36.7581 0.39065 37.2579 0.635741 37.6645 1.0138C38.071 1.39186 38.3672 1.88692 38.5176 2.43989C38.668 2.99287 38.6663 3.5804 38.5127 4.13237C38.3591 4.68434 38.0601 5.17743 37.6513 5.55279C37.2426 5.92815 36.7413 6.16993 36.2075 6.24927C36.1625 6.15023 36.0859 6.07166 35.9914 6.02777C35.8969 5.98387 35.7908 5.97756 35.6924 6.00997C35.5939 6.04238 35.5095 6.11137 35.4545 6.20445C35.3996 6.29754 35.3776 6.40858 35.3926 6.51748C35.4076 6.62639 35.4586 6.72596 35.5363 6.79818C35.6141 6.87041 35.7134 6.91052 35.8165 6.91126C35.9195 6.912 36.0194 6.87331 36.098 6.80221C36.1767 6.7311 36.2289 6.63227 36.2453 6.5236C36.9778 6.41323 37.6485 6.02416 38.1341 5.42787C38.6198 4.83158 38.8877 4.06812 38.8887 3.27772Z" fill="#F4F4F4"/>
<g opacity="0.6">
<path d="M27.7103 8.27041e-08C26.8968 0.000991167 26.117 0.34666 25.5418 0.961172C24.9666 1.57569 24.643 2.40886 24.6421 3.27791H24.9017C24.9017 2.7021 25.0567 2.13844 25.3483 1.65418C25.6399 1.16992 26.0557 0.785533 26.5462 0.546881C27.0367 0.308229 27.5811 0.225397 28.1145 0.308269C28.6478 0.391141 29.1476 0.636218 29.5541 1.01425C29.9607 1.39228 30.2568 1.88731 30.4072 2.44024C30.5576 2.99317 30.556 3.58066 30.4024 4.1326C30.2488 4.68453 29.9498 5.1776 29.5411 5.55295C29.1324 5.9283 28.6312 6.17009 28.0974 6.24946C28.0524 6.15042 27.9757 6.07185 27.8813 6.02795C27.7868 5.98406 27.6807 5.97775 27.5822 6.01016C27.4838 6.04256 27.3994 6.11155 27.3444 6.20464C27.2895 6.29773 27.2675 6.40877 27.2825 6.51767C27.2975 6.62657 27.3485 6.72614 27.4262 6.79837C27.5039 6.8706 27.6033 6.91071 27.7064 6.91144C27.8094 6.91218 27.9093 6.8735 27.9879 6.8024C28.0666 6.73129 28.1188 6.63246 28.1352 6.52378C28.9046 6.40902 29.6046 5.98664 30.094 5.34192C30.5833 4.69719 30.8254 3.87815 30.7715 3.05012C30.7175 2.2221 30.3716 1.44677 29.8034 0.880658C29.2352 0.314545 28.4872 -0.000186266 27.7103 8.27041e-08Z" fill="#292A2E"/>
<path d="M87.546 3.27791C87.546 2.40855 87.2228 1.57481 86.6474 0.960078C86.072 0.34535 85.2916 0 84.4778 0C83.6641 0 82.8837 0.34535 82.3083 0.960078C81.7329 1.57481 81.4097 2.40855 81.4097 3.27791H81.6693C81.6692 2.7021 81.8243 2.13844 82.1159 1.65418C82.4075 1.16992 82.8233 0.785533 83.3138 0.546881C83.8043 0.308229 84.3487 0.225397 84.8821 0.308269C85.4154 0.391141 85.9152 0.636218 86.3217 1.01425C86.7283 1.39228 87.0244 1.88731 87.1748 2.44024C87.3252 2.99317 87.3235 3.58066 87.1699 4.1326C87.0164 4.68453 86.7174 5.1776 86.3087 5.55295C85.8999 5.9283 85.3988 6.17009 84.865 6.24946C84.82 6.15042 84.7433 6.07185 84.6488 6.02795C84.5544 5.98406 84.4483 5.97775 84.3498 6.01016C84.2514 6.04256 84.167 6.11155 84.112 6.20464C84.057 6.29773 84.035 6.40877 84.05 6.51767C84.065 6.62657 84.116 6.72614 84.1938 6.79837C84.2715 6.8706 84.3709 6.91071 84.4739 6.91144C84.577 6.91218 84.6768 6.8735 84.7555 6.8024C84.8341 6.73129 84.8864 6.63246 84.9027 6.52378C85.6353 6.41338 86.3059 6.0243 86.7915 5.42802C87.2771 4.83173 87.545 4.06828 87.546 3.27791Z" fill="#292A2E"/>
<path d="M79.4373 3.27772C79.432 2.41204 79.1064 1.58374 78.5316 0.973588C77.9567 0.363441 77.1793 0.0209961 76.369 0.0209961C75.5587 0.0209961 74.7813 0.363441 74.2065 0.973588C73.6316 1.58374 73.3061 2.41204 73.3008 3.27772H73.5604C73.5603 2.70188 73.7153 2.13816 74.0069 1.65386C74.2985 1.16956 74.7144 0.785124 75.2049 0.546442C75.6954 0.307759 76.2399 0.224909 76.7733 0.30778C77.3067 0.39065 77.8065 0.635741 78.2131 1.0138C78.6196 1.39186 78.9158 1.88692 79.0662 2.43989C79.2166 2.99287 79.2149 3.5804 79.0613 4.13237C78.9077 4.68434 78.6087 5.17743 78.1999 5.55279C77.7911 5.92815 77.2899 6.16993 76.7561 6.24927C76.7111 6.15023 76.6344 6.07166 76.54 6.02777C76.4455 5.98387 76.3394 5.97756 76.2409 6.00997C76.1425 6.04238 76.0581 6.11137 76.0031 6.20445C75.9481 6.29754 75.9262 6.40858 75.9412 6.51748C75.9562 6.62639 76.0071 6.72596 76.0849 6.79818C76.1626 6.87041 76.262 6.91052 76.365 6.91126C76.4681 6.912 76.5679 6.87331 76.6466 6.80221C76.7252 6.7311 76.7775 6.63227 76.7938 6.5236C77.5264 6.41323 78.1971 6.02416 78.6827 5.42787C79.1683 4.83158 79.4363 4.06812 79.4373 3.27772Z" fill="#292A2E"/>
<path d="M71.3269 3.27772C71.3216 2.41204 70.9961 1.58374 70.4212 0.973588C69.8464 0.363441 69.069 0.0209961 68.2587 0.0209961C67.4484 0.0209961 66.671 0.363441 66.0961 0.973588C65.5213 1.58374 65.1957 2.41204 65.1904 3.27772H65.4501C65.45 2.70191 65.605 2.13823 65.8966 1.65396C66.1882 1.16968 66.604 0.785267 67.0945 0.546581C67.585 0.307894 68.1294 0.22502 68.6627 0.307847C69.1961 0.390674 69.6959 0.635705 70.1025 1.0137C70.5091 1.39169 70.8053 1.88668 70.9557 2.4396C71.1062 2.99252 71.1046 3.58002 70.9511 4.13198C70.7976 4.68395 70.4986 5.17707 70.09 5.55249C69.6813 5.92792 69.1802 6.1698 68.6464 6.24927C68.6014 6.15023 68.5247 6.07166 68.4302 6.02777C68.3358 5.98387 68.2297 5.97756 68.1312 6.00997C68.0328 6.04238 67.9484 6.11137 67.8934 6.20445C67.8384 6.29754 67.8165 6.40858 67.8315 6.51748C67.8465 6.62639 67.8974 6.72596 67.9752 6.79818C68.0529 6.87041 68.1523 6.91052 68.2553 6.91126C68.3584 6.912 68.4582 6.87331 68.5369 6.80221C68.6155 6.7311 68.6678 6.63227 68.6841 6.5236C69.4166 6.41307 70.0871 6.02394 70.5726 5.42767C71.0581 4.8314 71.3259 4.06801 71.3269 3.27772Z" fill="#292A2E"/>
<path d="M63.2167 3.27791C63.2167 2.40855 62.8934 1.57481 62.318 0.960078C61.7426 0.34535 60.9622 0 60.1485 0C59.3348 0 58.5544 0.34535 57.979 0.960078C57.4036 1.57481 57.0803 2.40855 57.0803 3.27791H57.34C57.3399 2.7021 57.4949 2.13844 57.7865 1.65418C58.0781 1.16992 58.494 0.785533 58.9845 0.546881C59.4749 0.308229 60.0194 0.225397 60.5527 0.308269C61.0861 0.391141 61.5858 0.636218 61.9924 1.01425C62.3989 1.39228 62.6951 1.88731 62.8455 2.44024C62.9959 2.99317 62.9942 3.58066 62.8406 4.1326C62.687 4.68453 62.388 5.1776 61.9793 5.55295C61.5706 5.9283 61.0694 6.17009 60.5356 6.24946C60.4907 6.15036 60.414 6.07171 60.3195 6.02774C60.2251 5.98377 60.1189 5.97739 60.0204 6.00976C59.9219 6.04212 59.8375 6.11108 59.7825 6.20417C59.7274 6.29726 59.7054 6.40833 59.7203 6.51727C59.7353 6.62622 59.7862 6.72585 59.864 6.79814C59.9417 6.87043 60.0411 6.9106 60.1442 6.91139C60.2472 6.91218 60.3472 6.87352 60.4259 6.80243C60.5046 6.73133 60.5568 6.63249 60.5733 6.52378C61.3058 6.41341 61.9765 6.02435 62.4621 5.42806C62.9478 4.83177 63.2157 4.0683 63.2167 3.27791Z" fill="#292A2E"/>
<path d="M55.1077 3.27772C55.1024 2.41204 54.7768 1.58374 54.202 0.973588C53.6271 0.363441 52.8497 0.0209961 52.0394 0.0209961C51.2291 0.0209961 50.4517 0.363441 49.8769 0.973588C49.302 1.58374 48.9765 2.41204 48.9712 3.27772H49.2308C49.2307 2.70188 49.3857 2.13816 49.6773 1.65386C49.9689 1.16956 50.3848 0.785124 50.8753 0.546442C51.3659 0.307759 51.9103 0.224909 52.4437 0.30778C52.9771 0.39065 53.4769 0.635741 53.8835 1.0138C54.29 1.39186 54.5862 1.88692 54.7366 2.43989C54.887 2.99287 54.8853 3.5804 54.7317 4.13237C54.5781 4.68434 54.2791 5.17743 53.8703 5.55279C53.4616 5.92815 52.9603 6.16993 52.4265 6.24927C52.3815 6.15023 52.3048 6.07166 52.2104 6.02777C52.1159 5.98387 52.0098 5.97756 51.9113 6.00997C51.8129 6.04238 51.7285 6.11137 51.6735 6.20445C51.6186 6.29754 51.5966 6.40858 51.6116 6.51748C51.6266 6.62639 51.6775 6.72596 51.7553 6.79818C51.833 6.87041 51.9324 6.91052 52.0355 6.91126C52.1385 6.912 52.2384 6.87331 52.317 6.80221C52.3957 6.7311 52.4479 6.63227 52.4642 6.5236C53.1968 6.41323 53.8675 6.02416 54.3531 5.42787C54.8387 4.83158 55.1067 4.06812 55.1077 3.27772Z" fill="#292A2E"/>
<path d="M46.9974 3.27791C46.9974 2.40855 46.6742 1.57481 46.0988 0.960078C45.5234 0.34535 44.743 0 43.9293 0C43.1155 0 42.3351 0.34535 41.7597 0.960078C41.1843 1.57481 40.8611 2.40855 40.8611 3.27791H41.1207C41.1207 2.7021 41.2757 2.13844 41.5673 1.65418C41.8589 1.16992 42.2747 0.785533 42.7652 0.546881C43.2557 0.308229 43.8001 0.225397 44.3335 0.308269C44.8668 0.391141 45.3666 0.636218 45.7731 1.01425C46.1797 1.39228 46.4758 1.88731 46.6262 2.44024C46.7766 2.99317 46.7749 3.58066 46.6214 4.1326C46.4678 4.68453 46.1688 5.1776 45.7601 5.55295C45.3514 5.9283 44.8502 6.17009 44.3164 6.24946C44.2714 6.15036 44.1948 6.07171 44.1003 6.02774C44.0058 5.98377 43.8997 5.97739 43.8012 6.00976C43.7027 6.04212 43.6183 6.11108 43.5632 6.20417C43.5082 6.29726 43.4861 6.40833 43.5011 6.51727C43.516 6.62622 43.567 6.72585 43.6447 6.79814C43.7225 6.87043 43.8219 6.9106 43.9249 6.91139C44.028 6.91218 44.1279 6.87352 44.2066 6.80243C44.2853 6.73133 44.3376 6.63249 44.354 6.52378C45.0866 6.41341 45.7573 6.02435 46.2429 5.42806C46.7285 4.83177 46.9964 4.0683 46.9974 3.27791Z" fill="#292A2E"/>
<path d="M38.8887 3.27772C38.8834 2.41204 38.5578 1.58374 37.983 0.973588C37.4082 0.363441 36.6307 0.0209961 35.8204 0.0209961C35.0101 0.0209961 34.2327 0.363441 33.6579 0.973588C33.0831 1.58374 32.7575 2.41204 32.7522 3.27772H33.0118C33.0117 2.70188 33.1667 2.13816 33.4583 1.65386C33.7499 1.16956 34.1658 0.785124 34.6563 0.546442C35.1469 0.307759 35.6913 0.224909 36.2247 0.30778C36.7581 0.39065 37.2579 0.635741 37.6645 1.0138C38.071 1.39186 38.3672 1.88692 38.5176 2.43989C38.668 2.99287 38.6663 3.5804 38.5127 4.13237C38.3591 4.68434 38.0601 5.17743 37.6513 5.55279C37.2426 5.92815 36.7413 6.16993 36.2075 6.24927C36.1625 6.15023 36.0859 6.07166 35.9914 6.02777C35.8969 5.98387 35.7908 5.97756 35.6924 6.00997C35.5939 6.04238 35.5095 6.11137 35.4545 6.20445C35.3996 6.29754 35.3776 6.40858 35.3926 6.51748C35.4076 6.62639 35.4586 6.72596 35.5363 6.79818C35.6141 6.87041 35.7134 6.91052 35.8165 6.91126C35.9195 6.912 36.0194 6.87331 36.098 6.80221C36.1767 6.7311 36.2289 6.63227 36.2453 6.5236C36.9778 6.41323 37.6485 6.02416 38.1341 5.42787C38.6198 4.83158 38.8877 4.06812 38.8887 3.27772Z" fill="#292A2E"/>
</g>
<path d="M11.0865 100.522C11.0694 100.522 11.0525 100.518 11.0368 100.511C11.021 100.504 11.0067 100.494 10.9947 100.481C10.8118 100.286 10.5136 96.7006 9.71057 86.0264C9.382 81.6588 9.07162 77.5334 8.84509 75.0263C8.82899 74.8472 8.76396 74.8264 8.74267 74.8196C8.43254 74.7197 7.48969 75.5139 6.96329 76.2096C6.95257 76.2238 6.93934 76.2355 6.92436 76.2442C6.90938 76.2529 6.89293 76.2584 6.87597 76.2603C6.85901 76.2623 6.84187 76.2606 6.82551 76.2554C6.80915 76.2503 6.79391 76.2417 6.78064 76.2303C6.76738 76.2188 6.75636 76.2047 6.74821 76.1887C6.74006 76.1727 6.73494 76.1551 6.73314 76.137C6.73135 76.1188 6.73291 76.1005 6.73774 76.0831C6.74257 76.0656 6.75058 76.0493 6.7613 76.0351C7.10946 75.5752 8.24405 74.3696 8.81731 74.5539C8.93284 74.5911 9.07629 74.6984 9.1029 74.9997C9.32956 77.509 9.64008 81.6355 9.96877 86.0042C10.4567 92.4907 11.0095 99.8392 11.1912 100.302C11.2051 100.323 11.2134 100.347 11.2152 100.372C11.217 100.398 11.2122 100.423 11.2014 100.446C11.1906 100.469 11.1742 100.488 11.1539 100.501C11.1336 100.514 11.1103 100.521 11.0865 100.522Z" fill="#494949"/>
<path d="M8.51179 79.6263C10.6659 77.7815 11.3799 74.9102 10.1065 73.213C8.83307 71.5158 6.05451 71.6354 3.90038 73.4801C1.74626 75.3249 1.0323 78.1962 2.3057 79.8934C3.5791 81.5906 6.35766 81.471 8.51179 79.6263Z" fill="#0CBC8B"/>
<path opacity="0.2" d="M8.51179 79.6263C10.6659 77.7815 11.3799 74.9102 10.1065 73.213C8.83307 71.5158 6.05451 71.6354 3.90038 73.4801C1.74626 75.3249 1.0323 78.1962 2.3057 79.8934C3.5791 81.5906 6.35766 81.471 8.51179 79.6263Z" fill="white"/>
<path d="M2.90913 80.3247C2.894 80.3248 2.87933 80.3192 2.86772 80.3088C2.85462 80.2971 2.84637 80.2803 2.84477 80.2621C2.84317 80.2439 2.84833 80.2258 2.85916 80.2117L8.99823 72.3024C9.00368 72.2954 9.01036 72.2896 9.01791 72.2854C9.02545 72.2811 9.03371 72.2785 9.0422 72.2776C9.05069 72.2768 9.05926 72.2777 9.0674 72.2804C9.07555 72.2831 9.08312 72.2875 9.08969 72.2933C9.09625 72.2992 9.10168 72.3063 9.10566 72.3144C9.10963 72.3224 9.11209 72.3312 9.11288 72.3403C9.11367 72.3494 9.11278 72.3585 9.11026 72.3672C9.10774 72.3759 9.10364 72.384 9.09819 72.391L2.95976 80.2998C2.95359 80.3077 2.94584 80.314 2.93708 80.3184C2.92833 80.3227 2.91878 80.3249 2.90913 80.3247Z" fill="white"/>
<path d="M12.4249 98.8254C12.4042 98.8254 12.3838 98.8201 12.3654 98.8099C12.347 98.7997 12.3311 98.785 12.3191 98.767C12.3072 98.749 12.2994 98.7281 12.2965 98.7062C12.2935 98.6843 12.2956 98.6619 12.3024 98.6411L14.6084 91.5559C14.6763 91.3477 14.792 91.1611 14.9449 91.013C15.0978 90.865 15.283 90.7604 15.4836 90.7087C15.6842 90.6569 15.8937 90.6598 16.093 90.717C16.2922 90.7742 16.4749 90.8839 16.6242 91.036L17.8434 92.2802C17.8683 92.3056 17.8828 92.3406 17.8836 92.3774C17.8843 92.4142 17.8714 92.4498 17.8476 92.4764C17.8238 92.503 17.7911 92.5184 17.7567 92.5193C17.7223 92.5201 17.6889 92.5063 17.664 92.4809L16.4449 91.2366C16.327 91.1165 16.1828 91.0299 16.0255 90.9847C15.8682 90.9396 15.7028 90.9373 15.5445 90.9781C15.3861 91.019 15.2399 91.1016 15.1192 91.2184C14.9985 91.3353 14.9071 91.4826 14.8535 91.647L12.5476 98.7324C12.5387 98.7596 12.5221 98.7832 12.5002 98.7998C12.4782 98.8165 12.4519 98.8254 12.4249 98.8254Z" fill="#494949"/>
<path d="M21.2498 96.2025C22.8462 94.8525 22.7513 91.8833 21.0379 89.5706C19.3244 87.258 16.6413 86.4776 15.0448 87.8276C13.4484 89.1776 13.5433 92.1468 15.2568 94.4594C16.9702 96.7721 19.6533 97.5525 21.2498 96.2025Z" fill="#0CBC8B"/>
<path d="M10.0386 100.069C10.0094 100.069 9.9811 100.059 9.95821 100.039C9.93532 100.02 9.91919 99.9931 9.91242 99.9628L6.0425 82.676C6.01603 82.5582 5.95967 82.4504 5.87961 82.3646C5.79956 82.2788 5.69892 82.2183 5.58874 82.1896C5.47856 82.1609 5.36312 82.1653 5.25511 82.2021C5.14709 82.239 5.05068 82.307 4.97646 82.3986L3.78347 83.8715C3.77236 83.8854 3.75878 83.8969 3.7435 83.9052C3.72822 83.9136 3.71155 83.9186 3.69445 83.92C3.67734 83.9214 3.66015 83.9192 3.64386 83.9134C3.62757 83.9077 3.6125 83.8985 3.59953 83.8866C3.58657 83.8746 3.57595 83.8599 3.5683 83.8435C3.56066 83.8271 3.55613 83.8093 3.55498 83.791C3.55383 83.7727 3.55609 83.7544 3.56161 83.737C3.56714 83.7197 3.57583 83.7036 3.58719 83.6899L4.78005 82.2172C4.88555 82.0869 5.02262 81.9903 5.1762 81.9379C5.32977 81.8855 5.4939 81.8794 5.65052 81.9202C5.80714 81.9611 5.95018 82.0473 6.06391 82.1693C6.17764 82.2914 6.25764 82.4446 6.29512 82.6122L10.1645 99.8983C10.1725 99.9341 10.1669 99.9718 10.1489 100.003C10.1309 100.034 10.1019 100.057 10.0685 100.065C10.0587 100.068 10.0487 100.069 10.0386 100.069Z" fill="#494949"/>
<path d="M8.61156 87.7119C9.08199 84.8056 7.83699 82.1491 5.83077 81.7784C3.82456 81.4078 1.81684 83.4634 1.34641 86.3697C0.875986 89.276 2.12099 91.9325 4.1272 92.3032C6.13341 92.6738 8.14113 90.6183 8.61156 87.7119Z" fill="#0CBC8B"/>
<path d="M11.0861 100.521C11.0807 100.521 11.0754 100.521 11.0701 100.52C11.0532 100.518 11.0368 100.512 11.022 100.503C11.0071 100.494 10.9941 100.482 10.9836 100.468C10.9731 100.454 10.9653 100.437 10.9608 100.42C10.9562 100.402 10.9549 100.384 10.957 100.366L13.4283 78.9297C13.4552 78.6962 13.5447 78.476 13.686 78.2955C13.8273 78.115 14.0143 77.982 14.2247 77.9124C14.435 77.8427 14.6597 77.8395 14.8718 77.9031C15.0838 77.9666 15.2742 78.0942 15.4199 78.2705L18.2444 81.6882C18.2557 81.7019 18.2644 81.7178 18.2699 81.735C18.2755 81.7523 18.2778 81.7705 18.2767 81.7887C18.2756 81.8069 18.2712 81.8247 18.2637 81.841C18.2562 81.8574 18.2458 81.872 18.233 81.8841C18.2202 81.8961 18.2054 81.9054 18.1892 81.9113C18.1731 81.9172 18.156 81.9197 18.139 81.9185C18.122 81.9174 18.1053 81.9127 18.09 81.9047C18.0747 81.8967 18.061 81.8855 18.0497 81.8719L15.2252 78.4542C15.1126 78.3179 14.9655 78.2192 14.8016 78.1701C14.6377 78.121 14.464 78.1235 14.3015 78.1773C14.1389 78.2311 13.9943 78.3339 13.8851 78.4734C13.7759 78.6129 13.7068 78.7831 13.686 78.9636L11.2148 100.399C11.2111 100.433 11.196 100.464 11.1722 100.486C11.1485 100.509 11.1178 100.521 11.0861 100.521Z" fill="#494949"/>
<path d="M21.1416 83.588C22.1271 81.6847 20.9676 78.9843 18.5518 77.5567C16.136 76.1291 13.3787 76.5147 12.3933 78.4181C11.4078 80.3215 12.5673 83.0218 14.9831 84.4495C17.3989 85.8771 20.1562 85.4914 21.1416 83.588Z" fill="#0CBC8B"/>
<path opacity="0.2" d="M21.2498 96.2025C22.8462 94.8525 22.7513 91.8833 21.0379 89.5706C19.3244 87.258 16.6413 86.4776 15.0448 87.8276C13.4484 89.1776 13.5433 92.1468 15.2568 94.4594C16.9702 96.7721 19.6533 97.5525 21.2498 96.2025Z" fill="white"/>
<path opacity="0.5" d="M8.61156 87.7119C9.08199 84.8056 7.83699 82.1491 5.83077 81.7784C3.82456 81.4078 1.81684 83.4634 1.34641 86.3697C0.875986 89.276 2.12099 91.9325 4.1272 92.3032C6.13341 92.6738 8.14113 90.6183 8.61156 87.7119Z" fill="white"/>
<path opacity="0.5" d="M21.1416 83.588C22.1271 81.6847 20.9676 78.9843 18.5518 77.5567C16.136 76.1291 13.3787 76.5147 12.3933 78.4181C11.4078 80.3215 12.5673 83.0218 14.9831 84.4495C17.3989 85.8771 20.1562 85.4914 21.1416 83.588Z" fill="white"/>
<path d="M14.2475 118.709H7.92589L6.87842 97.1003H15.295L14.2475 118.709Z" fill="#292A2E"/>
<path opacity="0.3" d="M14.2475 118.709H7.92589L6.87842 97.1003H15.295L14.2475 118.709Z" fill="white"/>
<path d="M21.2496 96.2719C21.2398 96.2719 21.2301 96.2696 21.2213 96.265C21.2125 96.2604 21.2047 96.2538 21.1987 96.2456L14.9935 87.8707C14.9882 87.8636 14.9843 87.8554 14.982 87.8466C14.9796 87.8379 14.9789 87.8287 14.9799 87.8197C14.9809 87.8106 14.9835 87.8019 14.9877 87.7939C14.9918 87.786 14.9974 87.7789 15.0041 87.7733C15.0108 87.7676 15.0184 87.7634 15.0266 87.7609C15.0348 87.7585 15.0434 87.7577 15.0519 87.7588C15.0604 87.7598 15.0686 87.7626 15.076 87.7671C15.0834 87.7715 15.09 87.7775 15.0953 87.7846L21.3004 96.1595C21.308 96.1697 21.3128 96.182 21.3141 96.1949C21.3155 96.2079 21.3134 96.221 21.3081 96.2328C21.3027 96.2445 21.2944 96.2544 21.2841 96.2614C21.2737 96.2683 21.2618 96.2719 21.2496 96.2719Z" fill="white"/>
<path d="M20.7291 84.2586C20.715 84.2586 20.7014 84.2538 20.6901 84.2448L12.7505 78.0512C12.7436 78.0458 12.7378 78.039 12.7334 78.0313C12.7289 78.0235 12.726 78.0149 12.7247 78.0059C12.7233 77.9968 12.7237 77.9877 12.7257 77.9788C12.7277 77.9699 12.7313 77.9616 12.7364 77.9542C12.7414 77.9469 12.7477 77.9407 12.755 77.9359C12.7623 77.9312 12.7704 77.928 12.7788 77.9266C12.7872 77.9252 12.7958 77.9256 12.8041 77.9277C12.8124 77.9299 12.8202 77.9338 12.8271 77.9391L20.7674 84.1334C20.7782 84.1421 20.7863 84.1542 20.7903 84.168C20.7944 84.1818 20.7943 84.1967 20.7901 84.2105C20.7859 84.2242 20.7777 84.2363 20.7668 84.2448C20.7558 84.2534 20.7426 84.2581 20.7291 84.2582V84.2586Z" fill="white"/>
<path d="M3.8044 92.2124C3.79875 92.2124 3.79312 92.2116 3.78765 92.21C3.77102 92.2053 3.75684 92.1937 3.74822 92.1778C3.73961 92.1619 3.73726 92.1429 3.7417 92.1252L6.26932 82.0074C6.27413 81.9901 6.28506 81.9755 6.2998 81.9666C6.31453 81.9578 6.33191 81.9555 6.34824 81.9601C6.36457 81.9647 6.37856 81.976 6.38724 81.9915C6.39592 82.007 6.39861 82.0255 6.39473 82.043L3.86775 92.161C3.86403 92.1758 3.85579 92.1889 3.84432 92.1983C3.83285 92.2076 3.81881 92.2126 3.8044 92.2124Z" fill="white"/>
<path d="M110.594 41.1645L110.959 40.8433C111.074 40.738 111.147 40.5902 111.163 40.4296C111.18 40.2689 111.139 40.1076 111.049 39.978C111 39.9129 110.939 39.8591 110.87 39.8198C110.801 39.7806 110.726 39.7568 110.648 39.7499C110.57 39.743 110.492 39.7531 110.417 39.7796C110.343 39.8061 110.275 39.8485 110.217 39.9041L105.885 44.0125L107.083 45.529C107.454 46 107.95 46.3416 108.504 46.51C109.059 46.6784 109.649 46.6659 110.197 46.4742L112.678 45.6011C112.808 45.5584 112.92 45.4691 112.995 45.3484C113.071 45.2276 113.104 45.0827 113.091 44.9383C113.057 44.6539 110.594 41.1645 110.594 41.1645Z" fill="#E98862"/>
<path d="M108.005 41.1962L96.0549 45.1522L88.7677 31.9639L82.542 35.8531L91.7286 51.7145L91.7869 51.7939C92.2685 52.4322 92.9245 52.8941 93.6634 53.1153C94.4023 53.3366 95.1875 53.3061 95.9094 53.0282L110.154 47.5159L108.005 41.1962Z" fill="#367CFF"/>
<path d="M115.298 110.598L105.335 111.099L101.492 41.2118L111.456 40.7117L115.298 110.598Z" fill="#367CFF"/>
<path opacity="0.5" d="M115.298 110.598L105.335 111.099L101.492 41.2118L111.456 40.7117L115.298 110.598Z" fill="white"/>
<path d="M111.117 33.0112L101.154 33.5115L101.493 41.2113L111.456 40.711L111.117 33.0112Z" fill="#262626"/>
<path d="M115.299 110.599C115.299 110.599 113.932 113.135 112.7 115.402C111.723 117.201 110.83 118.831 110.773 118.892C110.714 118.955 109.6 117.373 108.396 115.619C106.933 113.487 105.335 111.099 105.335 111.099L115.299 110.599Z" fill="#367CFF"/>
<path opacity="0.9" d="M115.299 110.599C115.299 110.599 113.932 113.135 112.7 115.402C111.723 117.201 110.83 118.831 110.773 118.892C110.714 118.955 109.6 117.373 108.396 115.619C106.933 113.487 105.335 111.099 105.335 111.099L115.299 110.599Z" fill="white"/>
<path d="M112.7 115.403C111.723 117.201 110.831 118.831 110.773 118.892C110.714 118.955 109.601 117.373 108.396 115.619L112.7 115.403Z" fill="#262626"/>
<path d="M112.195 110.734L108.177 40.8904L108.632 40.866L112.65 110.71L112.195 110.734Z" fill="white"/>
<path d="M108.297 110.932L104.279 41.0879L104.733 41.0635L108.751 110.907L108.297 110.932Z" fill="white"/>
<path d="M109.957 44.4235C109.957 44.2893 109.998 44.1587 110.073 44.0517C110.149 43.9446 110.255 43.8668 110.376 43.8303C110.372 43.8204 110.355 43.7998 110.371 43.7928L109.898 43.7033C109.758 43.6801 109.631 43.6036 109.539 43.4879C109.448 43.3722 109.399 43.225 109.401 43.0737C109.408 42.9244 109.467 42.7831 109.566 42.6773C109.664 42.5714 109.797 42.5085 109.936 42.5008C109.933 42.496 109.934 42.4892 109.932 42.4833L109.738 42.4465C109.606 42.424 109.485 42.3537 109.396 42.2473C109.308 42.1408 109.256 42.0049 109.25 41.8624C109.248 41.773 109.265 41.6843 109.299 41.6026C109.333 41.521 109.384 41.4484 109.447 41.3901C109.511 41.3319 109.586 41.2894 109.666 41.2658C109.747 41.2422 109.832 41.238 109.914 41.2536L110.363 41.3385C110.363 41.3358 110.361 41.3339 110.361 41.3313C110.362 41.3286 110.365 41.326 110.366 41.3229C110.248 41.27 110.15 41.1757 110.089 41.0556C110.028 40.9355 110.006 40.7967 110.029 40.6619C110.065 40.3102 110.454 40.1793 110.744 40.2342L111.646 40.4839C111.785 40.5223 111.913 40.5969 112.018 40.7009C112.124 40.8049 112.204 40.9352 112.251 41.0802C112.659 42.3354 113.652 45.6405 112.725 45.4652L110.445 45.0336C110.312 45.0043 110.192 44.9284 110.103 44.8179C110.015 44.7074 109.963 44.5687 109.957 44.4235Z" fill="#E98862"/>
<path d="M72.0666 19.0135C72.0666 19.0135 70.723 17.7711 70.5371 15.1192C70.3931 13.0666 72.0666 14.509 72.0666 14.509C72.0666 14.509 71.9764 13.0295 72.9668 13.2469C73.9573 13.4644 74.4208 15.0446 74.4208 15.0446" fill="#0C0C0C"/>
<path d="M78.1248 13.7888C78.1248 13.7888 83.0512 14.7123 80.8069 21.7674H79.4705" fill="#0C0C0C"/>
<path d="M81.6429 110.304C81.6429 110.304 83.2194 113.148 81.2029 115.3C79.1863 117.451 81.151 118.825 81.151 118.825L89.2863 111.123L85.684 106.78L81.6429 110.304Z" fill="#367CFF"/>
<path d="M67.8004 54.2337C67.8004 54.2337 66.8843 82.4527 67.0007 83.8299C67.4413 89.0395 81.7916 112.646 81.7916 112.646L87.1351 107.771L80.3115 93.0049L75.9977 82.7142C75.9977 82.7142 76.7402 73.8637 78.7418 65.6453C79.7659 61.4273 80.3823 57.1082 80.5812 52.7559L67.8004 54.2337Z" fill="#262626"/>
<path d="M81.3799 112.803C81.3799 112.803 80.7938 116.048 77.9492 116.23C75.1045 116.411 75.7218 118.832 75.7218 118.832H86.5924V113.029L81.3799 112.803Z" fill="#367CFF"/>
<path d="M87.3283 53.5923C87.3283 53.5923 87.2942 52.6166 87.3015 54.8299C87.3283 63.0859 87.0709 114.874 87.0709 114.874L79.9277 114.81L75.6006 53.2563L87.3283 53.5923Z" fill="#262626"/>
<path d="M77.0684 74.2395L76.4825 64.6687C76.4825 64.6687 75.8809 68.6475 75.8809 72.077C75.8809 73.7534 76.2041 80.3903 76.2041 80.3903L77.0684 74.2395Z" fill="#0A0A0A"/>
<path d="M78.0208 87.5399L79.5067 108.815L78.1158 106.424L76.6941 84.3755L78.0208 87.5399Z" fill="#0A0A0A"/>
<path d="M72.5764 29.1019C72.5982 29.0989 72.8408 33.4 77.5179 33.0252C80.7558 32.766 81.9102 29.0958 81.9845 29.0958C81.6354 29.0166 81.2039 28.8963 81.0324 28.8551C80.6588 28.7624 80.3204 28.5504 80.0622 28.2472C79.8041 27.944 79.6385 27.5641 79.5875 27.1579C79.4927 26.5477 79.6534 23.4291 79.6039 22.8123L74.6339 23.9975C74.7032 25.3002 75.1893 28.3204 73.4858 28.8551C73.2023 28.9434 72.8969 29.0247 72.5764 29.1019Z" fill="#E98862"/>
<path opacity="0.52" d="M74.5647 27.6207C74.6425 27.3526 74.6926 27.0763 74.7141 26.7966C74.7688 26.1583 74.7579 25.5155 74.6817 24.8798C75.6919 24.7341 76.6436 24.2886 77.4287 23.594C77.521 23.9582 78.0284 25.5495 77.888 25.8953C77.6224 26.5495 76.3741 27.6207 74.5647 27.6207Z" fill="#0C0C0C"/>
<path d="M75.4466 26.5815C77.4149 26.534 79.8391 25.3811 80.0509 22.5463L80.242 19.9885C80.4537 17.1537 79.2317 14.7369 76.7334 14.5242C74.235 14.3111 72.196 16.45 71.9844 19.2848L71.8998 20.4172C71.8771 20.8065 71.8793 21.197 71.9063 21.586C71.9712 22.6148 72.0722 24.1795 72.6541 25.2742C73.2034 26.3077 74.1892 26.6117 75.4466 26.5815Z" fill="#E98862"/>
<path opacity="0.52" d="M74.7019 23.924C74.297 23.9146 73.8998 23.8037 73.5423 23.6001C73.5347 23.5963 73.5278 23.5908 73.5222 23.5841C73.5166 23.5774 73.5122 23.5695 73.5095 23.5609C73.5068 23.5524 73.5057 23.5434 73.5063 23.5343C73.5069 23.5253 73.5091 23.5165 73.513 23.5085C73.5168 23.5004 73.5221 23.4933 73.5286 23.4875C73.535 23.4816 73.5425 23.4773 73.5506 23.4746C73.5586 23.4719 73.5671 23.471 73.5756 23.4719C73.584 23.4728 73.5921 23.4754 73.5996 23.4798C74.3709 23.8983 75.0953 23.8971 75.6942 23.4759C75.7063 23.4669 75.7188 23.4587 75.7318 23.4512C75.7468 23.4433 75.7642 23.4422 75.7801 23.448C75.796 23.4538 75.809 23.4662 75.8164 23.4823C75.8238 23.4984 75.8248 23.517 75.8194 23.5339C75.8139 23.5509 75.8024 23.5648 75.7873 23.5727C75.7825 23.5755 75.7743 23.5811 75.7638 23.5888C75.449 23.8109 75.0792 23.9276 74.7019 23.924Z" fill="#0C0C0C"/>
<path opacity="0.52" d="M74.68 24.5638C74.607 24.5634 74.5342 24.5563 74.4623 24.5426C74.4458 24.5395 74.4311 24.5296 74.4214 24.5149C74.4118 24.5003 74.408 24.4821 74.4108 24.4645C74.4137 24.4468 74.423 24.4311 74.4368 24.4208C74.4505 24.4105 74.4675 24.4064 74.484 24.4095C74.9178 24.4905 75.1398 24.2915 75.1492 24.2829C75.1618 24.271 75.1783 24.2651 75.195 24.2663C75.2118 24.2674 75.2274 24.2757 75.2384 24.2892C75.2495 24.3026 75.2551 24.3203 75.2539 24.3381C75.2528 24.356 75.2451 24.3727 75.2325 24.3845C75.0733 24.5108 74.8781 24.5742 74.68 24.5638Z" fill="#0C0C0C"/>
<path d="M72.725 20.6076C72.8954 20.6076 73.0337 20.4599 73.0337 20.2778C73.0337 20.0957 72.8954 19.948 72.725 19.948C72.5545 19.948 72.4163 20.0957 72.4163 20.2778C72.4163 20.4599 72.5545 20.6076 72.725 20.6076Z" fill="#0C0C0C"/>
<path d="M75.5863 20.6281C75.7568 20.6281 75.895 20.4805 75.895 20.2983C75.895 20.1162 75.7568 19.9685 75.5863 19.9685C75.4158 19.9685 75.2776 20.1162 75.2776 20.2983C75.2776 20.4805 75.4158 20.6281 75.5863 20.6281Z" fill="#0C0C0C"/>
<path d="M79.8312 23.3967C80.5905 23.4613 81.2707 22.6461 81.3313 21.8349C81.3919 21.0237 80.8099 20.524 80.0506 20.4592L79.6188 20.9696L79.1785 23.3412L79.8312 23.3967Z" fill="#E98862"/>
<path d="M66.7655 38.5713C66.9129 40.4203 67.6296 51.9562 67.7711 54.2338H87.2917C87.4019 52.1796 87.8972 43.1975 88.3153 39.1806C88.7145 35.3475 89.4977 33.2898 88.9235 32.1566C87.9854 30.3045 85.4223 29.373 83.6744 29.1201C82.6071 28.9659 81.0018 28.8552 81.0018 28.8552C81.0018 28.8552 80.866 31.7927 77.625 31.9562C73.2132 32.1781 73.5078 28.8552 73.4859 28.8552C71.8842 28.8552 68.8527 29.2646 67.6894 30.1098C65.0734 32.0103 66.4528 34.653 66.7655 38.5713Z" fill="#367CFF"/>
<path d="M79.1565 22.038C79.1565 22.038 79.1517 18.0051 78.0271 17.6755C77.2786 17.4561 75.3659 18.4744 73.6834 18.0051C72.9472 17.7997 72.2268 17.9463 72.1312 18.3174C72.0934 18.4644 71.7632 16.2898 73.0329 14.7482C74.0437 13.521 77.1091 13.3734 78.4672 13.8968C82.2265 15.346 80.195 20.6474 80.195 20.6474L79.9372 22.0193L79.1565 22.038Z" fill="#0C0C0C"/>
<g opacity="0.52">
<path d="M74.3013 22.9428H74.2965C74.0518 22.9227 73.6434 22.8596 73.6573 22.664C73.6693 22.502 74.2107 20.787 74.2725 20.592C74.2751 20.5837 74.2793 20.576 74.2847 20.5694C74.2901 20.5629 74.2966 20.5575 74.304 20.5536C74.3113 20.5497 74.3193 20.5474 74.3275 20.5468C74.3357 20.5462 74.3439 20.5473 74.3517 20.5501C74.3595 20.5529 74.3667 20.5574 74.3728 20.5631C74.379 20.5689 74.3841 20.5759 74.3877 20.5838C74.3914 20.5916 74.3935 20.6002 74.3941 20.6089C74.3946 20.6177 74.3935 20.6264 74.3909 20.6347C74.1505 21.3943 73.7901 22.5643 73.7821 22.6743C73.8027 22.7226 74.0527 22.7887 74.306 22.8097C74.322 22.8112 74.3368 22.8192 74.3474 22.8321C74.358 22.8449 74.3635 22.8616 74.3629 22.8787C74.3623 22.8958 74.3556 22.9121 74.3441 22.924C74.3327 22.936 74.3174 22.9428 74.3013 22.9431V22.9428Z" fill="#0C0C0C"/>
</g>
<path d="M73.5927 19.2649C73.4964 19.2217 73.3951 19.1925 73.2915 19.1782C73.1842 19.1623 73.0753 19.1623 72.968 19.1782C72.8601 19.1926 72.7548 19.2245 72.6558 19.2727C72.5548 19.3212 72.4599 19.3831 72.3733 19.4568L72.3664 19.4624C72.3441 19.48 72.3162 19.4878 72.2886 19.484C72.261 19.4803 72.2358 19.4653 72.2183 19.4423C72.2007 19.4192 72.1922 19.3898 72.1944 19.3602C72.1967 19.3305 72.2095 19.303 72.2303 19.2832C72.3262 19.188 72.433 19.106 72.5482 19.0394C72.665 18.9711 72.7908 18.922 72.9213 18.8936C73.1876 18.8337 73.4642 18.8521 73.7216 18.9467C73.7417 18.9543 73.7603 18.9661 73.7761 18.9813C73.792 18.9965 73.805 19.0149 73.8142 19.0355C73.8234 19.0561 73.8287 19.0784 73.8299 19.1012C73.831 19.1239 73.828 19.1467 73.8209 19.1682C73.8138 19.1897 73.8028 19.2095 73.7886 19.2265C73.7743 19.2435 73.7571 19.2573 73.7378 19.2671C73.7185 19.277 73.6977 19.2827 73.6764 19.2839C73.655 19.2852 73.6337 19.2819 73.6136 19.2743C73.6097 19.2728 73.6059 19.2713 73.6022 19.2695L73.5927 19.2649Z" fill="#0C0C0C"/>
<path d="M75.4048 18.9746C75.5345 18.926 75.67 18.8974 75.8072 18.8897C75.9406 18.8809 76.0745 18.8916 76.2051 18.9215C76.3356 18.9499 76.4613 18.999 76.5781 19.0673C76.6932 19.134 76.8001 19.216 76.896 19.3114C76.9172 19.3309 76.9305 19.3586 76.933 19.3884C76.9354 19.4182 76.927 19.4479 76.9093 19.4712C76.8917 19.4945 76.8663 19.5096 76.8385 19.5132C76.8106 19.5168 76.7826 19.5088 76.7602 19.4907L76.7529 19.4849C76.6664 19.4111 76.5715 19.3492 76.4705 19.3007C76.3717 19.2525 76.2666 19.2206 76.1589 19.2061C76.0516 19.1902 75.9428 19.1902 75.8355 19.2061C75.7319 19.2204 75.6306 19.2496 75.5342 19.2928L75.5252 19.2971C75.5056 19.3063 75.4846 19.3113 75.4633 19.3119C75.4419 19.3124 75.4207 19.3085 75.4008 19.3002C75.3809 19.292 75.3627 19.2797 75.3472 19.2639C75.3318 19.2482 75.3194 19.2294 75.3108 19.2085C75.3021 19.1877 75.2974 19.1652 75.2969 19.1424C75.2964 19.1196 75.3001 19.0969 75.3078 19.0757C75.3155 19.0544 75.327 19.0349 75.3418 19.0184C75.3565 19.0019 75.3741 18.9887 75.3936 18.9795C75.3972 18.9778 75.4009 18.976 75.4048 18.9746Z" fill="#0C0C0C"/>
<path d="M75.6684 14.9555C75.8969 14.0834 75.6325 13.242 75.078 13.0762C74.5234 12.9104 73.8887 13.483 73.6602 14.355C73.4318 15.2271 73.6961 16.0685 74.2507 16.2343C74.8052 16.4001 75.44 15.8276 75.6684 14.9555Z" fill="#0C0C0C"/>
<path d="M66.0052 57.2471C66.0858 57.2176 66.1592 57.1693 66.2202 57.1058C66.2812 57.0424 66.3283 56.9652 66.358 56.8799C66.3877 56.7946 66.3993 56.7034 66.392 56.6127C66.3847 56.5221 66.3587 56.4343 66.3157 56.3557L66.6922 57.0438C66.7659 57.1849 66.8869 57.2909 67.0308 57.3404C67.1748 57.3899 67.331 57.3792 67.4679 57.3104C67.5373 57.2723 67.5988 57.2194 67.6485 57.1551C67.6982 57.0907 67.7351 57.0162 67.757 56.9361C67.7789 56.856 67.7852 56.7719 67.7757 56.6891C67.7662 56.6063 67.7409 56.5264 67.7015 56.4543L67.8717 56.7658C67.9382 56.8923 68.0435 56.9904 68.1698 57.0434C68.2961 57.0965 68.4358 57.1013 68.565 57.0571C68.6456 57.0275 68.719 56.9793 68.78 56.9158C68.841 56.8523 68.8881 56.7751 68.9178 56.6898C68.9475 56.6046 68.9591 56.5133 68.9518 56.4226C68.9445 56.332 68.9185 56.2442 68.8756 56.1656L68.577 55.6201C68.6539 55.7608 68.7799 55.8631 68.9274 55.9044C69.0749 55.9458 69.2317 55.9229 69.3634 55.8408C69.6651 55.6802 69.6451 55.2375 69.494 54.9608L68.9328 53.8442L69.3036 54.1578C69.424 54.2555 69.5747 54.3007 69.7252 54.2844C69.8757 54.268 70.0147 54.1912 70.1143 54.0696C70.1636 54.0048 70.2 53.9301 70.2214 53.8498C70.2428 53.7695 70.2486 53.6855 70.2386 53.6027C70.2285 53.5199 70.2028 53.4402 70.163 53.3684C70.1231 53.2967 70.07 53.2343 70.0069 53.1852L66.6339 50.9126L64.2002 51.0955C63.8475 51.5831 63.6391 52.1721 63.6018 52.787C63.5644 53.4019 63.6998 54.0148 63.9906 54.5469L65.3119 56.9551C65.3782 57.0817 65.4835 57.1799 65.6099 57.2331C65.7362 57.2863 65.8759 57.2912 66.0052 57.2471Z" fill="#E98862"/>
<path d="M68.1969 54.9384C68.1955 54.925 68.1985 54.9115 68.2054 54.9003C68.2123 54.889 68.2227 54.8807 68.2347 54.8768C68.2468 54.8729 68.2597 54.8735 68.2714 54.8787C68.283 54.8839 68.2925 54.8933 68.2984 54.9052L68.67 55.6615C68.6733 55.6682 68.6754 55.6755 68.676 55.6831C68.6767 55.6906 68.6759 55.6982 68.6738 55.7055C68.6717 55.7127 68.6683 55.7194 68.6637 55.7253C68.6592 55.7311 68.6536 55.7359 68.6473 55.7394C68.641 55.7429 68.6342 55.7451 68.6271 55.7458C68.62 55.7465 68.6129 55.7457 68.6061 55.7434C68.5994 55.7412 68.5931 55.7375 68.5876 55.7327C68.5822 55.7278 68.5777 55.7219 68.5744 55.7151L68.2027 54.9589C68.1997 54.9524 68.1977 54.9455 68.1969 54.9384Z" fill="#E98862"/>
<path d="M67.1961 55.5012C67.1948 55.4879 67.1979 55.4746 67.2048 55.4634C67.2117 55.4523 67.222 55.444 67.2339 55.4401C67.2459 55.4361 67.2587 55.4367 67.2703 55.4417C67.2819 55.4468 67.2915 55.4559 67.2975 55.4677L67.8149 56.501C67.8183 56.5077 67.8203 56.515 67.821 56.5226C67.8217 56.5301 67.821 56.5377 67.819 56.545C67.8169 56.5523 67.8136 56.559 67.8091 56.5649C67.8046 56.5707 67.799 56.5756 67.7928 56.5792C67.7865 56.5828 67.7797 56.585 67.7726 56.5857C67.7655 56.5865 67.7584 56.5857 67.7516 56.5835C67.7448 56.5813 67.7385 56.5777 67.733 56.5729C67.7275 56.5681 67.723 56.5622 67.7196 56.5555L67.2022 55.5222C67.1989 55.5157 67.1968 55.5086 67.1961 55.5012Z" fill="#E98862"/>
<path d="M66.109 56.1041C66.1076 56.0906 66.1106 56.0771 66.1177 56.0658C66.1247 56.0546 66.1351 56.0463 66.1473 56.0424C66.1594 56.0386 66.1724 56.0394 66.1841 56.0448C66.1957 56.0501 66.2052 56.0597 66.2109 56.0718L66.4445 56.5659C66.451 56.5796 66.4521 56.5954 66.4477 56.61C66.4432 56.6246 66.4335 56.6366 66.4207 56.6435C66.4079 56.6504 66.3931 56.6516 66.3795 56.6469C66.3659 56.6421 66.3546 56.6317 66.3481 56.6181L66.1144 56.1238C66.1115 56.1176 66.1097 56.111 66.109 56.1041Z" fill="#E98862"/>
<path opacity="0.2" d="M68.1969 54.9384C68.1955 54.925 68.1985 54.9115 68.2054 54.9003C68.2123 54.889 68.2227 54.8807 68.2347 54.8768C68.2468 54.8729 68.2597 54.8735 68.2714 54.8787C68.283 54.8839 68.2925 54.8933 68.2984 54.9052L68.67 55.6615C68.6733 55.6682 68.6754 55.6755 68.676 55.6831C68.6767 55.6906 68.6759 55.6982 68.6738 55.7055C68.6717 55.7127 68.6683 55.7194 68.6637 55.7253C68.6592 55.7311 68.6536 55.7359 68.6473 55.7394C68.641 55.7429 68.6342 55.7451 68.6271 55.7458C68.62 55.7465 68.6129 55.7457 68.6061 55.7434C68.5994 55.7412 68.5931 55.7375 68.5876 55.7327C68.5822 55.7278 68.5777 55.7219 68.5744 55.7151L68.2027 54.9589C68.1997 54.9524 68.1977 54.9455 68.1969 54.9384Z" fill="#0C0C0C"/>
<path opacity="0.2" d="M67.1961 55.5012C67.1948 55.4879 67.1979 55.4746 67.2048 55.4634C67.2117 55.4523 67.222 55.444 67.2339 55.4401C67.2459 55.4361 67.2587 55.4367 67.2703 55.4417C67.2819 55.4468 67.2915 55.4559 67.2975 55.4677L67.8149 56.501C67.8183 56.5077 67.8203 56.515 67.821 56.5226C67.8217 56.5301 67.821 56.5377 67.819 56.545C67.8169 56.5523 67.8136 56.559 67.8091 56.5649C67.8046 56.5707 67.799 56.5756 67.7928 56.5792C67.7865 56.5828 67.7797 56.585 67.7726 56.5857C67.7655 56.5865 67.7584 56.5857 67.7516 56.5835C67.7448 56.5813 67.7385 56.5777 67.733 56.5729C67.7275 56.5681 67.723 56.5622 67.7196 56.5555L67.2022 55.5222C67.1989 55.5157 67.1968 55.5086 67.1961 55.5012Z" fill="#0C0C0C"/>
<path opacity="0.2" d="M66.109 56.1041C66.1076 56.0906 66.1106 56.0771 66.1177 56.0658C66.1247 56.0546 66.1351 56.0463 66.1473 56.0424C66.1594 56.0386 66.1724 56.0394 66.1841 56.0448C66.1957 56.0501 66.2052 56.0597 66.2109 56.0718L66.4445 56.5659C66.451 56.5796 66.4521 56.5954 66.4477 56.61C66.4432 56.6246 66.4335 56.6366 66.4207 56.6435C66.4079 56.6504 66.3931 56.6516 66.3795 56.6469C66.3659 56.6421 66.3546 56.6317 66.3481 56.6181L66.1144 56.1238C66.1115 56.1176 66.1097 56.111 66.109 56.1041Z" fill="#0C0C0C"/>
<path d="M71.1436 37.2304C71.1436 37.2304 69.5769 29.383 67.7994 30.0365C66.389 30.5549 55.7932 39.8834 55.4717 40.2216C54.7634 40.9665 54.361 41.9814 54.3531 43.0432C54.3453 44.1049 54.7325 45.1266 55.4296 45.8833L63.6768 55.9646L68.4364 51.1982L62.1777 43.9725L71.1436 37.2304Z" fill="#367CFF"/>
<path d="M66.8729 40.6296C66.8603 40.6295 66.8481 40.6244 66.8389 40.6152C66.8296 40.606 66.8239 40.5934 66.8229 40.5799L66.6134 37.4773C66.6129 37.4703 66.6137 37.4633 66.6158 37.4566C66.6178 37.4499 66.6211 37.4437 66.6254 37.4384C66.6297 37.433 66.6349 37.4287 66.6408 37.4255C66.6467 37.4223 66.6531 37.4204 66.6596 37.4199C66.6662 37.4193 66.6729 37.42 66.6792 37.4222C66.6855 37.4243 66.6914 37.4278 66.6964 37.4324C66.7014 37.437 66.7056 37.4426 66.7085 37.449C66.7115 37.4553 66.7132 37.4622 66.7136 37.4693L66.923 40.5719C66.9235 40.5789 66.9228 40.586 66.9207 40.5926C66.9187 40.5993 66.9154 40.6055 66.9111 40.6109C66.9068 40.6162 66.9016 40.6206 66.8957 40.6237C66.8898 40.6269 66.8834 40.6288 66.8768 40.6293L66.8729 40.6296Z" fill="#0C0C0C"/>
<path d="M87.8731 45.3599H87.8695C87.8563 45.3592 87.8439 45.353 87.835 45.3426C87.826 45.3322 87.8213 45.3185 87.8218 45.3044L88.1683 37.8738C88.1694 37.8597 88.1755 37.8467 88.1853 37.8373C88.195 37.8278 88.2078 37.8227 88.221 37.823C88.2276 37.8233 88.234 37.8251 88.24 37.8281C88.246 37.8311 88.2513 37.8353 88.2557 37.8405C88.2601 37.8458 88.2636 37.8518 88.2658 37.8585C88.268 37.8651 88.269 37.8721 88.2686 37.8792L87.9222 45.3094C87.9214 45.3229 87.916 45.3356 87.9069 45.3449C87.8978 45.3543 87.8857 45.3596 87.8731 45.3599Z" fill="#0C0C0C"/>
<path d="M115.905 119H4.07349C4.04688 119 4.02135 118.989 4.00254 118.969C3.98372 118.949 3.97314 118.921 3.97314 118.893C3.97314 118.864 3.98372 118.837 4.00254 118.817C4.02135 118.797 4.04688 118.786 4.07349 118.786H115.905C115.932 118.786 115.957 118.797 115.976 118.817C115.995 118.837 116.005 118.864 116.005 118.893C116.005 118.921 115.995 118.949 115.976 118.969C115.957 118.989 115.932 119 115.905 119Z" fill="#3F3F3F"/>
</svg>
