<svg width="99" height="119" viewBox="0 0 99 119" fill="none" xmlns="http://www.w3.org/2000/svg">
<path d="M64.5103 91.0969H87.6844L91.1969 94.122V81.3141C91.1969 80.6707 90.9746 80.0536 90.5789 79.5986C90.1832 79.1436 89.6466 78.8879 89.087 78.8879H64.5103C63.9507 78.8879 63.4141 79.1436 63.0184 79.5986C62.6227 80.0536 62.4004 80.6707 62.4004 81.3141V88.6702C62.4003 88.9888 62.4549 89.3044 62.5609 89.5988C62.6669 89.8932 62.8223 90.1607 63.0182 90.386C63.2142 90.6114 63.4468 90.7901 63.7028 90.9121C63.9588 91.0341 64.2332 91.0969 64.5103 91.0969Z" fill="#F4F4F4"/>
<path d="M88.7173 82.288H64.8798C64.857 82.2871 64.8354 82.276 64.8196 82.2571C64.8038 82.2383 64.7949 82.2131 64.7949 82.1869C64.7949 82.1606 64.8038 82.1355 64.8196 82.1166C64.8354 82.0977 64.857 82.0866 64.8798 82.0857H88.7173C88.7401 82.0866 88.7617 82.0977 88.7775 82.1166C88.7934 82.1355 88.8022 82.1606 88.8022 82.1869C88.8022 82.2131 88.7934 82.2383 88.7775 82.2571C88.7617 82.276 88.7401 82.2871 88.7173 82.288Z" fill="white"/>
<path d="M88.7173 85.3239H64.8798C64.857 85.323 64.8354 85.3119 64.8196 85.293C64.8038 85.2742 64.7949 85.249 64.7949 85.2228C64.7949 85.1965 64.8038 85.1713 64.8196 85.1525C64.8354 85.1336 64.857 85.1225 64.8798 85.1216H88.7173C88.7401 85.1225 88.7617 85.1336 88.7775 85.1525C88.7934 85.1713 88.8022 85.1965 88.8022 85.2228C88.8022 85.249 88.7934 85.2742 88.7775 85.293C88.7617 85.3119 88.7401 85.323 88.7173 85.3239Z" fill="white"/>
<path d="M88.7171 88.3597H74.56C74.5366 88.3597 74.5142 88.349 74.4977 88.3301C74.4812 88.3111 74.4719 88.2853 74.4719 88.2585C74.4719 88.2316 74.4812 88.2059 74.4977 88.1869C74.5142 88.1679 74.5366 88.1572 74.56 88.1572H88.7171C88.7405 88.1572 88.7629 88.1679 88.7794 88.1869C88.7959 88.2059 88.8052 88.2316 88.8052 88.2585C88.8052 88.2853 88.7959 88.3111 88.7794 88.3301C88.7629 88.349 88.7405 88.3597 88.7171 88.3597Z" fill="white"/>
<path d="M77.0493 85.287L76.7981 85.3186L79.8997 117.91L80.1508 117.879L77.0493 85.287Z" fill="#292A2E"/>
<path d="M85.0825 99.5153L83.5566 116.873L83.808 116.902L85.3339 99.5445L85.0825 99.5153Z" fill="#292A2E"/>
<path d="M87.7061 114.775H76.3843V119H87.7061V114.775Z" fill="#292A2E"/>
<path opacity="0.2" d="M87.7061 114.775H76.3843V119H87.7061V114.775Z" fill="white"/>
<path d="M94.5314 106.995C96.6761 103.717 95.6537 98.6714 92.2477 95.7245C88.8416 92.7776 84.3419 93.0459 82.1971 96.3238C80.0524 99.6016 81.0748 104.648 84.4808 107.595C87.8869 110.541 92.3866 110.273 94.5314 106.995Z" fill="#0CBC8B"/>
<path opacity="0.2" d="M94.5314 106.995C96.6761 103.717 95.6537 98.6714 92.2477 95.7245C88.8416 92.7776 84.3419 93.0459 82.1971 96.3238C80.0524 99.6016 81.0748 104.648 84.4808 107.595C87.8869 110.541 92.3866 110.273 94.5314 106.995Z" fill="white"/>
<path opacity="0.5" d="M94.531 106.996C94.387 107.217 94.2298 107.426 94.0607 107.622C91.6997 109.357 88.215 109.084 85.4503 106.692C82.0446 103.745 81.0225 98.6992 83.1674 95.4214C83.3117 95.2009 83.4685 94.9915 83.6366 94.7947C85.9988 93.0588 89.4825 93.3332 92.2482 95.7247C95.6538 98.6719 96.676 103.718 94.531 106.996Z" fill="white"/>
<path d="M78.7311 94.5595C82.1052 91.5645 83.0223 86.428 80.7794 83.0868C78.5365 79.7456 73.983 79.465 70.6089 82.4599C67.2348 85.4549 66.3177 90.5914 68.5606 93.9326C70.8035 97.2738 75.357 97.5544 78.7311 94.5595Z" fill="#0CBC8B"/>
<path opacity="0.2" d="M77.6621 93.6998C75.049 96.0207 71.7281 96.3743 69.3208 94.8636C69.0423 94.5813 68.7879 94.2692 68.561 93.9313C66.3177 90.591 67.2347 85.4539 70.6087 82.4596C73.2217 80.14 76.5426 79.7851 78.9488 81.2947C79.228 81.5769 79.4829 81.8895 79.7097 82.2281C81.9534 85.5684 81.036 90.7055 77.6621 93.6998Z" fill="white"/>
<path d="M95.8901 45.5263H66.0797L62.3025 48.7795V31.5595C62.3025 30.916 62.5248 30.2989 62.9205 29.8439C63.3162 29.3889 63.8529 29.1333 64.4125 29.1333H95.8901C96.4497 29.1333 96.9864 29.3889 97.3821 29.8439C97.7777 30.2989 98 30.916 98 31.5595V43.1004C98 43.7438 97.7776 44.3608 97.3819 44.8158C96.9863 45.2707 96.4497 45.5263 95.8901 45.5263Z" fill="#F4F4F4"/>
<path d="M95.3339 32.7815H64.9689C64.9571 32.782 64.9453 32.7798 64.9343 32.7749C64.9232 32.77 64.9131 32.7627 64.9046 32.7532C64.8961 32.7438 64.8893 32.7325 64.8847 32.7199C64.8801 32.7074 64.8777 32.6939 64.8777 32.6803C64.8777 32.6667 64.8801 32.6533 64.8847 32.6408C64.8893 32.6282 64.8961 32.6169 64.9046 32.6075C64.9131 32.598 64.9232 32.5907 64.9343 32.5858C64.9453 32.5809 64.9571 32.5787 64.9689 32.5792H95.3339C95.3567 32.5801 95.3782 32.5912 95.3941 32.6101C95.4099 32.6289 95.4187 32.6541 95.4187 32.6803C95.4187 32.7066 95.4099 32.7318 95.3941 32.7506C95.3782 32.7695 95.3567 32.7806 95.3339 32.7815Z" fill="white"/>
<path d="M95.3339 36.0462H64.9689C64.9571 36.0467 64.9453 36.0444 64.9343 36.0395C64.9232 36.0347 64.9131 36.0273 64.9046 36.0179C64.8961 36.0084 64.8893 35.9971 64.8847 35.9846C64.8801 35.9721 64.8777 35.9586 64.8777 35.945C64.8777 35.9314 64.8801 35.9179 64.8847 35.9054C64.8893 35.8929 64.8961 35.8816 64.9046 35.8721C64.9131 35.8627 64.9232 35.8553 64.9343 35.8504C64.9453 35.8456 64.9571 35.8433 64.9689 35.8438H95.3339C95.3567 35.8448 95.3782 35.8558 95.3941 35.8747C95.4099 35.8936 95.4187 35.9188 95.4187 35.945C95.4187 35.9712 95.4099 35.9964 95.3941 36.0153C95.3782 36.0341 95.3567 36.0452 95.3339 36.0462Z" fill="white"/>
<path d="M95.3339 39.3109H64.9689C64.9455 39.3109 64.9232 39.3002 64.9066 39.2812C64.8901 39.2622 64.8809 39.2365 64.8809 39.2096C64.8809 39.1828 64.8901 39.157 64.9066 39.138C64.9232 39.1191 64.9455 39.1084 64.9689 39.1084H95.3339C95.3572 39.1084 95.3796 39.1191 95.3961 39.138C95.4126 39.157 95.4219 39.1828 95.4219 39.2096C95.4219 39.2365 95.4126 39.2622 95.3961 39.2812C95.3796 39.3002 95.3572 39.3109 95.3339 39.3109Z" fill="white"/>
<path d="M90.0539 42.5752H64.9689C64.9571 42.5757 64.9453 42.5735 64.9343 42.5686C64.9232 42.5637 64.9131 42.5564 64.9046 42.5469C64.8961 42.5375 64.8893 42.5262 64.8847 42.5136C64.8801 42.5011 64.8777 42.4876 64.8777 42.474C64.8777 42.4604 64.8801 42.447 64.8847 42.4345C64.8893 42.4219 64.8961 42.4106 64.9046 42.4012C64.9131 42.3917 64.9232 42.3844 64.9343 42.3795C64.9453 42.3746 64.9571 42.3724 64.9689 42.3729H90.0541C90.0659 42.3724 90.0777 42.3746 90.0888 42.3795C90.0998 42.3844 90.1099 42.3917 90.1184 42.4012C90.1269 42.4106 90.1337 42.4219 90.1383 42.4345C90.143 42.447 90.1453 42.4604 90.1453 42.474C90.1453 42.4876 90.143 42.5011 90.1383 42.5136C90.1337 42.5262 90.1269 42.5375 90.1184 42.5469C90.1099 42.5564 90.0998 42.5637 90.0888 42.5686C90.0777 42.5735 90.0659 42.5757 90.0541 42.5752H90.0539Z" fill="white"/>
<path d="M3.621 79.2356H26.7948L30.3072 82.2608V69.4529C30.3072 68.8095 30.085 68.1923 29.6893 67.7373C29.2936 67.2823 28.7569 67.0266 28.1973 67.0266H3.621C3.06139 67.0266 2.5247 67.2822 2.129 67.7373C1.73329 68.1923 1.51099 68.8094 1.51099 69.4529V76.809C1.51096 77.1276 1.56551 77.4432 1.67154 77.7376C1.77756 78.032 1.93298 78.2995 2.12891 78.5248C2.32485 78.7501 2.55747 78.9289 2.81348 79.0508C3.0695 79.1728 3.34389 79.2356 3.621 79.2356Z" fill="#F4F4F4"/>
<path d="M27.8278 70.4268H3.99039C3.96704 70.4268 3.94464 70.4162 3.92813 70.3972C3.91162 70.3782 3.90234 70.3525 3.90234 70.3256C3.90234 70.2988 3.91162 70.273 3.92813 70.254C3.94464 70.235 3.96704 70.2244 3.99039 70.2244H27.8278C27.8512 70.2244 27.8736 70.235 27.8901 70.254C27.9066 70.273 27.9159 70.2988 27.9159 70.3256C27.9159 70.3525 27.9066 70.3782 27.8901 70.3972C27.8736 70.4162 27.8512 70.4268 27.8278 70.4268Z" fill="white"/>
<path d="M27.8278 73.4627H3.99037C3.96759 73.4617 3.94601 73.4506 3.93019 73.4318C3.91436 73.4129 3.90552 73.3877 3.90552 73.3615C3.90552 73.3353 3.91436 73.3101 3.93019 73.2912C3.94601 73.2723 3.96759 73.2613 3.99037 73.2603H27.8278C27.8397 73.2598 27.8514 73.2621 27.8625 73.2669C27.8735 73.2718 27.8836 73.2792 27.8921 73.2886C27.9007 73.2981 27.9074 73.3094 27.912 73.3219C27.9167 73.3344 27.9191 73.3479 27.9191 73.3615C27.9191 73.3751 27.9167 73.3886 27.912 73.4011C27.9074 73.4136 27.9007 73.4249 27.8921 73.4344C27.8836 73.4438 27.8735 73.4512 27.8625 73.456C27.8514 73.4609 27.8397 73.4632 27.8278 73.4627Z" fill="white"/>
<path d="M27.8279 76.4986H13.6708C13.659 76.4991 13.6472 76.4968 13.6362 76.4919C13.6251 76.4871 13.615 76.4797 13.6065 76.4703C13.598 76.4608 13.5912 76.4495 13.5866 76.437C13.582 76.4245 13.5796 76.411 13.5796 76.3974C13.5796 76.3838 13.582 76.3703 13.5866 76.3578C13.5912 76.3453 13.598 76.334 13.6065 76.3245C13.615 76.3151 13.6251 76.3077 13.6362 76.3028C13.6472 76.298 13.659 76.2957 13.6708 76.2962H27.8279C27.8397 76.2957 27.8515 76.298 27.8625 76.3028C27.8736 76.3077 27.8837 76.3151 27.8922 76.3245C27.9007 76.334 27.9075 76.3453 27.9121 76.3578C27.9167 76.3703 27.9191 76.3838 27.9191 76.3974C27.9191 76.411 27.9167 76.4245 27.9121 76.437C27.9075 76.4495 27.9007 76.4608 27.8922 76.4703C27.8837 76.4797 27.8736 76.4871 27.8625 76.4919C27.8515 76.4968 27.8397 76.4991 27.8279 76.4986Z" fill="white"/>
<path d="M41.682 20.1101H4.63321L0 24.1011V2.42619C0 1.78272 0.222293 1.16561 0.617976 0.710615C1.01366 0.255616 1.55032 0 2.1099 0L41.682 0C42.2416 0 42.7783 0.255616 43.1739 0.710615C43.5696 1.16561 43.7919 1.78272 43.7919 2.42619V17.6839C43.7919 18.3274 43.5696 18.9445 43.1739 19.3995C42.7782 19.8544 42.2416 20.1101 41.682 20.1101Z" fill="#F4F4F4"/>
<path d="M40.5211 4.45248H3.27066C3.24731 4.45248 3.22492 4.44181 3.2084 4.42283C3.19189 4.40384 3.18262 4.37809 3.18262 4.35124C3.18262 4.32439 3.19189 4.29864 3.2084 4.27965C3.22492 4.26067 3.24731 4.25 3.27066 4.25H40.5212C40.5445 4.25 40.5669 4.26067 40.5835 4.27965C40.6 4.29864 40.6092 4.32439 40.6092 4.35124C40.6092 4.37809 40.6 4.40384 40.5835 4.42283C40.5669 4.44181 40.5445 4.45248 40.5212 4.45248H40.5211Z" fill="white"/>
<path d="M40.5211 8.4573H3.27067C3.25885 8.45779 3.24706 8.45554 3.23602 8.45068C3.22497 8.44581 3.21488 8.43844 3.20637 8.429C3.19785 8.41955 3.19108 8.40823 3.18645 8.39571C3.18183 8.38319 3.17944 8.36973 3.17944 8.35612C3.17944 8.34252 3.18183 8.32906 3.18645 8.31653C3.19108 8.30401 3.19785 8.29269 3.20637 8.28325C3.21488 8.27381 3.22497 8.26643 3.23602 8.26157C3.24706 8.25671 3.25885 8.25446 3.27067 8.25495H40.5212C40.533 8.25446 40.5448 8.25671 40.5559 8.26157C40.5669 8.26643 40.577 8.27381 40.5855 8.28325C40.594 8.29269 40.6008 8.30401 40.6054 8.31653C40.6101 8.32906 40.6124 8.34252 40.6124 8.35612C40.6124 8.36973 40.6101 8.38319 40.6054 8.39571C40.6008 8.40823 40.594 8.41955 40.5855 8.429C40.577 8.43844 40.5669 8.44581 40.5559 8.45068C40.5448 8.45554 40.533 8.45779 40.5212 8.4573H40.5211Z" fill="white"/>
<path d="M40.5211 12.4624H3.27067C3.25885 12.4629 3.24706 12.4607 3.23602 12.4558C3.22497 12.4509 3.21488 12.4436 3.20637 12.4341C3.19785 12.4247 3.19108 12.4134 3.18645 12.4008C3.18183 12.3883 3.17944 12.3749 3.17944 12.3613C3.17944 12.3476 3.18183 12.3342 3.18645 12.3217C3.19108 12.3091 3.19785 12.2978 3.20637 12.2884C3.21488 12.2789 3.22497 12.2716 3.23602 12.2667C3.24706 12.2618 3.25885 12.2596 3.27067 12.2601H40.5212C40.533 12.2596 40.5448 12.2618 40.5559 12.2667C40.5669 12.2716 40.577 12.2789 40.5855 12.2884C40.594 12.2978 40.6008 12.3091 40.6054 12.3217C40.6101 12.3342 40.6124 12.3476 40.6124 12.3613C40.6124 12.3749 40.6101 12.3883 40.6054 12.4008C40.6008 12.4134 40.594 12.4247 40.5855 12.4341C40.577 12.4436 40.5669 12.4509 40.5559 12.4558C40.5448 12.4607 40.533 12.4629 40.5212 12.4624H40.5211Z" fill="white"/>
<path d="M21.9464 16.4671H3.27067C3.25885 16.4676 3.24706 16.4653 3.23602 16.4604C3.22497 16.4556 3.21488 16.4482 3.20637 16.4388C3.19785 16.4293 3.19108 16.418 3.18645 16.4055C3.18183 16.393 3.17944 16.3795 3.17944 16.3659C3.17944 16.3523 3.18183 16.3388 3.18645 16.3263C3.19108 16.3138 3.19785 16.3025 3.20637 16.293C3.21488 16.2836 3.22497 16.2762 3.23602 16.2713C3.24706 16.2665 3.25885 16.2642 3.27067 16.2647H21.9464C21.9692 16.2657 21.9908 16.2767 22.0066 16.2956C22.0224 16.3145 22.0313 16.3397 22.0313 16.3659C22.0313 16.3921 22.0224 16.4173 22.0066 16.4362C21.9908 16.455 21.9692 16.4661 21.9464 16.4671Z" fill="white"/>
<path d="M18.3306 16.0396C18.3306 16.0396 17.045 14.7599 16.867 12.0285C16.7293 9.91364 18.3306 11.4002 18.3306 11.4002C18.3306 11.4002 18.2444 9.87644 19.1923 10.1C20.1402 10.3236 20.584 11.9516 20.584 11.9516" fill="#0C0C0C"/>
<path d="M24.1287 10.658C24.1287 10.658 28.8427 11.6093 26.6954 18.8761H25.4166" fill="#0C0C0C"/>
<path d="M18.8193 26.431C18.8402 26.4279 19.0725 30.8582 23.5482 30.472C26.6468 30.2051 27.7516 26.4247 27.8232 26.4247C27.4891 26.3432 27.0763 26.2192 26.9122 26.1767C26.5546 26.0813 26.2307 25.8629 25.9837 25.5506C25.7367 25.2384 25.5782 24.847 25.5293 24.4286C25.4387 23.8007 25.5924 20.588 25.5451 19.9526L20.7889 21.1734C20.8553 22.5153 21.3203 25.6261 19.6902 26.1767C19.4183 26.2677 19.1261 26.3515 18.8193 26.431Z" fill="#E98862"/>
<path opacity="0.52" d="M20.7217 24.9054C20.7962 24.6293 20.8441 24.3446 20.8647 24.0565C20.917 23.3991 20.9066 22.737 20.8336 22.0822C21.8003 21.9322 22.7111 21.4733 23.4623 20.7578C23.5507 21.1329 24.0363 22.7717 23.902 23.1282C23.6476 23.8021 22.4532 24.9054 20.7217 24.9054Z" fill="#0C0C0C"/>
<path d="M21.5657 23.8354C23.4491 23.7865 25.7692 22.599 25.9719 19.6791L26.1547 17.0444C26.3573 14.1242 25.1881 11.6348 22.7972 11.4155C20.4064 11.1961 18.4551 13.3991 18.2525 16.319L18.1716 17.4854C18.1499 17.8864 18.152 18.2887 18.1778 18.6894C18.2394 19.7489 18.3366 21.3599 18.8935 22.4882C19.4192 23.553 20.3625 23.8661 21.5657 23.8354Z" fill="#E98862"/>
<path opacity="0.52" d="M20.8526 21.0969C20.4651 21.0872 20.085 20.9729 19.7429 20.7633C19.7288 20.7547 19.7183 20.7402 19.7135 20.7228C19.7087 20.7054 19.7101 20.6865 19.7173 20.6702C19.7245 20.654 19.7369 20.6416 19.752 20.6358C19.767 20.63 19.7835 20.6312 19.7978 20.6392C20.5359 21.0705 21.2291 21.0691 21.8024 20.6352C21.8139 20.626 21.8259 20.6176 21.8382 20.6098C21.8454 20.6058 21.8531 20.6035 21.8611 20.6029C21.869 20.6024 21.877 20.6036 21.8845 20.6066C21.892 20.6095 21.8989 20.6142 21.9049 20.6202C21.9109 20.6263 21.9157 20.6336 21.9192 20.6419C21.9227 20.6501 21.9247 20.659 21.9252 20.6681C21.9257 20.6773 21.9246 20.6864 21.9221 20.6951C21.9195 20.7037 21.9154 20.7117 21.9102 20.7185C21.9049 20.7254 21.8985 20.731 21.8914 20.735C21.8867 20.7379 21.8798 20.7436 21.8689 20.7516C21.5676 20.9805 21.2138 21.1007 20.8526 21.0969Z" fill="#0C0C0C"/>
<path opacity="0.52" d="M20.8321 21.7566C20.7621 21.7562 20.6921 21.7489 20.6231 21.7348C20.6151 21.7335 20.6074 21.7303 20.6005 21.7255C20.5936 21.7207 20.5875 21.7143 20.5828 21.7068C20.5781 21.6992 20.5747 21.6907 20.5728 21.6816C20.571 21.6725 20.5708 21.6631 20.5722 21.654C20.5736 21.6448 20.5766 21.636 20.5809 21.6282C20.5853 21.6204 20.591 21.6136 20.5977 21.6084C20.6044 21.6032 20.6119 21.5995 20.6199 21.5977C20.6278 21.5958 20.636 21.5958 20.6439 21.5977C21.0592 21.681 21.2715 21.476 21.2804 21.4672C21.2925 21.4551 21.3083 21.4489 21.3243 21.4501C21.3403 21.4513 21.3553 21.4598 21.3659 21.4737C21.3765 21.4876 21.3818 21.5057 21.3808 21.5241C21.3797 21.5426 21.3723 21.5597 21.3603 21.5719C21.2081 21.7018 21.0214 21.767 20.8321 21.7566Z" fill="#0C0C0C"/>
<path d="M18.9616 17.6811C19.1247 17.6811 19.2569 17.5291 19.2569 17.3415C19.2569 17.154 19.1247 17.002 18.9616 17.002C18.7985 17.002 18.6663 17.154 18.6663 17.3415C18.6663 17.5291 18.7985 17.6811 18.9616 17.6811Z" fill="#0C0C0C"/>
<path d="M21.6994 17.7026C21.8625 17.7026 21.9947 17.5506 21.9947 17.363C21.9947 17.1755 21.8625 17.0234 21.6994 17.0234C21.5363 17.0234 21.4041 17.1755 21.4041 17.363C21.4041 17.5506 21.5363 17.7026 21.6994 17.7026Z" fill="#0C0C0C"/>
<path d="M25.7617 20.5546C26.4882 20.621 27.1392 19.7815 27.1972 18.946C27.2552 18.1106 26.6982 17.5957 25.9716 17.5291L25.5583 18.0545L25.137 20.4972L25.7617 20.5546Z" fill="#E98862"/>
<path d="M25.1164 19.1552C25.1164 19.1552 25.1117 15.0011 24.0363 14.6618C23.3199 14.4359 21.4897 15.4846 19.8793 15.0011C19.1745 14.7896 18.4855 14.9406 18.394 15.3229C18.3578 15.4743 18.0418 13.2345 19.2568 11.6466C20.2242 10.3825 23.158 10.2305 24.4573 10.7698C28.0549 12.2625 26.1108 17.723 26.1108 17.723L25.8641 19.1359L25.1164 19.1552Z" fill="#0C0C0C"/>
<g opacity="0.52">
<path d="M20.4699 20.0871H20.4653C20.2311 20.0664 19.8403 20.0015 19.8536 19.8C19.8652 19.6331 20.3831 17.8666 20.4422 17.6657C20.4476 17.6488 20.4584 17.6351 20.4725 17.6273C20.4866 17.6196 20.5028 17.6185 20.5175 17.6242C20.5323 17.63 20.5446 17.6422 20.5517 17.6581C20.5588 17.6741 20.5601 17.6927 20.5555 17.7098C20.3255 18.4921 19.9806 19.6972 19.9728 19.8106C19.9927 19.8602 20.2319 19.9285 20.4743 19.95C20.4896 19.9515 20.5038 19.9598 20.514 19.973C20.5241 19.9862 20.5295 20.0034 20.5289 20.0211C20.5283 20.0387 20.5219 20.0554 20.5109 20.0678C20.4999 20.0801 20.4853 20.0871 20.4699 20.0874V20.0871Z" fill="#0C0C0C"/>
</g>
<path d="M19.7922 16.2987C19.6032 16.2091 19.3969 16.1782 19.1943 16.2093C19.091 16.2242 18.9903 16.2569 18.8956 16.3066C18.7989 16.3566 18.708 16.4204 18.6251 16.4964L18.6186 16.502C18.5971 16.518 18.5712 16.5242 18.5459 16.5196C18.5206 16.515 18.4977 16.4998 18.4815 16.4769C18.4654 16.454 18.4571 16.4251 18.4584 16.3957C18.4596 16.3663 18.4703 16.3384 18.4883 16.3174C18.5802 16.2193 18.6824 16.1349 18.7926 16.0662C18.9044 15.996 19.0247 15.9454 19.1495 15.9161C19.2746 15.8853 19.4027 15.8743 19.5303 15.8835C19.6616 15.8914 19.7913 15.9209 19.9155 15.9709C19.9539 15.9871 19.9852 16.02 20.0027 16.0626C20.0201 16.1052 20.0223 16.1539 20.0087 16.1983C19.9951 16.2426 19.9669 16.2791 19.9301 16.2997C19.8933 16.3203 19.8509 16.3234 19.8122 16.3083C19.8084 16.3068 19.8048 16.3051 19.8012 16.3034L19.7922 16.2987Z" fill="#0C0C0C"/>
<path d="M21.5251 15.9993C21.7715 15.9019 22.0361 15.8831 22.2911 15.9447C22.4159 15.9739 22.5362 16.0246 22.648 16.0948C22.7582 16.1635 22.8604 16.248 22.9522 16.3462C22.9721 16.3665 22.9845 16.3948 22.9867 16.4254C22.9889 16.4559 22.9807 16.4862 22.964 16.51C22.9472 16.5338 22.9231 16.5492 22.8967 16.5531C22.8703 16.557 22.8436 16.549 22.8222 16.5309L22.8154 16.525C22.7325 16.449 22.6417 16.3852 22.545 16.3351C22.4503 16.2855 22.3495 16.2527 22.2462 16.2378C22.1435 16.2214 22.0394 16.2214 21.9367 16.2378C21.8374 16.2524 21.7402 16.2824 21.6478 16.3269L21.6392 16.3313C21.6205 16.3408 21.6004 16.346 21.5799 16.3466C21.5595 16.3471 21.5392 16.3431 21.5202 16.3346C21.5011 16.3261 21.4837 16.3134 21.4689 16.2972C21.4541 16.281 21.4422 16.2616 21.434 16.2402C21.4257 16.2187 21.4212 16.1955 21.4207 16.1721C21.4202 16.1486 21.4237 16.1252 21.4311 16.1033C21.4385 16.0814 21.4495 16.0614 21.4636 16.0444C21.4777 16.0273 21.4946 16.0137 21.5132 16.0042C21.5179 16.0026 21.5218 16.0009 21.5251 15.9993Z" fill="#0C0C0C"/>
<path d="M21.7783 11.8599C21.9969 10.9617 21.744 10.095 21.2133 9.92426C20.6826 9.75348 20.0752 10.3432 19.8565 11.2415C19.6379 12.1397 19.8909 13.0064 20.4216 13.1772C20.9523 13.3479 21.5597 12.7582 21.7783 11.8599Z" fill="#0C0C0C"/>
<path d="M26.3945 101.275C26.3945 101.275 29.4679 103.232 28.8507 106.286C28.2335 109.341 30.4807 109.397 30.4807 109.397L33.4323 97.9268L28.4485 96.231L26.3945 101.275Z" fill="#367CFF"/>
<path d="M14.5954 52.3169C14.5954 52.3169 8.88608 78.3446 10.4568 82.1976C12.0008 85.9851 27.9907 102.814 27.9907 102.814L30.8713 96.6581L18.6273 79.6601C18.6273 79.6601 22.1063 70.4527 24.112 63.3733C25.3212 59.1058 26.6331 55.2782 26.8263 50.7954L14.5954 52.3169Z" fill="#262626"/>
<path d="M23.016 85.6235L21.3677 83.4648L21.7967 96.1358L23.6339 98.1438L23.016 85.6235Z" fill="#0A0A0A"/>
<path d="M22.7765 67.8583C22.7765 67.8583 23.0769 60.785 22.5048 62.1419C21.4728 64.5916 21.2031 72.4894 21.2031 72.4894L22.7765 67.8583Z" fill="#0A0A0A"/>
<path d="M24.933 112.645C24.933 112.645 24.372 115.988 21.6498 116.174C18.9275 116.36 19.5179 118.854 19.5179 118.854H29.9207V112.878L24.933 112.645Z" fill="#367CFF"/>
<path d="M33.1679 51.6567C33.1679 51.6567 33.2142 51.4104 33.2414 52.8509C33.4026 61.3527 30.3797 114.778 30.3797 114.778L23.5439 114.711L21.7139 51.3113L33.1679 51.6567Z" fill="#262626"/>
<path d="M13.2584 36.1846C13.3993 38.089 14.4318 49.9711 14.5673 52.317H33.248C33.3534 50.2013 33.4807 40.9496 33.8809 36.812C34.2629 32.8639 35.0123 30.7443 34.463 29.5771C33.5652 27.6693 31.1123 26.71 29.4397 26.4495C28.4183 26.2901 26.8821 26.1765 26.8821 26.1765C26.8821 26.1765 26.752 29.2022 23.6505 29.3706C19.4286 29.5997 19.7105 26.1765 19.6896 26.1765C18.1567 26.1765 15.2557 26.5982 14.1424 27.4687C11.6391 29.4264 12.9591 32.1485 13.2584 36.1846Z" fill="#367CFF"/>
<path d="M14.3649 28.7617L10.0148 33.9367L6.05338 32.0956L1.85461 44.0418L1.82861 44.1131C1.5404 44.9382 1.51415 45.8537 1.75447 46.6988C1.99479 47.5439 2.48632 48.2647 3.14277 48.7346C3.79922 49.2045 4.57863 49.3934 5.34418 49.2683C6.10973 49.1432 6.81249 48.712 7.32907 48.0503L18.733 33.441L14.3649 28.7617Z" fill="#367CFF"/>
<path d="M18.1949 27.1864C18.1609 27.1245 18.1164 27.0712 18.064 27.0298C18.0115 26.9883 17.9523 26.9596 17.8899 26.9453C17.8275 26.9311 17.7632 26.9316 17.701 26.9468C17.6388 26.9621 17.5799 26.9917 17.528 27.034C17.4299 27.1199 17.3639 27.2453 17.3432 27.385C17.3226 27.5247 17.3488 27.6682 17.4166 27.7866L17.6329 28.1481L15.255 26.426C15.2059 26.3905 15.1513 26.3664 15.0941 26.3552C15.0369 26.3439 14.9783 26.3457 14.9218 26.3605C14.8652 26.3753 14.8117 26.4027 14.7644 26.4413C14.717 26.4798 14.6768 26.5287 14.6458 26.5851C14.6149 26.6416 14.594 26.7045 14.5842 26.7702C14.5744 26.836 14.576 26.9033 14.5889 26.9684C14.6017 27.0334 14.6256 27.0949 14.6591 27.1494C14.6926 27.2038 14.7351 27.2501 14.7842 27.2857L15.7744 28.0031C15.7719 28.0056 15.7696 28.0084 15.7676 28.0115C15.6542 27.9625 15.5287 27.966 15.4174 28.0211C15.3062 28.0763 15.2178 28.1788 15.1709 28.3072C15.1302 28.4255 15.1263 28.5563 15.1598 28.6775C15.1934 28.7987 15.2623 28.9029 15.355 28.9723L15.4868 29.075C15.4858 29.0811 15.4858 29.0874 15.4868 29.0935C15.3842 29.0481 15.271 29.0457 15.167 29.0867C15.063 29.1277 14.9749 29.2095 14.9181 29.3178C14.8583 29.4416 14.8416 29.587 14.8714 29.7245C14.9012 29.862 14.9753 29.9813 15.0787 30.0584L15.4037 30.3116C15.3966 30.3119 15.3896 30.3142 15.3834 30.3184C15.3772 30.3226 15.372 30.3285 15.3683 30.3355C15.3643 30.3436 15.3624 30.3528 15.3629 30.3621C15.2637 30.3508 15.1639 30.3764 15.0782 30.435C14.9925 30.4936 14.9254 30.5822 14.8866 30.6879C14.8459 30.8061 14.842 30.9369 14.8755 31.0581C14.909 31.1793 14.978 31.2835 15.0706 31.353L16.8304 32.7291C17.2194 33.0321 17.6782 33.1946 18.148 33.1958C18.6178 33.197 19.0772 33.0369 19.4673 32.7359L20.7235 31.7668L18.1949 27.1864Z" fill="#E98862"/>
<g opacity="0.2">
<path d="M16.7625 28.7747C16.7574 28.7735 16.7526 28.7713 16.7482 28.7682L15.7792 28.0845C15.7743 28.081 15.77 28.0764 15.7666 28.071C15.7633 28.0656 15.7608 28.0595 15.7595 28.0531C15.7568 28.04 15.7587 28.0262 15.7649 28.0148C15.771 28.0034 15.7808 27.9952 15.7922 27.9921C15.8035 27.989 15.8155 27.9912 15.8255 27.9983L16.7943 28.682C16.8032 28.6881 16.81 28.6977 16.8134 28.709C16.8167 28.7204 16.8165 28.7327 16.8127 28.7439C16.8089 28.7551 16.8018 28.7643 16.7926 28.77C16.7834 28.7757 16.7728 28.7774 16.7626 28.775L16.7625 28.7747Z" fill="#0C0C0C"/>
<path d="M16.2798 29.6772C16.2746 29.676 16.2697 29.6737 16.2652 29.6704L15.5073 29.1257C15.4984 29.1182 15.4922 29.107 15.4901 29.0945C15.4879 29.082 15.49 29.069 15.4959 29.0582C15.5017 29.0473 15.5109 29.0394 15.5216 29.036C15.5323 29.0326 15.5437 29.034 15.5536 29.0399L16.3114 29.5846C16.3204 29.5907 16.3273 29.6004 16.3307 29.6118C16.3341 29.6232 16.3338 29.6356 16.33 29.6468C16.3261 29.6581 16.3189 29.6673 16.3096 29.673C16.3003 29.6786 16.2896 29.6803 16.2794 29.6776L16.2798 29.6772Z" fill="#0C0C0C"/>
<path d="M15.7612 30.6578C15.7564 30.6567 15.7517 30.6546 15.7475 30.6517L15.3843 30.4043C15.3791 30.4011 15.3745 30.3967 15.3708 30.3914C15.367 30.386 15.3643 30.3799 15.3627 30.3733C15.3611 30.3667 15.3607 30.3598 15.3615 30.3531C15.3622 30.3463 15.3642 30.3398 15.3672 30.3339C15.3703 30.328 15.3743 30.3229 15.3791 30.3189C15.3839 30.3148 15.3893 30.312 15.3951 30.3104C15.4009 30.3089 15.4069 30.3087 15.4127 30.3099C15.4186 30.311 15.4242 30.3136 15.4291 30.3173L15.7922 30.5647C15.801 30.5708 15.8076 30.5804 15.811 30.5916C15.8143 30.6028 15.8141 30.615 15.8104 30.626C15.8067 30.6371 15.7998 30.6463 15.7908 30.6521C15.7818 30.6579 15.7713 30.6599 15.7612 30.6577V30.6578Z" fill="#0C0C0C"/>
</g>
<path d="M10.4518 33.9298H14.1443C14.2396 33.9298 14.3337 33.9055 14.4199 33.8586C14.5061 33.8118 14.5821 33.7435 14.6426 33.6588C14.7031 33.5741 14.7464 33.475 14.7696 33.3686C14.7927 33.2623 14.7951 33.1514 14.7765 33.0439L13.3156 24.6017C13.2863 24.4325 13.2066 24.2803 13.0902 24.1714C12.9738 24.0625 12.828 24.0037 12.6779 24.0052L9.0795 24.04C8.98532 24.0409 8.89248 24.0656 8.80748 24.1122C8.72249 24.1589 8.64741 24.2263 8.58753 24.3099C8.52766 24.3935 8.48443 24.4912 8.46089 24.596C8.43735 24.7009 8.43408 24.8104 8.4513 24.9169L9.81815 33.3241C9.84565 33.4942 9.92406 33.648 10.0398 33.7586C10.1555 33.8692 10.3013 33.9298 10.4518 33.9298Z" fill="#262626"/>
<path d="M13.2959 29.2285C13.2393 29.1309 13.157 29.0567 13.0611 29.017C12.9651 28.9773 12.8606 28.974 12.763 29.0078C12.7629 29.0009 12.7613 28.9942 12.7585 28.9882C12.7556 28.9822 12.7515 28.9771 12.7465 28.9733C12.7415 28.9696 12.7358 28.9673 12.7299 28.9666C12.724 28.966 12.718 28.967 12.7125 28.9696L12.9991 28.6408C13.0898 28.541 13.1441 28.4054 13.1511 28.2613C13.1581 28.1173 13.1172 27.9755 13.0368 27.8648C12.962 27.7688 12.8601 27.7063 12.7492 27.6881C12.6382 27.67 12.5252 27.6974 12.4301 27.7655C12.4301 27.7601 12.4264 27.7555 12.4249 27.7502L12.543 27.615C12.6241 27.5251 12.6757 27.4058 12.6891 27.2772C12.7026 27.1486 12.6769 27.0186 12.6166 26.9092C12.5775 26.8415 12.5259 26.7847 12.4654 26.7427C12.4049 26.7008 12.3371 26.6748 12.2668 26.6666C12.1965 26.6585 12.1255 26.6683 12.0589 26.6955C11.9924 26.7227 11.9319 26.7666 11.8819 26.8239L11.6095 27.1363C11.6084 27.1344 11.6088 27.1318 11.6074 27.13C11.6061 27.1283 11.6025 27.1282 11.6004 27.1264C11.6582 27.0215 11.6833 26.897 11.6715 26.7735C11.6597 26.65 11.6118 26.5348 11.5356 26.4467C11.3515 26.2047 11.0232 26.323 10.8471 26.525L9.18547 28.3962L9.23619 28.3089L9.47132 27.6195C9.51951 27.4863 9.52192 27.337 9.47806 27.2018C9.4342 27.0666 9.34734 26.9556 9.23504 26.8913C9.17607 26.8604 9.11225 26.8437 9.04748 26.8421C8.9827 26.8405 8.91832 26.8541 8.85826 26.882C8.7982 26.91 8.74373 26.9517 8.69816 27.0047C8.65259 27.0577 8.61688 27.1207 8.5932 27.1901L7.21826 31.1013C7.21826 31.1013 10.108 33.5061 10.801 32.7112L13.2225 29.9344C13.3036 29.8445 13.3553 29.7251 13.3686 29.5964C13.382 29.4678 13.3563 29.3378 13.2959 29.2285Z" fill="#E98862"/>
<g opacity="0.2">
<path d="M10.015 28.8999C10.0233 28.9091 10.0343 28.9142 10.0458 28.9142C10.0573 28.9142 10.0683 28.9091 10.0765 28.8999L11.6064 27.2011C11.6107 27.1965 11.6143 27.191 11.6167 27.1849C11.6192 27.1787 11.6206 27.1721 11.6208 27.1653C11.6209 27.1585 11.62 27.1518 11.6178 27.1455C11.6157 27.1391 11.6125 27.1334 11.6084 27.1285C11.6043 27.1236 11.5994 27.1197 11.594 27.1171C11.5886 27.1144 11.5828 27.1131 11.5769 27.113C11.571 27.113 11.5652 27.1144 11.5597 27.117C11.5543 27.1196 11.5494 27.1234 11.5453 27.1283L10.0154 28.8275C10.0112 28.8321 10.0079 28.8376 10.0056 28.8437C10.0033 28.8498 10.0021 28.8564 10.002 28.863C10.0019 28.8697 10.0029 28.8763 10.005 28.8825C10.0072 28.8886 10.0103 28.8943 10.0143 28.8991L10.015 28.8999Z" fill="#0C0C0C"/>
<path d="M10.648 29.6963C10.6563 29.7055 10.6673 29.7107 10.6788 29.7107C10.6903 29.7107 10.7013 29.7055 10.7095 29.6963L12.4169 27.8005C12.421 27.7959 12.4244 27.7904 12.4267 27.7843C12.429 27.7782 12.4302 27.7716 12.4304 27.765C12.4305 27.7583 12.4294 27.7517 12.4273 27.7455C12.4252 27.7393 12.422 27.7337 12.418 27.7289C12.4097 27.7196 12.3987 27.7143 12.3871 27.7141C12.3755 27.7139 12.3643 27.7187 12.3557 27.7277L10.6484 29.6239C10.64 29.6332 10.6352 29.646 10.635 29.6594C10.6348 29.6729 10.6393 29.6858 10.6474 29.6955L10.648 29.6963Z" fill="#0C0C0C"/>
<path d="M11.3293 30.5638C11.3375 30.573 11.3485 30.5782 11.36 30.5782C11.3715 30.5782 11.3825 30.573 11.3907 30.5638L12.7527 29.0514C12.7571 29.0468 12.7606 29.0413 12.7631 29.0352C12.7655 29.029 12.7669 29.0223 12.7671 29.0156C12.7673 29.0088 12.7663 29.002 12.7641 28.9957C12.762 28.9894 12.7588 28.9836 12.7547 28.9788C12.7506 28.9739 12.7457 28.97 12.7402 28.9674C12.7348 28.9647 12.729 28.9634 12.7231 28.9634C12.7172 28.9634 12.7114 28.9647 12.7059 28.9674C12.7005 28.97 12.6956 28.9739 12.6915 28.9787L11.3296 30.4916C11.3212 30.501 11.3164 30.5137 11.3162 30.5272C11.316 30.5406 11.3204 30.5536 11.3285 30.5632L11.3293 30.5638Z" fill="#0C0C0C"/>
</g>
<path d="M6.74684 30.0601L12.0411 32.4359L8.01363 45.807L1.81519 43.9459L6.74684 30.0601Z" fill="#367CFF"/>
<path d="M24.6375 48.1762C24.0544 48.1762 23.4818 47.9985 22.9779 47.6614C22.474 47.3242 22.0567 46.8396 21.7686 46.2567L15.7849 33.4342L20.7683 29.7716L24.5767 37.1867L28.6931 29.0078L34.0384 33.5174L27.5354 46.1972C27.2539 46.7909 26.8396 47.2873 26.3354 47.6351C25.8311 47.9829 25.2552 48.1695 24.6673 48.1755L24.6375 48.1762Z" fill="#367CFF"/>
<path d="M24.6375 48.2267C24.0469 48.2259 23.4669 48.0456 22.9564 47.704C22.4458 47.3624 22.0229 46.8718 21.7304 46.2817L15.7462 33.458C15.7409 33.4468 15.7396 33.4337 15.7424 33.4214C15.7452 33.409 15.752 33.3984 15.7613 33.3916L20.7447 29.729C20.7497 29.7252 20.7553 29.7227 20.7611 29.7216C20.767 29.7205 20.7729 29.7208 20.7787 29.7224C20.7844 29.724 20.7898 29.7269 20.7946 29.7309C20.7993 29.7349 20.8033 29.74 20.8063 29.7458L24.5765 37.0869L27.4002 31.5347C27.4061 31.5231 27.4158 31.5147 27.4271 31.5113C27.4384 31.5079 27.4504 31.5098 27.4605 31.5165C27.4706 31.5233 27.4779 31.5344 27.4809 31.5474C27.4838 31.5604 27.4822 31.5742 27.4763 31.5858L24.6147 37.2123C24.6108 37.2199 24.6053 37.2262 24.5986 37.2306C24.592 37.2349 24.5844 37.2373 24.5768 37.2372C24.5691 37.2373 24.5616 37.235 24.5549 37.2306C24.5483 37.2263 24.5428 37.22 24.5389 37.2124L20.7537 29.8424L15.8432 33.4515L21.8077 46.2328C22.0925 46.8071 22.5043 47.2846 23.0013 47.617C23.4983 47.9494 24.0628 48.1249 24.6378 48.1255H24.6672C25.2473 48.1193 25.8155 47.935 26.3129 47.5918C26.8104 47.2485 27.2192 46.7588 27.497 46.1731L33.3208 34.7554C33.3267 34.7438 33.3364 34.7354 33.3477 34.732C33.359 34.7286 33.371 34.7305 33.3811 34.7373C33.3912 34.744 33.3985 34.7551 33.4014 34.7681C33.4044 34.7811 33.4027 34.7949 33.3968 34.8065L27.5736 46.2228C27.2882 46.824 26.8684 47.3266 26.3577 47.6788C25.8469 48.0311 25.2636 48.2201 24.668 48.2265L24.6375 48.2267Z" fill="#0C0C0C"/>
<path d="M25.9889 40.111C25.9812 40.111 25.9735 40.1086 25.9668 40.104C25.9601 40.0995 25.9545 40.093 25.9507 40.0852L24.5383 37.2113C24.533 37.1996 24.5318 37.186 24.535 37.1734C24.5382 37.1607 24.5456 37.15 24.5556 37.1435C24.5655 37.137 24.5773 37.1353 24.5884 37.1386C24.5995 37.142 24.609 37.1502 24.6149 37.1614L26.0273 40.0354C26.033 40.0471 26.0345 40.0609 26.0314 40.0739C26.0283 40.0868 26.0208 40.0978 26.0107 40.1045C26.004 40.1087 25.9965 40.111 25.9889 40.111Z" fill="#0C0C0C"/>
<path d="M9.13695 42.4721C9.12998 42.4721 9.12311 42.4703 9.1169 42.4666C9.11069 42.463 9.10532 42.4577 9.10125 42.4512C9.09718 42.4447 9.09452 42.4372 9.09349 42.4293C9.09247 42.4213 9.09311 42.4132 9.09536 42.4057L12.0913 32.4588C12.0932 32.4525 12.0962 32.4468 12.1 32.4418C12.1039 32.4368 12.1085 32.4328 12.1137 32.4299C12.1189 32.427 12.1246 32.4253 12.1304 32.4249C12.1361 32.4245 12.1419 32.4254 12.1474 32.4276C12.1528 32.4298 12.1579 32.4332 12.1622 32.4376C12.1665 32.442 12.17 32.4474 12.1726 32.4534C12.1751 32.4593 12.1766 32.4658 12.1769 32.4725C12.1772 32.4791 12.1764 32.4858 12.1745 32.492L9.17855 42.4388C9.17545 42.4486 9.16979 42.457 9.16234 42.463C9.1549 42.469 9.14603 42.4721 9.13695 42.4721Z" fill="#0C0C0C"/>
<path d="M13.475 40.2437C13.4639 40.2436 13.4533 40.2388 13.4451 40.2301C13.437 40.2214 13.4321 40.2095 13.4312 40.1968L13.2579 37.4687C13.2571 37.4553 13.2609 37.4421 13.2685 37.432C13.2762 37.4219 13.287 37.4156 13.2986 37.4146C13.3102 37.4139 13.3216 37.4183 13.3304 37.4271C13.3392 37.4358 13.3447 37.4481 13.3457 37.4614L13.519 40.1893C13.5199 40.2027 13.516 40.216 13.5084 40.2261C13.5008 40.2363 13.4899 40.2425 13.4783 40.2435L13.475 40.2437Z" fill="#0C0C0C"/>
<path d="M95.4941 118.996H7.35149C7.33966 118.996 7.32788 118.994 7.31683 118.989C7.30578 118.984 7.29569 118.977 7.28718 118.968C7.27866 118.958 7.27189 118.947 7.26726 118.934C7.26264 118.922 7.26025 118.908 7.26025 118.895C7.26025 118.881 7.26264 118.868 7.26726 118.855C7.27189 118.843 7.27866 118.831 7.28718 118.822C7.29569 118.812 7.30578 118.805 7.31683 118.8C7.32788 118.795 7.33966 118.793 7.35149 118.794H95.4941C95.5059 118.793 95.5177 118.795 95.5287 118.8C95.5398 118.805 95.5499 118.812 95.5584 118.822C95.5669 118.831 95.5737 118.843 95.5783 118.855C95.5829 118.868 95.5853 118.881 95.5853 118.895C95.5853 118.908 95.5829 118.922 95.5783 118.934C95.5737 118.947 95.5669 118.958 95.5584 118.968C95.5499 118.977 95.5398 118.984 95.5287 118.989C95.5177 118.994 95.5059 118.996 95.4941 118.996Z" fill="#292A2E"/>
<path d="M72.279 8.22021H38.3943C35.5912 8.22021 33.3188 10.8332 33.3188 14.0566V105.653C33.3188 108.876 35.5912 111.489 38.3943 111.489H72.279C75.0822 111.489 77.3545 108.876 77.3545 105.653V14.0566C77.3545 10.8332 75.0822 8.22021 72.279 8.22021Z" fill="#292A2E"/>
<path d="M72.2633 10.0427H38.4105C36.4857 10.0427 34.9253 11.837 34.9253 14.0504V105.523C34.9253 107.736 36.4857 109.53 38.4105 109.53H72.2633C74.1881 109.53 75.7485 107.736 75.7485 105.523V14.0504C75.7485 11.837 74.1881 10.0427 72.2633 10.0427Z" fill="white"/>
<path d="M46.9758 9.28931H63.6979V11.2789C63.6979 11.5615 63.6495 11.8414 63.5554 12.1025C63.4613 12.3636 63.3234 12.6008 63.1496 12.8006C62.9758 13.0004 62.7695 13.1588 62.5424 13.2669C62.3153 13.375 62.0719 13.4306 61.8261 13.4305H48.8469C48.3507 13.4305 47.8748 13.2038 47.5239 12.8003C47.173 12.3968 46.9758 11.8495 46.9758 11.2789V9.28931Z" fill="#292A2E"/>
<path d="M65.6358 32.2987H40.1115L36.8704 35.0903V20.3781C36.8704 20.0962 36.9186 19.8171 37.0125 19.5567C37.1063 19.2962 37.2438 19.0596 37.4171 18.8603C37.5904 18.661 37.7962 18.5029 38.0227 18.395C38.2492 18.2872 38.4919 18.2317 38.737 18.2317H65.6358C65.8809 18.2317 66.1236 18.2872 66.3501 18.395C66.5766 18.5029 66.7824 18.661 66.9557 18.8603C67.129 19.0596 67.2666 19.2962 67.3604 19.5567C67.4542 19.8171 67.5025 20.0962 67.5025 20.3781V30.1521C67.5025 30.434 67.4542 30.7131 67.3604 30.9736C67.2666 31.234 67.1291 31.4707 66.9558 31.67C66.7824 31.8693 66.5767 32.0275 66.3502 32.1353C66.1237 32.2432 65.8809 32.2987 65.6358 32.2987Z" fill="#367CFF"/>
<path opacity="0.49" d="M67.5025 32.2984H40.1115L36.8704 35.09V18.2317H67.5025V32.2984Z" fill="white"/>
<path d="M65.2145 21.3688H39.1581C39.1365 21.3688 39.1159 21.359 39.1007 21.3415C39.0855 21.324 39.0769 21.3002 39.0769 21.2755C39.0769 21.2507 39.0855 21.227 39.1007 21.2095C39.1159 21.192 39.1365 21.1821 39.1581 21.1821H65.2145C65.236 21.1821 65.2567 21.192 65.2719 21.2095C65.2871 21.227 65.2957 21.2507 65.2957 21.2755C65.2957 21.3002 65.2871 21.324 65.2719 21.3415C65.2567 21.359 65.236 21.3688 65.2145 21.3688Z" fill="white"/>
<path d="M65.2145 24.1701H39.1581C39.1365 24.1701 39.1159 24.1602 39.1007 24.1427C39.0855 24.1252 39.0769 24.1015 39.0769 24.0767C39.0769 24.052 39.0855 24.0282 39.1007 24.0107C39.1159 23.9932 39.1365 23.9834 39.1581 23.9834H65.2145C65.236 23.9834 65.2567 23.9932 65.2719 24.0107C65.2871 24.0282 65.2957 24.052 65.2957 24.0767C65.2957 24.1015 65.2871 24.1252 65.2719 24.1427C65.2567 24.1602 65.236 24.1701 65.2145 24.1701Z" fill="white"/>
<path d="M65.2146 26.971H39.1581C39.1366 26.971 39.1159 26.9611 39.1007 26.9436C39.0855 26.9261 39.0769 26.9024 39.0769 26.8776C39.0769 26.8528 39.0855 26.8291 39.1007 26.8115C39.1159 26.794 39.1366 26.7842 39.1581 26.7842H65.2146C65.2361 26.7842 65.2568 26.794 65.272 26.8115C65.2872 26.8291 65.2958 26.8528 65.2958 26.8776C65.2958 26.9024 65.2872 26.9261 65.272 26.9436C65.2568 26.9611 65.2361 26.971 65.2146 26.971Z" fill="white"/>
<path d="M52.2217 29.773H39.1581C39.1366 29.773 39.1159 29.7631 39.1007 29.7456C39.0855 29.7281 39.0769 29.7044 39.0769 29.6796C39.0769 29.6548 39.0855 29.6311 39.1007 29.6135C39.1159 29.596 39.1366 29.5862 39.1581 29.5862H52.2217C52.2432 29.5862 52.2639 29.596 52.2791 29.6135C52.2944 29.6311 52.3029 29.6548 52.3029 29.6796C52.3029 29.7044 52.2944 29.7281 52.2791 29.7456C52.2639 29.7631 52.2432 29.773 52.2217 29.773Z" fill="white"/>
<path d="M48.7605 92.218H70.2245L73.4657 95.0094V83.099C73.4656 82.5298 73.2689 81.9838 72.9189 81.5813C72.5688 81.1788 72.094 80.9526 71.599 80.9526H48.7605C48.2654 80.9526 47.7906 81.1788 47.4405 81.5813C47.0905 81.9839 46.8938 82.5299 46.8938 83.0992V90.0716C46.8938 90.6409 47.0905 91.1868 47.4406 91.5893C47.7906 91.9919 48.2654 92.218 48.7605 92.218Z" fill="#367CFF"/>
<path opacity="0.11" d="M48.7605 92.218H70.2245L73.4657 95.0094V83.099C73.4656 82.5298 73.2689 81.9838 72.9189 81.5813C72.5688 81.1788 72.094 80.9526 71.599 80.9526H48.7605C48.2654 80.9526 47.7906 81.1788 47.4405 81.5813C47.0905 81.9839 46.8938 82.5299 46.8938 83.0992V90.0716C46.8938 90.6409 47.0905 91.1868 47.4406 91.5893C47.7906 91.9919 48.2654 92.218 48.7605 92.218Z" fill="white"/>
<path d="M71.1779 84.0896H49.1817C49.1603 84.0896 49.1397 84.0798 49.1245 84.0623C49.1094 84.0449 49.1008 84.0212 49.1008 83.9966C49.1008 83.9719 49.1094 83.9482 49.1245 83.9308C49.1397 83.9134 49.1603 83.9036 49.1817 83.9036H71.1779C71.1993 83.9036 71.2199 83.9134 71.2351 83.9308C71.2502 83.9482 71.2588 83.9719 71.2588 83.9966C71.2588 84.0212 71.2502 84.0449 71.2351 84.0623C71.2199 84.0798 71.1993 84.0896 71.1779 84.0896Z" fill="white"/>
<path d="M71.1778 86.8916H49.1816C49.16 86.8916 49.1394 86.8818 49.1241 86.8643C49.1089 86.8468 49.1003 86.823 49.1003 86.7982C49.1003 86.7735 49.1089 86.7497 49.1241 86.7322C49.1394 86.7147 49.16 86.7048 49.1816 86.7048H71.1778C71.1993 86.7048 71.22 86.7147 71.2352 86.7322C71.2504 86.7497 71.259 86.7735 71.259 86.7982C71.259 86.823 71.2504 86.8468 71.2352 86.8643C71.22 86.8818 71.1993 86.8916 71.1778 86.8916Z" fill="white"/>
<path d="M71.1778 89.6924H58.1142C58.0926 89.6924 58.072 89.6826 58.0567 89.6651C58.0415 89.6476 58.033 89.6238 58.033 89.599C58.033 89.5742 58.0415 89.5505 58.0567 89.533C58.072 89.5155 58.0926 89.5056 58.1142 89.5056H71.1778C71.1993 89.5056 71.22 89.5155 71.2352 89.533C71.2504 89.5505 71.259 89.5742 71.259 89.599C71.259 89.6238 71.2504 89.6476 71.2352 89.6651C71.22 89.6826 71.1993 89.6924 71.1778 89.6924Z" fill="white"/>
<path d="M48.7605 53.8046H70.2245L73.4657 56.5961V42.0284C73.4657 41.4591 73.269 40.9131 72.9189 40.5105C72.5688 40.108 72.094 39.8818 71.599 39.8818H48.7605C48.2654 39.8818 47.7906 40.108 47.4405 40.5105C47.0905 40.9131 46.8938 41.4591 46.8938 42.0284V51.658C46.8938 52.2273 47.0905 52.7733 47.4405 53.1759C47.7906 53.5784 48.2654 53.8046 48.7605 53.8046Z" fill="#367CFF"/>
<path opacity="0.11" d="M48.7605 53.8046H70.2245L73.4657 56.5961V42.0284C73.4657 41.4591 73.269 40.9131 72.9189 40.5105C72.5688 40.108 72.094 39.8818 71.599 39.8818H48.7605C48.2654 39.8818 47.7906 40.108 47.4405 40.5105C47.0905 40.9131 46.8938 41.4591 46.8938 42.0284V51.658C46.8938 52.2273 47.0905 52.7733 47.4405 53.1759C47.7906 53.5784 48.2654 53.8046 48.7605 53.8046Z" fill="white"/>
<path d="M71.1779 45.6762H49.1817C49.1603 45.6762 49.1397 45.6664 49.1245 45.649C49.1094 45.6316 49.1008 45.6079 49.1008 45.5832C49.1008 45.5586 49.1094 45.5349 49.1245 45.5175C49.1397 45.5 49.1603 45.4902 49.1817 45.4902H71.1779C71.1885 45.4902 71.199 45.4926 71.2088 45.4973C71.2187 45.502 71.2276 45.5088 71.2351 45.5175C71.2426 45.5261 71.2485 45.5364 71.2526 45.5476C71.2567 45.5589 71.2588 45.571 71.2588 45.5832C71.2588 45.5955 71.2567 45.6075 71.2526 45.6188C71.2485 45.6301 71.2426 45.6404 71.2351 45.649C71.2276 45.6576 71.2187 45.6645 71.2088 45.6692C71.199 45.6738 71.1885 45.6762 71.1779 45.6762Z" fill="white"/>
<path d="M71.1779 43.019H49.1817C49.1603 43.019 49.1397 43.0092 49.1245 42.9918C49.1094 42.9743 49.1008 42.9507 49.1008 42.926C49.1008 42.9013 49.1094 42.8777 49.1245 42.8602C49.1397 42.8428 49.1603 42.833 49.1817 42.833H71.1779C71.1993 42.833 71.2199 42.8428 71.2351 42.8602C71.2502 42.8777 71.2588 42.9013 71.2588 42.926C71.2588 42.9507 71.2502 42.9743 71.2351 42.9918C71.2199 43.0092 71.1993 43.019 71.1779 43.019Z" fill="white"/>
<path d="M71.1778 48.4776H49.1816C49.16 48.4776 49.1394 48.4677 49.1241 48.4502C49.1089 48.4327 49.1003 48.4089 49.1003 48.3842C49.1003 48.3594 49.1089 48.3356 49.1241 48.3181C49.1394 48.3006 49.16 48.2908 49.1816 48.2908H71.1778C71.1993 48.2908 71.22 48.3006 71.2352 48.3181C71.2504 48.3356 71.259 48.3594 71.259 48.3842C71.259 48.4089 71.2504 48.4327 71.2352 48.4502C71.22 48.4677 71.1993 48.4776 71.1778 48.4776Z" fill="white"/>
<path d="M71.1778 51.2791H58.1142C58.0926 51.2791 58.072 51.2692 58.0567 51.2517C58.0415 51.2342 58.033 51.2105 58.033 51.1857C58.033 51.1609 58.0415 51.1372 58.0567 51.1196C58.072 51.1021 58.0926 51.0923 58.1142 51.0923H71.1778C71.1993 51.0923 71.22 51.1021 71.2352 51.1196C71.2504 51.1372 71.259 51.1609 71.259 51.1857C71.259 51.2105 71.2504 51.2342 71.2352 51.2517C71.22 51.2692 71.1993 51.2791 71.1778 51.2791Z" fill="white"/>
<path d="M65.6358 73.4255H40.1115L36.8704 76.217V64.0262C36.8704 63.4569 37.067 62.9109 37.4171 62.5083C37.7672 62.1058 38.242 61.8796 38.737 61.8796H65.6358C66.1308 61.8796 66.6056 62.1058 66.9557 62.5083C67.3058 62.9109 67.5025 63.4569 67.5025 64.0262V71.2791C67.5025 71.561 67.4542 71.8401 67.3604 72.1005C67.2666 72.3609 67.129 72.5975 66.9557 72.7969C66.7824 72.9962 66.5766 73.1543 66.3501 73.2621C66.1236 73.37 65.8809 73.4255 65.6358 73.4255Z" fill="#367CFF"/>
<path opacity="0.49" d="M67.5025 73.4257H40.1115L36.8704 76.2173V61.8801H67.5025V73.4257Z" fill="white"/>
<path d="M65.2146 65.0171H39.1581C39.1366 65.0171 39.1159 65.0073 39.1007 64.9898C39.0855 64.9723 39.0769 64.9485 39.0769 64.9237C39.0769 64.899 39.0855 64.8752 39.1007 64.8577C39.1159 64.8402 39.1366 64.8303 39.1581 64.8303H65.2146C65.2361 64.8303 65.2568 64.8402 65.272 64.8577C65.2872 64.8752 65.2958 64.899 65.2958 64.9237C65.2958 64.9485 65.2872 64.9723 65.272 64.9898C65.2568 65.0073 65.2361 65.0171 65.2146 65.0171Z" fill="white"/>
<path d="M65.2146 67.8184H39.1581C39.1366 67.8184 39.1159 67.8086 39.1007 67.791C39.0855 67.7735 39.0769 67.7498 39.0769 67.725C39.0769 67.7002 39.0855 67.6765 39.1007 67.6589C39.1159 67.6414 39.1366 67.6316 39.1581 67.6316H65.2146C65.2361 67.6316 65.2568 67.6414 65.272 67.6589C65.2872 67.6765 65.2958 67.7002 65.2958 67.725C65.2958 67.7498 65.2872 67.7735 65.272 67.791C65.2568 67.8086 65.2361 67.8184 65.2146 67.8184Z" fill="white"/>
<path d="M52.2218 70.6736H39.1583C39.1368 70.6736 39.1163 70.6638 39.1011 70.6463C39.0859 70.6289 39.0774 70.6052 39.0774 70.5805C39.0774 70.5559 39.0859 70.5322 39.1011 70.5148C39.1163 70.4973 39.1368 70.4875 39.1583 70.4875H52.2218C52.2433 70.4875 52.2639 70.4973 52.279 70.5148C52.2942 70.5322 52.3027 70.5559 52.3027 70.5805C52.3027 70.6052 52.2942 70.6289 52.279 70.6463C52.2639 70.6638 52.2433 70.6736 52.2218 70.6736Z" fill="white"/>
<path d="M72.3806 105.249H38.1183C37.6399 105.249 37.1812 105.03 36.8429 104.641C36.5047 104.252 36.3147 103.725 36.3147 103.175V101.095C36.3147 100.545 36.5047 100.018 36.843 99.6285C37.1813 99.2395 37.6401 99.021 38.1185 99.021H72.3806C72.859 99.021 73.3178 99.2395 73.6561 99.6285C73.9944 100.018 74.1844 100.545 74.1844 101.095V103.175C74.1844 103.725 73.9944 104.252 73.6561 104.641C73.3178 105.03 72.859 105.249 72.3806 105.249ZM38.1183 99.2079C37.9027 99.2079 37.6893 99.2567 37.4901 99.3515C37.2909 99.4463 37.1099 99.5853 36.9574 99.7606C36.805 99.9358 36.684 100.144 36.6015 100.373C36.519 100.602 36.4765 100.847 36.4765 101.095V103.175C36.4765 103.675 36.6494 104.155 36.9573 104.509C37.2651 104.863 37.6826 105.062 38.118 105.062H72.3806C72.8159 105.062 73.2334 104.863 73.5412 104.509C73.849 104.155 74.022 103.675 74.022 103.175V101.095C74.0219 100.595 73.849 100.115 73.5412 99.7607C73.2334 99.4068 72.8159 99.2079 72.3806 99.2079H38.1183Z" fill="#367CFF"/>
<path d="M69.4727 100.794L70.1021 102.002L72.5395 100.785L70.3425 102.464L71.0928 103.904L72.9992 100.534L69.4727 100.794Z" fill="#0CBC8B"/>
</svg>
