<svg width="120" height="119" viewBox="0 0 120 119" fill="none" xmlns="http://www.w3.org/2000/svg">
<path d="M85.8113 119C104.417 119 119.5 117.563 119.5 115.79C119.5 114.017 104.417 112.58 85.8113 112.58C67.2054 112.58 52.1223 114.017 52.1223 115.79C52.1223 117.563 67.2054 119 85.8113 119Z" fill="white"/>
<path opacity="0.1" d="M85.8113 119C104.417 119 119.5 117.563 119.5 115.79C119.5 114.017 104.417 112.58 85.8113 112.58C67.2054 112.58 52.1223 114.017 52.1223 115.79C52.1223 117.563 67.2054 119 85.8113 119Z" fill="#292A2E"/>
<path d="M29.886 68.0569H19.1475V71.2832H29.886V68.0569Z" fill="#F4F4F4"/>
<path opacity="0.05" d="M21.9967 68.0569H20.5896V71.2832H21.9967V68.0569Z" fill="#292A2E"/>
<path d="M28.5137 68.7578H22.6631V70.6697H28.5137V68.7578Z" fill="white"/>
<path d="M38.4513 68.4778L28.4734 63.9778L27.2228 66.9344L37.2007 71.4344L38.4513 68.4778Z" fill="#F4F4F4"/>
<path opacity="0.05" d="M38.4513 68.4778L28.4734 63.9778L27.2228 66.9344L37.2007 71.4344L38.4513 68.4778Z" fill="#292A2E"/>
<path d="M37.1114 67.8733L35.804 67.2837L34.5534 70.2403L35.8608 70.8299L37.1114 67.8733Z" fill="white"/>
<path d="M34.9127 67.647L29.4766 65.1953L28.7355 66.9474L34.1716 69.399L34.9127 67.647Z" fill="white"/>
<path opacity="0.05" d="M38.4701 108.927H35.7715V110.788H38.4701V108.927Z" fill="#292A2E"/>
<path opacity="0.05" d="M10.8797 108.927H8.18115V110.788H10.8797V108.927Z" fill="#292A2E"/>
<path d="M40.9438 71.4341H5.70752V108.864H40.9438V71.4341Z" fill="#F4F4F4"/>
<path opacity="0.03" d="M40.9438 71.4341H5.70752V108.864H40.9438V71.4341Z" fill="#292A2E"/>
<path d="M47.4736 71.4341H12.2373V108.864H47.4736V71.4341Z" fill="#F4F4F4"/>
<path opacity="0.05" d="M44.9999 108.927H42.3013V110.788H44.9999V108.927Z" fill="#292A2E"/>
<path opacity="0.05" d="M17.4095 108.927H14.7109V110.788H17.4095V108.927Z" fill="#292A2E"/>
<path opacity="0.7" d="M46.1509 73.1873H13.5601V80.3784H46.1509V73.1873Z" fill="white"/>
<path opacity="0.7" d="M46.1509 82.1384H13.5601V89.3296H46.1509V82.1384Z" fill="white"/>
<path opacity="0.7" d="M46.1509 91.0896H13.5601V98.2808H46.1509V91.0896Z" fill="white"/>
<path opacity="0.05" d="M29.8558 77.789C30.394 77.789 30.8302 77.3385 30.8302 76.7828C30.8302 76.2271 30.394 75.7766 29.8558 75.7766C29.3176 75.7766 28.8813 76.2271 28.8813 76.7828C28.8813 77.3385 29.3176 77.789 29.8558 77.789Z" fill="#292A2E"/>
<path opacity="0.05" d="M29.8558 86.7404C30.394 86.7404 30.8302 86.2899 30.8302 85.7342C30.8302 85.1785 30.394 84.728 29.8558 84.728C29.3176 84.728 28.8813 85.1785 28.8813 85.7342C28.8813 86.2899 29.3176 86.7404 29.8558 86.7404Z" fill="#292A2E"/>
<path opacity="0.05" d="M29.8558 95.6916C30.394 95.6916 30.8302 95.2411 30.8302 94.6854C30.8302 94.1297 30.394 93.6792 29.8558 93.6792C29.3176 93.6792 28.8813 94.1297 28.8813 94.6854C28.8813 95.2411 29.3176 95.6916 29.8558 95.6916Z" fill="#292A2E"/>
<path opacity="0.7" d="M46.1509 100.243H13.5601V107.434H46.1509V100.243Z" fill="white"/>
<path opacity="0.05" d="M29.8558 104.844C30.394 104.844 30.8302 104.394 30.8302 103.838C30.8302 103.283 30.394 102.832 29.8558 102.832C29.3176 102.832 28.8813 103.283 28.8813 103.838C28.8813 104.394 29.3176 104.844 29.8558 104.844Z" fill="#292A2E"/>
<path d="M18.2156 34.2832H39.051V6.27992L18.2156 6.27992L18.2156 34.2832Z" fill="#F4F4F4"/>
<path d="M18.2162 6.27979H17.5403V34.2831H18.2162V6.27979Z" fill="#F4F4F4"/>
<path opacity="0.05" d="M18.2162 6.27979H17.5403V34.2831H18.2162V6.27979Z" fill="#292A2E"/>
<path opacity="0.05" d="M22.0114 29.1821H35.2559V11.3811H22.0114V29.1821Z" fill="#292A2E"/>
<path opacity="0.03" d="M22.0114 29.1821H22.7017L22.7017 11.3811H22.0114L22.0114 29.1821Z" fill="#292A2E"/>
<path d="M1.17564 58.926H18.2156L18.2156 41.1693H1.17564L1.17564 58.926Z" fill="#F4F4F4"/>
<path opacity="0.05" d="M4.27977 55.6917H15.1116L15.1116 44.4043H4.27977L4.27977 55.6917Z" fill="#292A2E"/>
<path d="M1.17592 41.1697H0.5V58.9264H1.17592V41.1697Z" fill="#F4F4F4"/>
<path opacity="0.05" d="M1.17592 41.1697H0.5V58.9264H1.17592V41.1697Z" fill="#292A2E"/>
<path opacity="0.03" d="M4.27975 55.6917H4.96997L4.96997 44.4043H4.27975L4.27975 55.6917Z" fill="#292A2E"/>
<path d="M105.083 6.21313H61.6033V51.1098H105.083V6.21313Z" fill="#F4F4F4"/>
<path d="M61.6034 6.21313H61.105V51.1098H61.6034V6.21313Z" fill="#F4F4F4"/>
<path opacity="0.05" d="M61.6034 6.21313H61.105V51.1098H61.6034V6.21313Z" fill="#292A2E"/>
<path opacity="0.05" d="M72.1363 37.1506V25.4041H81.4548V32.2286H95.8891V44.312H102.024V51.1098H95.8891H94.7073H63.6946V37.1506H72.1363Z" fill="#292A2E"/>
<path opacity="0.34" d="M80.2587 26.6792H73.4729V27.9546H80.2587V26.6792Z" fill="#FFFFFA"/>
<path opacity="0.34" d="M80.2587 29.3223H73.4729V30.5976H80.2587V29.3223Z" fill="#FFFFFA"/>
<path opacity="0.34" d="M80.2587 31.9651H73.4729V33.2405H80.2587V31.9651Z" fill="#FFFFFA"/>
<path opacity="0.34" d="M66.1485 38.3884H64.8977V39.6638H66.1485V38.3884Z" fill="#FFFFFA"/>
<path opacity="0.34" d="M66.1485 41.0312H64.8977V42.3066H66.1485V41.0312Z" fill="#FFFFFA"/>
<path opacity="0.34" d="M66.1485 43.6741H64.8977V44.9494H66.1485V43.6741Z" fill="#FFFFFA"/>
<path opacity="0.34" d="M68.4627 38.3884H67.2119V39.6638H68.4627V38.3884Z" fill="#FFFFFA"/>
<path opacity="0.34" d="M68.4627 41.0312H67.2119V42.3066H68.4627V41.0312Z" fill="#FFFFFA"/>
<path opacity="0.34" d="M68.4627 43.6741H67.2119V44.9494H68.4627V43.6741Z" fill="#FFFFFA"/>
<path opacity="0.34" d="M70.7139 38.3884H69.4631V39.6638H70.7139V38.3884Z" fill="#FFFFFA"/>
<path opacity="0.34" d="M70.7139 41.0312H69.4631V42.3066H70.7139V41.0312Z" fill="#FFFFFA"/>
<path opacity="0.34" d="M70.7139 43.6741H69.4631V44.9494H70.7139V43.6741Z" fill="#FFFFFA"/>
<path d="M61.6033 28.4095H70.3521V6.21289H71.0758V28.4095H94.7075V6.21289H95.431V28.4095H105.083V29.1565H95.431V51.1097H94.7075V29.1565H71.0758V51.1097H70.3521V29.1565H61.6033V28.4095Z" fill="white"/>
<path d="M106.815 51.0554H59.8711V52.5485H106.815V51.0554Z" fill="#F4F4F4"/>
<path opacity="0.1" d="M106.815 51.0554H59.8711V52.5485H106.815V51.0554Z" fill="#292A2E"/>
<path opacity="0.1" d="M59.8709 51.0554H59.1931V52.5485H59.8709V51.0554Z" fill="#292A2E"/>
<path opacity="0.1" d="M59.8709 51.0554H59.1931V52.5485H59.8709V51.0554Z" fill="#292A2E"/>
<path d="M97.6275 58.7471C90.971 58.7471 85.5747 60.6222 85.5747 62.9354V67.9216H109.68V62.9354C109.68 60.6222 104.284 58.7471 97.6275 58.7471Z" fill="#367CFF"/>
<path opacity="0.49" d="M97.6275 58.7471C90.971 58.7471 85.5747 60.6222 85.5747 62.9354V67.9216H109.68V62.9354C109.68 60.6222 104.284 58.7471 97.6275 58.7471Z" fill="white"/>
<path opacity="0.49" d="M106.396 62.9358V67.9212H85.5735V62.9358C85.5735 60.8157 90.1055 59.0638 95.9847 58.7869C101.865 59.0638 106.396 60.8157 106.396 62.9358Z" fill="white"/>
<path d="M109.679 116.371H110.084L109.679 67.4792L109.278 67.897L109.564 102.049L95.2849 102.299L94.9968 67.8934L94.5957 67.897L94.8839 102.306L86.264 102.458L85.9745 67.8934L85.5735 67.4828L85.978 116.371L86.3756 116.367L86.2673 102.872L94.8873 102.721L94.9968 116.371L95.3978 116.367L95.2883 102.714L109.568 102.463L109.679 116.371Z" fill="#292A2E"/>
<path d="M73.3243 109.051C73.3243 109.051 72.6074 112.887 69.1285 113.101C65.6496 113.315 66.404 116.177 66.404 116.177H79.6984V109.318L73.3243 109.051Z" fill="#367CFF"/>
<path d="M80.9094 97.5108C80.9094 97.5108 81.9063 101.28 78.8761 103.058C75.846 104.835 77.7462 107.059 77.7462 107.059L89.6752 100.999L86.7433 94.8452L80.9094 97.5108Z" fill="#367CFF"/>
<path d="M79.6472 100.002L70.6587 64.9826C69.9769 61.1138 71.0033 59.4369 72.585 57.8079C75.3638 54.9459 86.8783 48.8544 86.8783 48.8544L100.692 48.8154C104.355 48.8154 107.956 52.5449 107.956 56.327C107.956 60.109 104.232 63.3166 100.569 63.3166L83.5587 65.0697L88.1698 97.1349L79.6472 100.002Z" fill="#262626"/>
<path d="M88.1698 97.1346L86.3545 84.511L77.158 90.3038L79.6473 100.002L88.1698 97.1346Z" fill="#0C0C0C"/>
<path d="M90.2546 55.9409C90.2546 55.9409 84.4477 57.2772 78.6965 63.2157C75.2095 66.8163 75.4955 73.332 76.0186 85.8638L81.7306 77.152L87.9957 65.4844L90.2546 55.9409Z" fill="#0C0C0C"/>
<path d="M110.36 48.8116L100.979 48.7659L100.975 48.8934H98.1348C98.1348 48.8934 91.0189 55.6542 85.2905 59.9145C81.1235 63.0133 78.5814 65.9677 78.3615 69.1876C77.8253 77.0368 71.7776 110.513 71.7776 110.513L80.8792 111.936L88.8666 71.9295C88.8666 71.9295 101.356 65.984 104.244 63.9154C106.965 61.9672 108.886 61.2141 109.786 59.0879C111.341 55.4159 110.36 48.8116 110.36 48.8116Z" fill="#262626"/>
<path d="M99.8356 51.2515L84.6167 51.4597L93.1538 56.7246L100.257 52.9369C100.428 52.842 100.564 52.6905 100.642 52.5067C100.72 52.323 100.736 52.1175 100.687 51.9233C100.638 51.7291 100.528 51.5573 100.374 51.4355C100.219 51.3137 100.03 51.2489 99.8356 51.2515Z" fill="#292A2E"/>
<path opacity="0.2" d="M99.8356 51.2515L84.6167 51.4597L93.1538 56.7246L100.257 52.9369C100.428 52.842 100.564 52.6905 100.642 52.5067C100.72 52.323 100.736 52.1175 100.687 51.9233C100.638 51.7291 100.528 51.5573 100.374 51.4355C100.219 51.3137 100.03 51.2489 99.8356 51.2515Z" fill="white"/>
<path d="M84.7039 23.0591L80.3992 37.4611L71.7771 49.1176L76.8137 55.0877L87.0714 43.2659C87.544 42.8803 87.9136 42.3767 88.1455 41.8027L88.3053 41.4033L94.2303 26.6005L84.7039 23.0591Z" fill="#367CFF"/>
<path d="M91.335 7.77187C91.335 7.77187 89.6004 6.41907 89.1707 3.3076C88.8378 0.898361 90.9902 2.4592 90.9902 2.4592C90.9902 2.4592 90.7669 0.721944 91.9928 0.894358C93.2187 1.06677 93.9046 2.89168 93.9046 2.89168" fill="#0C0C0C"/>
<path d="M98.3286 1.09741C98.3286 1.09741 104.411 1.77064 102.212 10.2806L101.674 10.3179L100.581 10.3936" fill="#0C0C0C"/>
<path d="M92.354 19.1683C92.3807 19.1647 92.6775 24.2482 98.3966 23.8055C102.357 23.4992 103.768 19.1611 103.859 19.1611C103.432 19.0674 102.905 18.9252 102.695 18.8764C102.238 18.7669 101.824 18.5163 101.508 18.158C101.193 17.7997 100.99 17.3505 100.928 16.8704C100.812 16.1498 101.008 12.463 100.948 11.7339L94.8701 13.1347C94.9551 14.6747 95.5495 18.2446 93.4664 18.8764C93.1195 18.9808 92.746 19.0774 92.354 19.1683Z" fill="#E98862"/>
<path opacity="0.52" d="M94.7849 17.4172C94.8801 17.1003 94.9414 16.7737 94.9678 16.443C95.0345 15.6886 95.0211 14.9288 94.9277 14.1774C96.1632 14.0054 97.3271 13.4791 98.2874 12.6582C98.4003 13.0886 99.021 14.9693 98.8489 15.3776C98.5243 16.1507 96.9977 17.4172 94.7849 17.4172Z" fill="#0C0C0C"/>
<path d="M96.0395 16.4112C98.4374 16.1891 101.308 14.6247 101.349 11.2635L101.386 8.23075C101.428 4.86971 99.7516 2.12254 96.6868 2.08223C93.622 2.04206 91.2976 4.73664 91.2562 8.09781L91.2397 9.44041C91.2418 9.90152 91.2743 10.3619 91.3371 10.8185C91.4943 12.0263 91.7381 13.8627 92.532 15.105C93.2815 16.2778 94.5074 16.553 96.0395 16.4112Z" fill="#E98862"/>
<path opacity="0.52" d="M94.9266 13.3391C94.4317 13.3623 93.9385 13.265 93.4867 13.0552C93.4682 13.0466 93.4538 13.0308 93.4464 13.0114C93.4391 12.9919 93.4394 12.9702 93.4474 12.951C93.4553 12.9318 93.4702 12.9165 93.4889 12.9085C93.5076 12.9005 93.5286 12.9004 93.5474 12.9082C94.5207 13.3368 95.4045 13.2741 96.1032 12.7268C96.1173 12.7153 96.1319 12.7045 96.147 12.6946C96.1646 12.6861 96.1847 12.6847 96.2032 12.6907C96.2217 12.6967 96.2374 12.7097 96.2471 12.727C96.2568 12.7444 96.2598 12.7649 96.2555 12.7845C96.2512 12.8041 96.24 12.8212 96.224 12.8327C96.2184 12.8362 96.2093 12.8436 96.1973 12.8535C95.83 13.1424 95.3876 13.3115 94.9266 13.3391Z" fill="#0C0C0C"/>
<path opacity="0.52" d="M94.9494 14.096C94.86 14.1017 94.7703 14.0995 94.6812 14.0894C94.6711 14.0883 94.6613 14.0852 94.6524 14.0801C94.6435 14.0751 94.6356 14.0684 94.6292 14.0602C94.6229 14.0521 94.6181 14.0427 94.6152 14.0326C94.6124 14.0226 94.6114 14.012 94.6125 14.0016C94.6136 13.9912 94.6166 13.9811 94.6215 13.9719C94.6263 13.9627 94.6329 13.9545 94.6408 13.948C94.6487 13.9414 94.6577 13.9364 94.6675 13.9335C94.6772 13.9305 94.6874 13.9296 94.6975 13.9307C95.2331 13.9893 95.4888 13.736 95.4996 13.7251C95.5141 13.7101 95.5338 13.7017 95.5543 13.7017C95.5748 13.7016 95.5945 13.71 95.609 13.725C95.6235 13.7399 95.6317 13.7602 95.6317 13.7814C95.6317 13.8026 95.6236 13.8229 95.6091 13.8379C95.4247 14.0001 95.1916 14.0913 94.9494 14.096Z" fill="#0C0C0C"/>
<path d="M92.2684 10.0868C92.4769 10.0868 92.6459 9.91226 92.6459 9.69696C92.6459 9.48166 92.4769 9.30713 92.2684 9.30713C92.0599 9.30713 91.8909 9.48166 91.8909 9.69696C91.8909 9.91226 92.0599 10.0868 92.2684 10.0868Z" fill="#0C0C0C"/>
<path d="M95.9564 9.84777C96.1649 9.84777 96.3339 9.67324 96.3339 9.45794C96.3339 9.24265 96.1649 9.06812 95.9564 9.06812C95.7479 9.06812 95.5789 9.24265 95.5789 9.45794C95.5789 9.67324 95.7479 9.84777 95.9564 9.84777Z" fill="#0C0C0C"/>
<path d="M101.146 12.2856C102.077 12.2979 102.845 11.2789 102.857 10.3172C102.869 9.35542 102.12 8.81513 101.189 8.80298L100.701 9.44101L100.345 12.2751L101.146 12.2856Z" fill="#E98862"/>
<path d="M100.219 10.7394C100.219 10.7394 99.9048 5.98342 98.5081 5.68967C97.5779 5.49407 95.3222 6.85654 93.2328 6.44504C92.3188 6.26558 91.4511 6.4986 91.3628 6.94447C91.3278 7.12103 90.7584 4.58396 92.1898 2.6591C93.3295 1.12684 97.0589 0.693388 98.7557 1.19586C103.454 2.5876 101.381 9.01137 101.381 9.01137L101.171 10.651L100.219 10.7394Z" fill="#0C0C0C"/>
<g opacity="0.52">
<path d="M94.3638 12.2166C94.3619 12.2167 94.3599 12.2167 94.358 12.2166C94.0578 12.2135 93.5546 12.1736 93.5566 11.9419C93.5588 11.7497 94.0882 9.68142 94.1486 9.4462C94.1538 9.42595 94.1666 9.40867 94.1841 9.39814C94.2016 9.38762 94.2225 9.38472 94.2421 9.39008C94.2617 9.39545 94.2785 9.40864 94.2887 9.42674C94.2989 9.44485 94.3017 9.4664 94.2965 9.48664C94.0612 10.4027 93.7109 11.8129 93.7096 11.9438C93.7386 11.999 94.0486 12.0559 94.3593 12.0592C94.3789 12.0596 94.3976 12.0678 94.4115 12.0821C94.4254 12.0963 94.4335 12.1155 94.4341 12.1358C94.4347 12.156 94.4277 12.1757 94.4146 12.1908C94.4016 12.2059 94.3834 12.2152 94.3638 12.2168V12.2166Z" fill="#0C0C0C"/>
</g>
<path d="M93.3397 7.58311C93.0242 7.49346 92.6912 7.49346 92.3757 7.58311C92.2208 7.62613 92.073 7.69296 91.9373 7.78133C91.8031 7.86787 91.6801 7.97158 91.571 8.09C91.5509 8.11109 91.5395 8.13937 91.5391 8.16896C91.5387 8.19855 91.5493 8.22717 91.5688 8.24886C91.5883 8.27055 91.6151 8.28365 91.6437 8.28543C91.6723 8.28721 91.7005 8.27753 91.7224 8.25841L91.7292 8.25233C91.8301 8.15581 91.9424 8.07283 92.0634 8.00538C92.1821 7.93822 92.31 7.89001 92.4427 7.86237C92.7039 7.80582 92.9749 7.82149 93.2284 7.90778L93.2389 7.91165C93.2804 7.92545 93.3255 7.92201 93.3645 7.90205C93.4036 7.88208 93.4336 7.84717 93.4481 7.80474C93.4626 7.76231 93.4605 7.7157 93.4423 7.67483C93.424 7.63395 93.3911 7.60204 93.3504 7.58587L93.3397 7.58311Z" fill="#0C0C0C"/>
<path d="M95.5732 7.77855C95.8132 7.65813 96.0798 7.60532 96.346 7.62546C96.4811 7.63452 96.614 7.66468 96.7403 7.71492C96.8687 7.76524 96.9906 7.83202 97.103 7.9137L97.1102 7.91867C97.1343 7.93472 97.1635 7.94053 97.1917 7.93489C97.2199 7.92925 97.2448 7.9126 97.2614 7.8884C97.278 7.8642 97.2849 7.83432 97.2806 7.80501C97.2764 7.7757 97.2613 7.74921 97.2386 7.73107C97.1153 7.62871 96.98 7.54286 96.8358 7.47555C96.6899 7.40665 96.5348 7.36077 96.3757 7.33944C96.0515 7.29383 95.7215 7.33947 95.4204 7.47155C95.4002 7.48061 95.3819 7.49369 95.3666 7.51005C95.3513 7.5264 95.3393 7.5457 95.3312 7.56685C95.3232 7.588 95.3192 7.61058 95.3196 7.63331C95.32 7.65604 95.3247 7.67847 95.3335 7.69932C95.3512 7.74142 95.3844 7.77453 95.4258 7.79135C95.4463 7.79969 95.4681 7.80377 95.4901 7.80337C95.5122 7.80298 95.5339 7.79811 95.5541 7.78904L95.5634 7.78449L95.5732 7.77855Z" fill="#0C0C0C"/>
<path d="M95.4205 2.68101C95.6325 1.63325 95.2455 0.663293 94.556 0.514563C93.8666 0.365833 93.1359 1.09465 92.9239 2.14241C92.7119 3.19017 93.0989 4.16012 93.7883 4.30885C94.4777 4.45758 95.2085 3.72877 95.4205 2.68101Z" fill="#0C0C0C"/>
<path d="M85.2471 30.3416C85.4273 32.527 86.7042 46.1625 86.878 48.8546H110.35C110.485 46.4266 111.09 35.8097 111.602 31.061C112.09 26.5302 112.774 24.4684 112.212 23.0605C111.22 20.5772 108.064 19.4683 105.926 19.1694C104.621 18.9869 102.658 18.8562 102.658 18.8562C102.658 18.8562 102.491 22.3284 98.5279 22.5216C93.1323 22.7839 93.4927 18.8562 93.466 18.8562C92.5918 18.8562 87.834 19.5126 86.6442 20.3132C84.9639 21.4441 84.4673 22.9853 84.4476 24.4012C84.4252 26.0319 85.0431 27.8625 85.2471 30.3416Z" fill="#367CFF"/>
<path d="M86.4376 43.4812C86.4208 43.4812 86.4047 43.4748 86.3923 43.4631C86.3799 43.4515 86.3722 43.4354 86.3707 43.4182L85.4815 32.916C85.4799 32.8978 85.4854 32.8796 85.4968 32.8656C85.5082 32.8516 85.5245 32.8428 85.5422 32.8412C85.5509 32.8402 85.5598 32.8411 85.5682 32.8438C85.5767 32.8465 85.5845 32.8509 85.5912 32.8568C85.598 32.8626 85.6036 32.8698 85.6076 32.8779C85.6116 32.886 85.614 32.8949 85.6146 32.904L86.5039 43.4062C86.5054 43.4244 86.4999 43.4425 86.4885 43.4565C86.4771 43.4705 86.4608 43.4793 86.4432 43.4809C86.4413 43.4811 86.4395 43.4812 86.4376 43.4812Z" fill="#0C0C0C"/>
<path d="M88.1393 49.5815L91.3622 46.8815L90.8199 47.0398C90.6438 47.0873 90.4569 47.064 90.2968 46.9746C90.1367 46.8853 90.0155 46.7365 89.9576 46.5584C89.9308 46.4653 89.9227 46.3677 89.9336 46.2713C89.9446 46.175 89.9745 46.0819 90.0214 45.9979C90.0684 45.9138 90.1314 45.8405 90.2067 45.7824C90.282 45.7244 90.3679 45.6828 90.4593 45.6601L97.23 43.9597L97.8126 46.1866C97.9936 46.8782 97.9704 47.6099 97.7461 48.2878C97.5218 48.9657 97.1065 49.5591 96.5535 49.9917L94.0448 51.9467C93.9164 52.0507 93.7571 52.1058 93.5939 52.1026C93.4307 52.0993 93.2736 52.038 93.1491 51.929C93.0386 51.828 92.9623 51.6931 92.9313 51.5441C92.9003 51.395 92.9164 51.2397 92.977 51.1008C92.9662 51.0974 92.9564 51.0912 92.9487 51.0825C92.9419 51.0742 92.9373 51.0642 92.9352 51.0535C92.933 51.0429 92.9335 51.0318 92.9365 51.0214L92.4744 51.3828C92.3316 51.4992 92.1513 51.5554 91.9699 51.5398C91.7886 51.5243 91.6197 51.4382 91.4975 51.299C91.3925 51.1707 91.3347 51.0082 91.3342 50.8402C91.3337 50.6722 91.3907 50.5094 91.495 50.3805C91.4877 50.3793 91.4807 50.3768 91.4743 50.3731L91.2844 50.5217C91.156 50.6257 90.9967 50.6808 90.8335 50.6776C90.6703 50.6743 90.5132 50.613 90.3887 50.504C90.2547 50.3815 90.1719 50.2101 90.1576 50.0258C90.1433 49.8416 90.1986 49.6588 90.312 49.5158C90.3093 49.5118 90.3071 49.5074 90.3053 49.5029L88.9631 50.6273C88.8966 50.683 88.82 50.7247 88.7379 50.7499C88.6558 50.7751 88.5697 50.7833 88.4844 50.7741C88.3992 50.765 88.3166 50.7386 88.2413 50.6964C88.1659 50.6543 88.0994 50.5972 88.0454 50.5285C87.9914 50.4598 87.9511 50.3808 87.9267 50.296C87.9023 50.2112 87.8943 50.1222 87.9032 50.0343C87.9121 49.9463 87.9376 49.8609 87.9785 49.7832C88.0193 49.7054 88.0745 49.6367 88.1411 49.5809L88.1393 49.5815Z" fill="#E98862"/>
<path opacity="0.2" d="M90.3857 49.5428C90.3928 49.5402 90.3995 49.5364 90.4053 49.5314L91.6967 48.4236C91.7032 48.4179 91.7086 48.411 91.7126 48.4032C91.7166 48.3954 91.719 48.3869 91.7198 48.3781C91.7206 48.3694 91.7197 48.3605 91.7171 48.3521C91.7146 48.3437 91.7105 48.3359 91.705 48.3291C91.6996 48.3223 91.6929 48.3167 91.6853 48.3126C91.6778 48.3085 91.6695 48.306 91.661 48.3052C91.6525 48.3044 91.6439 48.3053 91.6358 48.308C91.6276 48.3106 91.6201 48.3148 91.6135 48.3205L90.3222 49.4281C90.3105 49.4382 90.3026 49.4522 90.2999 49.4678C90.2971 49.4833 90.2998 49.4993 90.3074 49.513C90.315 49.5267 90.327 49.5372 90.3413 49.5426C90.3556 49.5481 90.3714 49.5481 90.3857 49.5428Z" fill="#0A0A0A"/>
<path opacity="0.2" d="M91.5241 50.3799C91.531 50.3774 91.5375 50.3736 91.5432 50.3688L92.5647 49.5063C92.578 49.495 92.5865 49.4788 92.5882 49.461C92.59 49.4433 92.5848 49.4256 92.5739 49.4119C92.563 49.3981 92.5472 49.3893 92.5301 49.3875C92.513 49.3858 92.4958 49.3911 92.4825 49.4023L91.461 50.2648C91.4491 50.2748 91.441 50.2889 91.4381 50.3044C91.4353 50.32 91.4379 50.3361 91.4454 50.3499C91.453 50.3637 91.465 50.3743 91.4794 50.3798C91.4938 50.3853 91.5096 50.3853 91.5241 50.3799Z" fill="#0A0A0A"/>
<path opacity="0.2" d="M93.0188 51.1031C93.0263 51.1003 93.0332 51.0961 93.0393 51.0908L93.5124 50.6718C93.5189 50.6661 93.5242 50.6591 93.528 50.6513C93.5319 50.6434 93.5342 50.6349 93.5349 50.6261C93.5355 50.6173 93.5345 50.6085 93.5318 50.6001C93.5292 50.5918 93.525 50.584 93.5194 50.5773C93.5139 50.5707 93.5071 50.5652 93.4995 50.5612C93.4919 50.5572 93.4836 50.5548 93.4751 50.5542C93.4666 50.5535 93.4581 50.5545 93.45 50.5573C93.4419 50.56 93.4344 50.5644 93.4279 50.5701L92.9547 50.9891C92.9432 50.9993 92.9355 51.0133 92.933 51.0287C92.9305 51.0442 92.9333 51.06 92.9409 51.0736C92.9485 51.0871 92.9605 51.0974 92.9747 51.1028C92.9889 51.1082 93.0046 51.1083 93.0188 51.1031Z" fill="#0A0A0A"/>
<path d="M116.624 42.9685L116.6 42.8551L112.315 23.2888L103.84 25.2672L107.183 40.54L93.7883 43.9388L95.4368 51.7434L113.287 48.2277C113.328 48.2196 113.387 48.2072 113.428 48.1976C113.97 48.071 114.483 47.8353 114.937 47.504C115.391 47.1727 115.778 46.7522 116.075 46.2667C116.372 45.7811 116.573 45.2399 116.667 44.674C116.761 44.1081 116.747 43.5285 116.624 42.9685Z" fill="#367CFF"/>
<path d="M93.7229 43.9535C93.7193 43.936 93.7225 43.9177 93.7317 43.9026C93.7409 43.8874 93.7555 43.8766 93.7723 43.8723L107.108 40.4903L104.94 30.6015C104.937 30.5925 104.936 30.5831 104.938 30.5738C104.939 30.5646 104.942 30.5556 104.946 30.5476C104.951 30.5396 104.957 30.5326 104.965 30.5271C104.972 30.5216 104.98 30.5177 104.989 30.5156C104.998 30.5136 105.007 30.5134 105.016 30.5151C105.025 30.5167 105.033 30.5203 105.041 30.5255C105.048 30.5307 105.055 30.5374 105.06 30.5452C105.065 30.553 105.068 30.5618 105.07 30.571L107.253 40.5259C107.257 40.5436 107.254 40.5623 107.244 40.5778C107.235 40.5933 107.221 40.6044 107.203 40.6087L93.867 43.9908C93.867 43.9908 93.9563 44.3933 93.9815 44.5291C93.9835 44.5468 93.9786 44.5646 93.9679 44.5785C93.9572 44.5925 93.9416 44.6015 93.9245 44.6035C93.9073 44.6056 93.8901 44.6005 93.8766 44.5895C93.8631 44.5784 93.8544 44.5623 93.8524 44.5446C93.8216 44.3956 93.7229 43.9535 93.7229 43.9535Z" fill="#0C0C0C"/>
<path d="M94.2457 54.8517L89.0954 38.5044C89.0049 38.2171 88.8287 37.9667 88.592 37.7892C88.3553 37.6117 88.0702 37.5161 87.7776 37.5161H66.7952C66.5764 37.5161 66.3608 37.5696 66.1659 37.6721C65.9711 37.7746 65.8024 37.9234 65.6739 38.1061C65.5454 38.2889 65.4606 38.5004 65.4264 38.7235C65.3923 38.9466 65.4097 39.1748 65.4774 39.3896L70.6278 55.7369C70.7183 56.0242 70.8946 56.2745 71.1313 56.452C71.368 56.6296 71.653 56.7252 71.9456 56.7252H92.9279C93.1466 56.7252 93.3622 56.6717 93.5571 56.5691C93.752 56.4666 93.9206 56.3179 94.0491 56.1351C94.1776 55.9524 94.2624 55.7408 94.2966 55.5178C94.3307 55.2947 94.3133 55.0664 94.2457 54.8517Z" fill="#292A2E"/>
<path opacity="0.2" d="M94.2457 54.8517L89.0954 38.5044C89.0049 38.2171 88.8287 37.9667 88.592 37.7892C88.3553 37.6117 88.0702 37.5161 87.7776 37.5161H66.7952C66.5764 37.5161 66.3608 37.5696 66.1659 37.6721C65.9711 37.7746 65.8024 37.9234 65.6739 38.1061C65.5454 38.2889 65.4606 38.5004 65.4264 38.7235C65.3923 38.9466 65.4097 39.1748 65.4774 39.3896L70.6278 55.7369C70.7183 56.0242 70.8946 56.2745 71.1313 56.452C71.368 56.6296 71.653 56.7252 71.9456 56.7252H92.9279C93.1466 56.7252 93.3622 56.6717 93.5571 56.5691C93.752 56.4666 93.9206 56.3179 94.0491 56.1351C94.1776 55.9524 94.2624 55.7408 94.2966 55.5178C94.3307 55.2947 94.3133 55.0664 94.2457 54.8517Z" fill="white"/>
<path d="M79.257 49.3932C80.4724 49.3932 81.4576 48.3759 81.4576 47.1209C81.4576 45.866 80.4724 44.8486 79.257 44.8486C78.0416 44.8486 77.0564 45.866 77.0564 47.1209C77.0564 48.3759 78.0416 49.3932 79.257 49.3932Z" fill="white"/>
<path d="M58.5407 1.72754H16.8957C14.9664 1.72754 13.4023 3.34252 13.4023 5.33471V57.538C13.4023 59.5301 14.9664 61.1451 16.8957 61.1451H58.5407C60.4701 61.1451 62.0341 59.5301 62.0341 57.538V5.33471C62.0341 3.34252 60.4701 1.72754 58.5407 1.72754Z" fill="#292A2E"/>
<path d="M60.0801 0.138184H18.435C16.5057 0.138184 14.9417 1.75317 14.9417 3.74535V55.9486C14.9417 57.9408 16.5057 59.5558 18.435 59.5558H60.0801C62.0094 59.5558 63.5734 57.9408 63.5734 55.9486V3.74535C63.5734 1.75317 62.0094 0.138184 60.0801 0.138184Z" fill="white"/>
<path d="M60.0797 59.6937H18.4347C17.473 59.6926 16.5511 59.2976 15.8711 58.5955C15.1911 57.8933 14.8086 56.9413 14.8076 55.9483V3.74521C14.8087 2.75226 15.1912 1.80028 15.8711 1.09816C16.5511 0.396032 17.473 0.00109614 18.4347 0L60.0797 0C61.0413 0.00113267 61.9632 0.396084 62.6432 1.09821C63.3231 1.80033 63.7056 2.75228 63.7066 3.74521V55.9483C63.7056 56.9413 63.3232 57.8933 62.6432 58.5954C61.9633 59.2976 61.0413 59.6925 60.0797 59.6937ZM18.4347 0.276083C17.5439 0.277107 16.69 0.642931 16.0601 1.2933C15.4303 1.94366 15.076 2.82545 15.075 3.74521V55.9483C15.076 56.8681 15.4303 57.7499 16.0601 58.4002C16.69 59.0506 17.5439 59.4164 18.4347 59.4174H60.0797C60.9704 59.4164 61.8244 59.0506 62.4542 58.4002C63.084 57.7499 63.4383 56.8681 63.4392 55.9483V3.74521C63.4383 2.82547 63.084 1.94368 62.4542 1.29331C61.8244 0.642936 60.9704 0.277107 60.0797 0.276083H18.4347Z" fill="#292A2E"/>
<path d="M14.3807 67.0252C19.1708 67.0252 23.0539 63.0156 23.0539 58.0695C23.0539 53.1234 19.1708 49.1138 14.3807 49.1138C9.59063 49.1138 5.70752 53.1234 5.70752 58.0695C5.70752 63.0156 9.59063 67.0252 14.3807 67.0252Z" fill="#292A2E"/>
<path d="M12.58 56.9006C12.4658 56.9006 12.3563 56.8538 12.2756 56.7705C12.1948 56.6871 12.1494 56.574 12.1494 56.4561V54.3039C12.1494 53.1139 13.1503 52.1455 14.3805 52.1455C15.6107 52.1455 16.6116 53.1139 16.6116 54.3039V56.3084C16.6126 56.3675 16.6022 56.4261 16.581 56.481C16.5598 56.5358 16.5283 56.5858 16.4882 56.6279C16.4481 56.67 16.4003 56.7035 16.3476 56.7263C16.2949 56.7491 16.2382 56.7609 16.1811 56.7609C16.1239 56.7609 16.0673 56.7491 16.0145 56.7263C15.9618 56.7035 15.914 56.67 15.8739 56.6279C15.8338 56.5858 15.8023 56.5358 15.7811 56.481C15.7599 56.4261 15.7495 56.3675 15.7505 56.3084V54.3039C15.7505 53.6041 15.1356 53.0346 14.3805 53.0346C13.6254 53.0346 13.0105 53.6041 13.0105 54.3039V56.4564C13.0104 56.5743 12.965 56.6872 12.8843 56.7705C12.8036 56.8538 12.6941 56.9006 12.58 56.9006Z" fill="white"/>
<path d="M17.1275 56.0842H11.634C11.3137 56.0842 11.054 56.3524 11.054 56.6832V62.0262C11.054 62.357 11.3137 62.6252 11.634 62.6252H17.1275C17.4478 62.6252 17.7075 62.357 17.7075 62.0262V56.6832C17.7075 56.3524 17.4478 56.0842 17.1275 56.0842Z" fill="white"/>
<path d="M13.8337 58.826C13.8336 58.932 13.8624 59.0358 13.9168 59.1257C13.9712 59.2156 14.0489 59.2878 14.1412 59.3343V60.202C14.1412 60.2674 14.1663 60.3301 14.2111 60.3763C14.2559 60.4226 14.3166 60.4485 14.3799 60.4485C14.4432 60.4485 14.504 60.4226 14.5487 60.3763C14.5935 60.3301 14.6187 60.2674 14.6187 60.202V59.3343C14.7065 59.2902 14.7814 59.2227 14.8354 59.1387C14.8895 59.0548 14.9208 58.9574 14.926 58.8567C14.9313 58.756 14.9104 58.6556 14.8654 58.5661C14.8204 58.4766 14.753 58.4012 14.6703 58.3476C14.5875 58.2941 14.4924 58.2644 14.3948 58.2617C14.2971 58.2589 14.2006 58.2833 14.1151 58.3321C14.0297 58.3809 13.9585 58.4525 13.9088 58.5393C13.8592 58.6262 13.833 58.7252 13.833 58.826H13.8337Z" fill="#292A2E"/>
<path d="M56.4436 29.7856H22.0718C21.2513 29.7856 20.5862 30.4725 20.5862 31.3197V36.2953C20.5862 37.1425 21.2513 37.8293 22.0718 37.8293H56.4436C57.2641 37.8293 57.9292 37.1425 57.9292 36.2953V31.3197C57.9292 30.4725 57.2641 29.7856 56.4436 29.7856Z" fill="white"/>
<path d="M56.4433 37.9672H22.0717C21.6424 37.9667 21.2308 37.7904 20.9272 37.4769C20.6237 37.1635 20.4529 36.7384 20.4524 36.2951V31.3197C20.4529 30.8764 20.6237 30.4514 20.9272 30.1379C21.2308 29.8244 21.6424 29.648 22.0717 29.6475H56.4433C56.8727 29.648 57.2843 29.8243 57.5879 30.1378C57.8915 30.4513 58.0623 30.8764 58.0628 31.3197V36.2951C58.0623 36.7385 57.8915 37.1635 57.5879 37.477C57.2843 37.7904 56.8727 37.9668 56.4433 37.9672ZM22.0717 29.9235C21.7133 29.9239 21.3696 30.0712 21.1161 30.3329C20.8627 30.5947 20.7201 30.9496 20.7198 31.3197V36.2951C20.7202 36.6653 20.8627 37.0201 21.1162 37.2818C21.3696 37.5435 21.7133 37.6908 22.0717 37.6912H56.4433C56.8018 37.6908 57.1454 37.5435 57.3989 37.2818C57.6524 37.0201 57.795 36.6653 57.7954 36.2951V31.3197C57.795 30.9495 57.6525 30.5947 57.399 30.3329C57.1455 30.0712 56.8018 29.9239 56.4433 29.9235H22.0717Z" fill="#292A2E"/>
<path d="M56.4436 41.2808H22.0718C21.2513 41.2808 20.5862 41.9676 20.5862 42.8148V47.7904C20.5862 48.6376 21.2513 49.3245 22.0718 49.3245H56.4436C57.2641 49.3245 57.9292 48.6376 57.9292 47.7904V42.8148C57.9292 41.9676 57.2641 41.2808 56.4436 41.2808Z" fill="white"/>
<path d="M56.4433 49.4625H22.0717C21.6423 49.462 21.2307 49.2856 20.9271 48.972C20.6235 48.6584 20.4528 48.2333 20.4524 47.7899V42.8149C20.4529 42.3716 20.6237 41.9466 20.9272 41.6331C21.2308 41.3197 21.6424 41.1433 22.0717 41.1428H56.4433C56.8727 41.1433 57.2843 41.3196 57.5879 41.6331C57.8915 41.9466 58.0623 42.3716 58.0628 42.8149V47.7899C58.0624 48.2334 57.8917 48.6585 57.588 48.9721C57.2844 49.2856 56.8727 49.462 56.4433 49.4625ZM22.0717 41.4189C21.7133 41.4193 21.3696 41.5665 21.1162 41.8282C20.8627 42.0899 20.7202 42.4448 20.7198 42.8149V47.7899C20.7202 48.1601 20.8627 48.5149 21.1162 48.7766C21.3696 49.0384 21.7133 49.1856 22.0717 49.186H56.4433C56.8018 49.1856 57.1455 49.0384 57.399 48.7767C57.6524 48.515 57.795 48.1601 57.7954 47.7899V42.8149C57.795 42.4448 57.6524 42.0899 57.399 41.8282C57.1455 41.5665 56.8018 41.4193 56.4433 41.4189H22.0717Z" fill="#292A2E"/>
<path d="M39.2574 23.8026C43.6648 23.8026 47.2376 20.1133 47.2376 15.5623C47.2376 11.0113 43.6648 7.32202 39.2574 7.32202C34.85 7.32202 31.2771 11.0113 31.2771 15.5623C31.2771 20.1133 34.85 23.8026 39.2574 23.8026Z" fill="white"/>
<path d="M39.2575 23.9405C37.6527 23.9405 36.084 23.4491 34.7496 22.5285C33.4153 21.6078 32.3753 20.2993 31.7612 18.7684C31.1471 17.2375 30.9864 15.5529 31.2995 13.9276C31.6125 12.3024 32.3853 10.8095 33.5201 9.63779C34.6548 8.46606 36.1006 7.66811 37.6746 7.34483C39.2485 7.02155 40.88 7.18747 42.3626 7.8216C43.8452 8.45574 45.1125 9.52961 46.004 10.9074C46.8956 12.2852 47.3715 13.9051 47.3715 15.5621C47.3691 17.7835 46.5134 19.9131 44.9923 21.4838C43.4712 23.0545 41.4087 23.938 39.2575 23.9405ZM39.2575 7.45993C37.7056 7.45993 36.1886 7.93511 34.8982 8.8254C33.6078 9.71568 32.6021 10.9811 32.0082 12.4616C31.4143 13.942 31.2589 15.5711 31.5617 17.1428C31.8645 18.7145 32.6118 20.1582 33.7091 21.2913C34.8065 22.4244 36.2046 23.1961 37.7267 23.5087C39.2488 23.8213 40.8265 23.6609 42.2603 23.0476C43.6941 22.4344 44.9195 21.3959 45.7817 20.0635C46.6439 18.7311 47.1041 17.1646 47.1041 15.5621C47.1018 13.414 46.2743 11.3546 44.8033 9.83567C43.3323 8.31674 41.3378 7.46234 39.2575 7.45993Z" fill="#292A2E"/>
<path opacity="0.5" d="M47.0604 15.5621C47.0627 17.4693 46.4073 19.3152 45.2115 20.7688C44.4751 19.8823 43.5616 19.1707 42.5338 18.6829C41.506 18.1951 40.3881 17.9427 39.2569 17.9429C38.1258 17.9431 37.008 18.196 35.9803 18.6841C34.9527 19.1723 34.0395 19.8842 33.3033 20.7711C32.4913 19.7815 31.9227 18.6042 31.6457 17.3392C31.3687 16.0741 31.3916 14.7587 31.7123 13.5048C32.033 12.2508 32.6422 11.0953 33.488 10.1364C34.3338 9.1776 35.3912 8.44374 36.5705 7.99722C37.7498 7.5507 39.016 7.40472 40.2616 7.57168C41.5072 7.73865 42.6953 8.21362 43.7251 8.95624C44.7549 9.69885 45.5958 10.6872 46.1765 11.8372C46.7572 12.9873 47.0604 14.2651 47.0604 15.5621Z" fill="#367CFF"/>
<path d="M45.2117 20.7691C44.4793 21.6621 43.5674 22.3797 42.5392 22.872C41.511 23.3642 40.3914 23.6193 39.2581 23.6195C38.1248 23.6197 37.005 23.365 35.9767 22.8732C34.9484 22.3813 34.0362 21.664 33.3035 20.7713C34.0396 19.8844 34.9529 19.1725 35.9805 18.6844C37.0082 18.1962 38.1259 17.9433 39.2571 17.9431C40.3883 17.9429 41.5061 18.1954 42.5339 18.6831C43.5618 19.1709 44.4752 19.8825 45.2117 20.7691Z" fill="white"/>
<path d="M39.2573 16.4397C40.9993 16.4397 42.4114 14.9815 42.4114 13.1828C42.4114 11.3842 40.9993 9.92603 39.2573 9.92603C37.5154 9.92603 36.1033 11.3842 36.1033 13.1828C36.1033 14.9815 37.5154 16.4397 39.2573 16.4397Z" fill="white"/>
<g opacity="0.4">
<path d="M23.4794 46.2823C24.0033 46.2823 24.428 45.8438 24.428 45.3028C24.428 44.7618 24.0033 44.3232 23.4794 44.3232C22.9555 44.3232 22.5308 44.7618 22.5308 45.3028C22.5308 45.8438 22.9555 46.2823 23.4794 46.2823Z" fill="#292A2E"/>
<path d="M26.4467 46.2823C26.9706 46.2823 27.3953 45.8438 27.3953 45.3028C27.3953 44.7618 26.9706 44.3232 26.4467 44.3232C25.9228 44.3232 25.498 44.7618 25.498 45.3028C25.498 45.8438 25.9228 46.2823 26.4467 46.2823Z" fill="#292A2E"/>
<path d="M29.4142 46.2823C29.9381 46.2823 30.3629 45.8438 30.3629 45.3028C30.3629 44.7618 29.9381 44.3232 29.4142 44.3232C28.8903 44.3232 28.4656 44.7618 28.4656 45.3028C28.4656 45.8438 28.8903 46.2823 29.4142 46.2823Z" fill="#292A2E"/>
<path d="M32.3817 46.2823C32.9057 46.2823 33.3304 45.8438 33.3304 45.3028C33.3304 44.7618 32.9057 44.3232 32.3817 44.3232C31.8578 44.3232 31.4331 44.7618 31.4331 45.3028C31.4331 45.8438 31.8578 46.2823 32.3817 46.2823Z" fill="#292A2E"/>
<path d="M35.3488 46.2823C35.8727 46.2823 36.2974 45.8438 36.2974 45.3028C36.2974 44.7618 35.8727 44.3232 35.3488 44.3232C34.8249 44.3232 34.4001 44.7618 34.4001 45.3028C34.4001 45.8438 34.8249 46.2823 35.3488 46.2823Z" fill="#292A2E"/>
<path d="M38.3158 46.2823C38.8397 46.2823 39.2645 45.8438 39.2645 45.3028C39.2645 44.7618 38.8397 44.3232 38.3158 44.3232C37.7919 44.3232 37.3672 44.7618 37.3672 45.3028C37.3672 45.8438 37.7919 46.2823 38.3158 46.2823Z" fill="#292A2E"/>
<path d="M41.2836 46.2823C41.8075 46.2823 42.2322 45.8438 42.2322 45.3028C42.2322 44.7618 41.8075 44.3232 41.2836 44.3232C40.7597 44.3232 40.335 44.7618 40.335 45.3028C40.335 45.8438 40.7597 46.2823 41.2836 46.2823Z" fill="#292A2E"/>
</g>
<g opacity="0.3">
<path d="M24.4207 33.7483V34.0796H23.2024V33.7483H24.4207Z" fill="black"/>
<path d="M25.9346 33.7483V34.0796H24.7163V33.7483H25.9346Z" fill="black"/>
<path d="M27.4483 33.7483V34.0796H26.23V33.7483H27.4483Z" fill="black"/>
<path d="M28.9622 33.7483V34.0796H27.7439V33.7483H28.9622Z" fill="black"/>
<path d="M30.4765 33.7483V34.0796H29.2581V33.7483H30.4765Z" fill="black"/>
<path d="M33.2087 35.6174C32.9377 35.7611 32.6358 35.8314 32.3313 35.8215C31.5223 35.8215 30.8367 35.2103 30.8367 34.2324C30.8367 33.1833 31.5421 32.2766 32.637 32.2766C33.4953 32.2766 34.0724 32.8978 34.0724 33.7485C34.0724 34.5126 33.658 34.9607 33.1944 34.9607C32.9972 34.9607 32.8147 34.8227 32.8294 34.5126H32.8096C32.7458 34.6469 32.6469 34.76 32.524 34.8392C32.4012 34.9184 32.2593 34.9605 32.1144 34.9607C31.8284 34.9607 31.5817 34.7213 31.5817 34.3191C31.5812 34.1604 31.611 34.0032 31.6696 33.8564C31.7281 33.7097 31.8142 33.5764 31.9229 33.4642C32.0316 33.352 32.1607 33.2631 32.3028 33.2026C32.4448 33.1422 32.5971 33.1113 32.7508 33.1119C32.932 33.1092 33.1118 33.1456 33.2786 33.2189L33.1108 34.1407C33.0369 34.5272 33.0961 34.7067 33.2588 34.7113C33.5104 34.7162 33.7915 34.3699 33.7915 33.7792C33.7915 33.0407 33.3624 32.511 32.5979 32.511C31.7939 32.511 31.1181 33.1679 31.1181 34.2019C31.1181 35.0525 31.6558 35.5771 32.3858 35.5771C32.6446 35.5833 32.9008 35.522 33.1306 35.3988L33.2087 35.6174ZM32.9374 33.4171C32.8573 33.3928 32.7742 33.3808 32.6908 33.3815C32.2567 33.3815 31.9066 33.8042 31.9066 34.2982C31.9066 34.5223 32.0151 34.6847 32.2321 34.6847C32.5182 34.6847 32.7795 34.3079 32.8337 33.9921L32.9374 33.4171Z" fill="black"/>
<path d="M35.625 33.7483V34.0796H34.4067V33.7483H35.625Z" fill="black"/>
<path d="M37.1386 33.7483V34.0796H35.9202V33.7483H37.1386Z" fill="black"/>
<path d="M38.6524 33.7483V34.0796H37.4341V33.7483H38.6524Z" fill="black"/>
</g>
</svg>
