<svg width="35" height="62" viewBox="0 0 35 62" fill="none" xmlns="http://www.w3.org/2000/svg">
<path d="M7.00008 62C8.28875 62 9.33341 61.1046 9.33341 60C9.33341 58.8954 8.28875 58 7.00008 58C5.71142 58 4.66675 58.8954 4.66675 60C4.66675 61.1046 5.71142 62 7.00008 62Z" fill="#262626"/>
<path d="M27.9998 62C29.2885 62 30.3332 61.1046 30.3332 60C30.3332 58.8954 29.2885 58 27.9998 58C26.7112 58 25.6665 58.8954 25.6665 60C25.6665 61.1046 26.7112 62 27.9998 62Z" fill="#262626"/>
<path fill-rule="evenodd" clip-rule="evenodd" d="M0 21.0028C0 17.6875 3.13682 15 6.99865 15H28.0013C31.8666 15 35 17.6862 35 21.0028V57.9983C35 58.5515 34.4781 59 33.8355 59H1.16451C0.52137 59 0 58.5502 0 57.9983V21.0028Z" fill="#540D6E"/>
<path d="M8.16675 33V52.0263M22.1667 33V52.0263M12.8334 33V52.0263M26.8334 33V52.0263" stroke="#8C32AD" stroke-width="2.46667" stroke-linecap="square"/>
<path d="M9.33325 14V3M25.6666 14V3" stroke="#979797" stroke-width="2.46667" stroke-linecap="square"/>
<path d="M4.66675 2H30.3599" stroke="#595959" stroke-width="2.46667" stroke-linecap="square"/>
<path fill-rule="evenodd" clip-rule="evenodd" d="M7.00024 19H28.0002V27H7.00024V19Z" fill="#EE4266" fill-opacity="0.93"/>
</svg>
