<svg width="38" height="40" viewBox="0 0 38 40" fill="none" xmlns="http://www.w3.org/2000/svg">
<path d="M19 39.9267C29.4934 39.9267 38 30.9888 38 19.9634C38 8.9379 29.4934 0 19 0C8.50659 0 0 8.9379 0 19.9634C0 30.9888 8.50659 39.9267 19 39.9267Z" fill="#540D6E"/>
<path d="M19.6335 33.2723C21.7322 33.2723 23.4335 31.4847 23.4335 29.2797C23.4335 27.0746 21.7322 25.287 19.6335 25.287C17.5348 25.287 15.8335 27.0746 15.8335 29.2797C15.8335 31.4847 17.5348 33.2723 19.6335 33.2723Z" fill="white"/>
<path d="M25.9672 22.6252C24.3463 20.9806 22.1071 19.9634 19.6338 19.9634C17.1605 19.9634 14.9213 20.9806 13.3005 22.6252M29.1338 18.9277C26.6215 16.2784 23.1508 14.6398 19.3172 14.6398C15.4835 14.6398 12.0128 16.2784 9.50049 18.9277" stroke="white" stroke-width="1.22671" stroke-linecap="round"/>
<path d="M32.3002 15.3053C28.8964 11.605 24.1942 9.31628 19.0002 9.31628C13.8062 9.31628 9.10396 11.605 5.7002 15.3053" stroke="white" stroke-width="1.22671" stroke-linecap="round"/>
</svg>
